<mxfile host="app.diagrams.net" modified="2023-11-04T00:32:37.884Z" agent="Mozilla/5.0 (Windows NT 10.0; Win64; x64) AppleWebKit/537.36 (KHTML, like Gecko) Chrome/118.0.0.0 Safari/537.36" etag="wOxpBjm0CTc-gmilM5Rg" version="22.0.8" type="github" pages="2">
  <diagram name="Page-1" id="gXTi4N7eympn1mQ3mHzE">
    <mxGraphModel dx="2694" dy="1166" grid="1" gridSize="10" guides="1" tooltips="1" connect="1" arrows="1" fold="1" page="1" pageScale="2" pageWidth="850" pageHeight="1100" math="0" shadow="0">
      <root>
        <mxCell id="0" />
        <mxCell id="1" parent="0" />
        <mxCell id="LdZz7DW8RSjzyneldxjD-50" value="" style="ellipse;whiteSpace=wrap;html=1;pointerEvents=0;align=center;verticalAlign=top;fontFamily=Helvetica;fontSize=12;fontColor=default;fillColor=none;gradientColor=none;" vertex="1" parent="1">
          <mxGeometry x="240" y="40" height="10" as="geometry" />
        </mxCell>
        <mxCell id="LdZz7DW8RSjzyneldxjD-232" value="" style="ellipse;whiteSpace=wrap;html=1;pointerEvents=0;align=center;verticalAlign=top;fontFamily=Helvetica;fontSize=12;fontColor=default;fillColor=none;gradientColor=none;" vertex="1" parent="1">
          <mxGeometry x="520" y="40" height="10" as="geometry" />
        </mxCell>
        <mxCell id="LdZz7DW8RSjzyneldxjD-290" value="" style="ellipse;whiteSpace=wrap;html=1;pointerEvents=0;align=center;verticalAlign=top;fontFamily=Helvetica;fontSize=12;fontColor=default;fillColor=none;gradientColor=none;" vertex="1" parent="1">
          <mxGeometry x="890" y="180" height="10" as="geometry" />
        </mxCell>
        <mxCell id="LdZz7DW8RSjzyneldxjD-701" value="" style="ellipse;whiteSpace=wrap;html=1;pointerEvents=0;align=center;verticalAlign=top;fontFamily=Helvetica;fontSize=12;fontColor=default;fillColor=none;gradientColor=none;" vertex="1" parent="1">
          <mxGeometry x="1040" y="210" height="10" as="geometry" />
        </mxCell>
        <mxCell id="LdZz7DW8RSjzyneldxjD-759" value="" style="ellipse;whiteSpace=wrap;html=1;pointerEvents=0;align=center;verticalAlign=top;fontFamily=Helvetica;fontSize=12;fontColor=default;fillColor=none;gradientColor=none;" vertex="1" parent="1">
          <mxGeometry x="1320" y="210" height="10" as="geometry" />
        </mxCell>
        <mxCell id="LdZz7DW8RSjzyneldxjD-817" value="" style="ellipse;whiteSpace=wrap;html=1;pointerEvents=0;align=center;verticalAlign=top;fontFamily=Helvetica;fontSize=12;fontColor=default;fillColor=none;gradientColor=none;" vertex="1" parent="1">
          <mxGeometry x="1690" y="350" height="10" as="geometry" />
        </mxCell>
        <mxCell id="LdZz7DW8RSjzyneldxjD-880" value="" style="ellipse;whiteSpace=wrap;html=1;pointerEvents=0;align=center;verticalAlign=top;fontFamily=Helvetica;fontSize=12;fontColor=default;fillColor=none;gradientColor=none;" vertex="1" parent="1">
          <mxGeometry x="430" y="710" height="10" as="geometry" />
        </mxCell>
        <mxCell id="LdZz7DW8RSjzyneldxjD-881" value="" style="ellipse;whiteSpace=wrap;html=1;pointerEvents=0;align=center;verticalAlign=top;fontFamily=Helvetica;fontSize=12;fontColor=default;fillColor=none;gradientColor=none;" vertex="1" parent="1">
          <mxGeometry x="710" y="710" height="10" as="geometry" />
        </mxCell>
        <mxCell id="LdZz7DW8RSjzyneldxjD-882" value="" style="ellipse;whiteSpace=wrap;html=1;pointerEvents=0;align=center;verticalAlign=top;fontFamily=Helvetica;fontSize=12;fontColor=default;fillColor=none;gradientColor=none;" vertex="1" parent="1">
          <mxGeometry x="1080" y="850" height="10" as="geometry" />
        </mxCell>
        <mxCell id="LdZz7DW8RSjzyneldxjD-883" value="" style="ellipse;whiteSpace=wrap;html=1;pointerEvents=0;align=center;verticalAlign=top;fontFamily=Helvetica;fontSize=12;fontColor=default;fillColor=none;gradientColor=none;" vertex="1" parent="1">
          <mxGeometry x="1230" y="880" height="10" as="geometry" />
        </mxCell>
        <mxCell id="LdZz7DW8RSjzyneldxjD-884" value="" style="ellipse;whiteSpace=wrap;html=1;pointerEvents=0;align=center;verticalAlign=top;fontFamily=Helvetica;fontSize=12;fontColor=default;fillColor=none;gradientColor=none;" vertex="1" parent="1">
          <mxGeometry x="1510" y="880" height="10" as="geometry" />
        </mxCell>
        <mxCell id="LdZz7DW8RSjzyneldxjD-885" value="" style="ellipse;whiteSpace=wrap;html=1;pointerEvents=0;align=center;verticalAlign=top;fontFamily=Helvetica;fontSize=12;fontColor=default;fillColor=none;gradientColor=none;" vertex="1" parent="1">
          <mxGeometry x="1880" y="1020" height="10" as="geometry" />
        </mxCell>
        <mxCell id="LdZz7DW8RSjzyneldxjD-886" value="" style="group" vertex="1" connectable="0" parent="1">
          <mxGeometry x="1330" y="730" width="195" height="513" as="geometry" />
        </mxCell>
        <mxCell id="LdZz7DW8RSjzyneldxjD-887" value="" style="group" vertex="1" connectable="0" parent="LdZz7DW8RSjzyneldxjD-886">
          <mxGeometry width="50" height="513" as="geometry" />
        </mxCell>
        <mxCell id="LdZz7DW8RSjzyneldxjD-888" value="" style="group;movable=0;resizable=0;rotatable=0;deletable=0;editable=0;locked=1;connectable=0;" vertex="1" connectable="0" parent="LdZz7DW8RSjzyneldxjD-887">
          <mxGeometry width="35" height="513" as="geometry" />
        </mxCell>
        <mxCell id="LdZz7DW8RSjzyneldxjD-889" value="&lt;font size=&quot;3&quot;&gt;A&lt;/font&gt;" style="text;html=1;align=center;verticalAlign=middle;resizable=0;points=[];autosize=1;strokeColor=none;fillColor=none;rotation=0;" vertex="1" parent="LdZz7DW8RSjzyneldxjD-888">
          <mxGeometry width="30" height="30" as="geometry" />
        </mxCell>
        <mxCell id="LdZz7DW8RSjzyneldxjD-890" value="&lt;font style=&quot;font-size: 18px;&quot;&gt;C&lt;/font&gt;" style="text;html=1;align=center;verticalAlign=middle;resizable=0;points=[];autosize=1;strokeColor=none;fillColor=none;" vertex="1" parent="LdZz7DW8RSjzyneldxjD-888">
          <mxGeometry x="-5" y="75" width="40" height="40" as="geometry" />
        </mxCell>
        <mxCell id="LdZz7DW8RSjzyneldxjD-891" value="&lt;font style=&quot;font-size: 18px;&quot;&gt;D&lt;/font&gt;" style="text;html=1;align=center;verticalAlign=middle;resizable=0;points=[];autosize=1;strokeColor=none;fillColor=none;movable=0;rotatable=0;deletable=0;editable=0;locked=1;connectable=0;" vertex="1" parent="LdZz7DW8RSjzyneldxjD-888">
          <mxGeometry x="-5" y="115" width="40" height="40" as="geometry" />
        </mxCell>
        <mxCell id="LdZz7DW8RSjzyneldxjD-892" value="&lt;font style=&quot;font-size: 18px;&quot;&gt;E&lt;/font&gt;" style="text;html=1;align=center;verticalAlign=middle;resizable=0;points=[];autosize=1;strokeColor=none;fillColor=none;" vertex="1" parent="LdZz7DW8RSjzyneldxjD-888">
          <mxGeometry x="-5" y="153" width="40" height="40" as="geometry" />
        </mxCell>
        <mxCell id="LdZz7DW8RSjzyneldxjD-893" value="&lt;font style=&quot;font-size: 18px;&quot;&gt;F&lt;/font&gt;" style="text;html=1;align=center;verticalAlign=middle;resizable=0;points=[];autosize=1;strokeColor=none;fillColor=none;" vertex="1" parent="LdZz7DW8RSjzyneldxjD-888">
          <mxGeometry y="193" width="30" height="40" as="geometry" />
        </mxCell>
        <mxCell id="LdZz7DW8RSjzyneldxjD-894" value="&lt;font style=&quot;font-size: 18px;&quot;&gt;G&lt;/font&gt;" style="text;html=1;align=center;verticalAlign=middle;resizable=0;points=[];autosize=1;strokeColor=none;fillColor=none;" vertex="1" parent="LdZz7DW8RSjzyneldxjD-888">
          <mxGeometry x="-5" y="233" width="40" height="40" as="geometry" />
        </mxCell>
        <mxCell id="LdZz7DW8RSjzyneldxjD-895" value="&lt;font style=&quot;font-size: 18px;&quot;&gt;H&lt;/font&gt;" style="text;html=1;align=center;verticalAlign=middle;resizable=0;points=[];autosize=1;strokeColor=none;fillColor=none;" vertex="1" parent="LdZz7DW8RSjzyneldxjD-888">
          <mxGeometry x="-5" y="273" width="40" height="40" as="geometry" />
        </mxCell>
        <mxCell id="LdZz7DW8RSjzyneldxjD-896" value="&lt;font style=&quot;font-size: 18px;&quot;&gt;I&lt;/font&gt;" style="text;html=1;align=center;verticalAlign=middle;resizable=0;points=[];autosize=1;strokeColor=none;fillColor=none;" vertex="1" parent="LdZz7DW8RSjzyneldxjD-888">
          <mxGeometry y="315" width="30" height="40" as="geometry" />
        </mxCell>
        <mxCell id="LdZz7DW8RSjzyneldxjD-897" value="&lt;font style=&quot;font-size: 18px;&quot;&gt;J&lt;/font&gt;" style="text;html=1;align=center;verticalAlign=middle;resizable=0;points=[];autosize=1;strokeColor=none;fillColor=none;" vertex="1" parent="LdZz7DW8RSjzyneldxjD-888">
          <mxGeometry y="353" width="30" height="40" as="geometry" />
        </mxCell>
        <mxCell id="LdZz7DW8RSjzyneldxjD-898" value="&lt;font style=&quot;font-size: 18px;&quot;&gt;K&lt;/font&gt;" style="text;html=1;align=center;verticalAlign=middle;resizable=0;points=[];autosize=1;strokeColor=none;fillColor=none;" vertex="1" parent="LdZz7DW8RSjzyneldxjD-888">
          <mxGeometry x="-5" y="393" width="40" height="40" as="geometry" />
        </mxCell>
        <mxCell id="LdZz7DW8RSjzyneldxjD-899" value="&lt;font style=&quot;font-size: 18px;&quot;&gt;L&lt;/font&gt;" style="text;html=1;align=center;verticalAlign=middle;resizable=0;points=[];autosize=1;strokeColor=none;fillColor=none;" vertex="1" parent="LdZz7DW8RSjzyneldxjD-888">
          <mxGeometry y="435" width="30" height="40" as="geometry" />
        </mxCell>
        <mxCell id="LdZz7DW8RSjzyneldxjD-900" value="&lt;font style=&quot;font-size: 18px;&quot;&gt;M&lt;/font&gt;" style="text;html=1;align=center;verticalAlign=middle;resizable=0;points=[];autosize=1;strokeColor=none;fillColor=none;" vertex="1" parent="LdZz7DW8RSjzyneldxjD-888">
          <mxGeometry x="-5" y="473" width="40" height="40" as="geometry" />
        </mxCell>
        <mxCell id="LdZz7DW8RSjzyneldxjD-901" value="&lt;font style=&quot;font-size: 18px;&quot;&gt;B&lt;/font&gt;" style="text;html=1;align=center;verticalAlign=middle;resizable=0;points=[];autosize=1;strokeColor=none;fillColor=none;" vertex="1" parent="LdZz7DW8RSjzyneldxjD-888">
          <mxGeometry x="-5" y="33" width="40" height="40" as="geometry" />
        </mxCell>
        <mxCell id="LdZz7DW8RSjzyneldxjD-902" value="" style="shape=waypoint;sketch=0;size=6;pointerEvents=1;points=[];fillColor=none;resizable=0;rotatable=0;perimeter=centerPerimeter;snapToPoint=1;" vertex="1" parent="LdZz7DW8RSjzyneldxjD-887">
          <mxGeometry x="30" width="20" height="20" as="geometry" />
        </mxCell>
        <mxCell id="LdZz7DW8RSjzyneldxjD-903" value="" style="shape=waypoint;sketch=0;size=6;pointerEvents=1;points=[];fillColor=none;resizable=0;rotatable=0;perimeter=centerPerimeter;snapToPoint=1;" vertex="1" parent="LdZz7DW8RSjzyneldxjD-887">
          <mxGeometry x="30" y="40" width="20" height="20" as="geometry" />
        </mxCell>
        <mxCell id="LdZz7DW8RSjzyneldxjD-904" value="" style="shape=waypoint;sketch=0;size=6;pointerEvents=1;points=[];fillColor=none;resizable=0;rotatable=0;perimeter=centerPerimeter;snapToPoint=1;" vertex="1" parent="LdZz7DW8RSjzyneldxjD-887">
          <mxGeometry x="30" y="80" width="20" height="20" as="geometry" />
        </mxCell>
        <mxCell id="LdZz7DW8RSjzyneldxjD-905" value="" style="shape=waypoint;sketch=0;size=6;pointerEvents=1;points=[];fillColor=none;resizable=0;rotatable=0;perimeter=centerPerimeter;snapToPoint=1;" vertex="1" parent="LdZz7DW8RSjzyneldxjD-887">
          <mxGeometry x="30" y="120" width="20" height="20" as="geometry" />
        </mxCell>
        <mxCell id="LdZz7DW8RSjzyneldxjD-906" value="" style="shape=waypoint;sketch=0;size=6;pointerEvents=1;points=[];fillColor=none;resizable=0;rotatable=0;perimeter=centerPerimeter;snapToPoint=1;" vertex="1" parent="LdZz7DW8RSjzyneldxjD-887">
          <mxGeometry x="30" y="160" width="20" height="20" as="geometry" />
        </mxCell>
        <mxCell id="LdZz7DW8RSjzyneldxjD-907" value="" style="shape=waypoint;sketch=0;size=6;pointerEvents=1;points=[];fillColor=none;resizable=0;rotatable=0;perimeter=centerPerimeter;snapToPoint=1;" vertex="1" parent="LdZz7DW8RSjzyneldxjD-887">
          <mxGeometry x="30" y="200" width="20" height="20" as="geometry" />
        </mxCell>
        <mxCell id="LdZz7DW8RSjzyneldxjD-908" value="" style="shape=waypoint;sketch=0;size=6;pointerEvents=1;points=[];fillColor=none;resizable=0;rotatable=0;perimeter=centerPerimeter;snapToPoint=1;" vertex="1" parent="LdZz7DW8RSjzyneldxjD-887">
          <mxGeometry x="30" y="240" width="20" height="20" as="geometry" />
        </mxCell>
        <mxCell id="LdZz7DW8RSjzyneldxjD-909" value="" style="shape=waypoint;sketch=0;size=6;pointerEvents=1;points=[];fillColor=none;resizable=0;rotatable=0;perimeter=centerPerimeter;snapToPoint=1;" vertex="1" parent="LdZz7DW8RSjzyneldxjD-887">
          <mxGeometry x="30" y="280" width="20" height="20" as="geometry" />
        </mxCell>
        <mxCell id="LdZz7DW8RSjzyneldxjD-910" value="" style="shape=waypoint;sketch=0;size=6;pointerEvents=1;points=[];fillColor=none;resizable=0;rotatable=0;perimeter=centerPerimeter;snapToPoint=1;" vertex="1" parent="LdZz7DW8RSjzyneldxjD-887">
          <mxGeometry x="30" y="320" width="20" height="20" as="geometry" />
        </mxCell>
        <mxCell id="LdZz7DW8RSjzyneldxjD-911" value="" style="shape=waypoint;sketch=0;size=6;pointerEvents=1;points=[];fillColor=none;resizable=0;rotatable=0;perimeter=centerPerimeter;snapToPoint=1;" vertex="1" parent="LdZz7DW8RSjzyneldxjD-887">
          <mxGeometry x="30" y="360" width="20" height="20" as="geometry" />
        </mxCell>
        <mxCell id="LdZz7DW8RSjzyneldxjD-912" value="" style="shape=waypoint;sketch=0;size=6;pointerEvents=1;points=[];fillColor=none;resizable=0;rotatable=0;perimeter=centerPerimeter;snapToPoint=1;" vertex="1" parent="LdZz7DW8RSjzyneldxjD-887">
          <mxGeometry x="30" y="400" width="20" height="20" as="geometry" />
        </mxCell>
        <mxCell id="LdZz7DW8RSjzyneldxjD-913" value="" style="shape=waypoint;sketch=0;size=6;pointerEvents=1;points=[];fillColor=none;resizable=0;rotatable=0;perimeter=centerPerimeter;snapToPoint=1;" vertex="1" parent="LdZz7DW8RSjzyneldxjD-887">
          <mxGeometry x="30" y="440" width="20" height="20" as="geometry" />
        </mxCell>
        <mxCell id="LdZz7DW8RSjzyneldxjD-914" value="" style="shape=waypoint;sketch=0;size=6;pointerEvents=1;points=[];fillColor=none;resizable=0;rotatable=0;perimeter=centerPerimeter;snapToPoint=1;align=center;verticalAlign=top;fontFamily=Helvetica;fontSize=12;fontColor=default;" vertex="1" parent="LdZz7DW8RSjzyneldxjD-887">
          <mxGeometry x="30" y="480" width="20" height="20" as="geometry" />
        </mxCell>
        <mxCell id="LdZz7DW8RSjzyneldxjD-915" value="" style="group" vertex="1" connectable="0" parent="LdZz7DW8RSjzyneldxjD-886">
          <mxGeometry x="140" width="55" height="513" as="geometry" />
        </mxCell>
        <mxCell id="LdZz7DW8RSjzyneldxjD-916" value="" style="group;movable=1;resizable=1;rotatable=1;deletable=1;editable=1;locked=0;connectable=1;" vertex="1" connectable="0" parent="LdZz7DW8RSjzyneldxjD-915">
          <mxGeometry x="20" width="35" height="513" as="geometry" />
        </mxCell>
        <mxCell id="LdZz7DW8RSjzyneldxjD-917" value="&lt;font size=&quot;3&quot;&gt;A&lt;/font&gt;" style="text;html=1;align=center;verticalAlign=middle;resizable=0;points=[];autosize=1;strokeColor=none;fillColor=none;rotation=0;" vertex="1" parent="LdZz7DW8RSjzyneldxjD-916">
          <mxGeometry width="30" height="30" as="geometry" />
        </mxCell>
        <mxCell id="LdZz7DW8RSjzyneldxjD-918" value="&lt;font style=&quot;font-size: 18px;&quot;&gt;C&lt;/font&gt;" style="text;html=1;align=center;verticalAlign=middle;resizable=0;points=[];autosize=1;strokeColor=none;fillColor=none;" vertex="1" parent="LdZz7DW8RSjzyneldxjD-916">
          <mxGeometry x="-5" y="75" width="40" height="40" as="geometry" />
        </mxCell>
        <mxCell id="LdZz7DW8RSjzyneldxjD-919" value="&lt;font style=&quot;font-size: 18px;&quot;&gt;D&lt;/font&gt;" style="text;html=1;align=center;verticalAlign=middle;resizable=0;points=[];autosize=1;strokeColor=none;fillColor=none;movable=0;rotatable=0;deletable=0;editable=0;locked=1;connectable=0;" vertex="1" parent="LdZz7DW8RSjzyneldxjD-916">
          <mxGeometry x="-5" y="115" width="40" height="40" as="geometry" />
        </mxCell>
        <mxCell id="LdZz7DW8RSjzyneldxjD-920" value="&lt;font style=&quot;font-size: 18px;&quot;&gt;E&lt;/font&gt;" style="text;html=1;align=center;verticalAlign=middle;resizable=0;points=[];autosize=1;strokeColor=none;fillColor=none;" vertex="1" parent="LdZz7DW8RSjzyneldxjD-916">
          <mxGeometry x="-5" y="153" width="40" height="40" as="geometry" />
        </mxCell>
        <mxCell id="LdZz7DW8RSjzyneldxjD-921" value="&lt;font style=&quot;font-size: 18px;&quot;&gt;F&lt;/font&gt;" style="text;html=1;align=center;verticalAlign=middle;resizable=0;points=[];autosize=1;strokeColor=none;fillColor=none;" vertex="1" parent="LdZz7DW8RSjzyneldxjD-916">
          <mxGeometry y="193" width="30" height="40" as="geometry" />
        </mxCell>
        <mxCell id="LdZz7DW8RSjzyneldxjD-922" value="&lt;font style=&quot;font-size: 18px;&quot;&gt;G&lt;/font&gt;" style="text;html=1;align=center;verticalAlign=middle;resizable=0;points=[];autosize=1;strokeColor=none;fillColor=none;" vertex="1" parent="LdZz7DW8RSjzyneldxjD-916">
          <mxGeometry x="-5" y="233" width="40" height="40" as="geometry" />
        </mxCell>
        <mxCell id="LdZz7DW8RSjzyneldxjD-923" value="&lt;font style=&quot;font-size: 18px;&quot;&gt;H&lt;/font&gt;" style="text;html=1;align=center;verticalAlign=middle;resizable=0;points=[];autosize=1;strokeColor=none;fillColor=none;" vertex="1" parent="LdZz7DW8RSjzyneldxjD-916">
          <mxGeometry x="-5" y="273" width="40" height="40" as="geometry" />
        </mxCell>
        <mxCell id="LdZz7DW8RSjzyneldxjD-924" value="&lt;font style=&quot;font-size: 18px;&quot;&gt;I&lt;/font&gt;" style="text;html=1;align=center;verticalAlign=middle;resizable=0;points=[];autosize=1;strokeColor=none;fillColor=none;" vertex="1" parent="LdZz7DW8RSjzyneldxjD-916">
          <mxGeometry y="315" width="30" height="40" as="geometry" />
        </mxCell>
        <mxCell id="LdZz7DW8RSjzyneldxjD-925" value="&lt;font style=&quot;font-size: 18px;&quot;&gt;J&lt;/font&gt;" style="text;html=1;align=center;verticalAlign=middle;resizable=0;points=[];autosize=1;strokeColor=none;fillColor=none;" vertex="1" parent="LdZz7DW8RSjzyneldxjD-916">
          <mxGeometry y="353" width="30" height="40" as="geometry" />
        </mxCell>
        <mxCell id="LdZz7DW8RSjzyneldxjD-926" value="&lt;font style=&quot;font-size: 18px;&quot;&gt;K&lt;/font&gt;" style="text;html=1;align=center;verticalAlign=middle;resizable=0;points=[];autosize=1;strokeColor=none;fillColor=none;" vertex="1" parent="LdZz7DW8RSjzyneldxjD-916">
          <mxGeometry x="-5" y="393" width="40" height="40" as="geometry" />
        </mxCell>
        <mxCell id="LdZz7DW8RSjzyneldxjD-927" value="&lt;font style=&quot;font-size: 18px;&quot;&gt;L&lt;/font&gt;" style="text;html=1;align=center;verticalAlign=middle;resizable=0;points=[];autosize=1;strokeColor=none;fillColor=none;" vertex="1" parent="LdZz7DW8RSjzyneldxjD-916">
          <mxGeometry y="435" width="30" height="40" as="geometry" />
        </mxCell>
        <mxCell id="LdZz7DW8RSjzyneldxjD-928" value="&lt;font style=&quot;font-size: 18px;&quot;&gt;M&lt;/font&gt;" style="text;html=1;align=center;verticalAlign=middle;resizable=0;points=[];autosize=1;strokeColor=none;fillColor=none;" vertex="1" parent="LdZz7DW8RSjzyneldxjD-916">
          <mxGeometry x="-5" y="473" width="40" height="40" as="geometry" />
        </mxCell>
        <mxCell id="LdZz7DW8RSjzyneldxjD-929" value="&lt;font style=&quot;font-size: 18px;&quot;&gt;B&lt;/font&gt;" style="text;html=1;align=center;verticalAlign=middle;resizable=0;points=[];autosize=1;strokeColor=none;fillColor=none;" vertex="1" parent="LdZz7DW8RSjzyneldxjD-916">
          <mxGeometry x="-5" y="33" width="40" height="40" as="geometry" />
        </mxCell>
        <mxCell id="LdZz7DW8RSjzyneldxjD-930" value="" style="ellipse;whiteSpace=wrap;html=1;pointerEvents=0;align=center;verticalAlign=top;fontFamily=Helvetica;fontSize=12;fontColor=default;fillColor=none;gradientColor=none;" vertex="1" parent="LdZz7DW8RSjzyneldxjD-915">
          <mxGeometry y="5" width="10" height="10" as="geometry" />
        </mxCell>
        <mxCell id="LdZz7DW8RSjzyneldxjD-931" value="" style="ellipse;whiteSpace=wrap;html=1;pointerEvents=0;align=center;verticalAlign=top;fontFamily=Helvetica;fontSize=12;fontColor=default;fillColor=none;gradientColor=none;" vertex="1" parent="LdZz7DW8RSjzyneldxjD-915">
          <mxGeometry y="205" width="10" height="10" as="geometry" />
        </mxCell>
        <mxCell id="LdZz7DW8RSjzyneldxjD-932" value="" style="ellipse;whiteSpace=wrap;html=1;pointerEvents=0;align=center;verticalAlign=top;fontFamily=Helvetica;fontSize=12;fontColor=default;fillColor=none;gradientColor=none;" vertex="1" parent="LdZz7DW8RSjzyneldxjD-915">
          <mxGeometry y="245" width="10" height="10" as="geometry" />
        </mxCell>
        <mxCell id="LdZz7DW8RSjzyneldxjD-933" value="" style="ellipse;whiteSpace=wrap;html=1;pointerEvents=0;align=center;verticalAlign=top;fontFamily=Helvetica;fontSize=12;fontColor=default;fillColor=none;gradientColor=none;" vertex="1" parent="LdZz7DW8RSjzyneldxjD-915">
          <mxGeometry y="325" width="10" height="10" as="geometry" />
        </mxCell>
        <mxCell id="LdZz7DW8RSjzyneldxjD-934" value="" style="ellipse;whiteSpace=wrap;html=1;pointerEvents=0;align=center;verticalAlign=top;fontFamily=Helvetica;fontSize=12;fontColor=default;fillColor=none;gradientColor=none;" vertex="1" parent="LdZz7DW8RSjzyneldxjD-915">
          <mxGeometry y="365" width="10" height="10" as="geometry" />
        </mxCell>
        <mxCell id="LdZz7DW8RSjzyneldxjD-935" value="" style="ellipse;whiteSpace=wrap;html=1;pointerEvents=0;align=center;verticalAlign=top;fontFamily=Helvetica;fontSize=12;fontColor=default;fillColor=none;gradientColor=none;" vertex="1" parent="LdZz7DW8RSjzyneldxjD-915">
          <mxGeometry y="405" width="10" height="10" as="geometry" />
        </mxCell>
        <mxCell id="LdZz7DW8RSjzyneldxjD-936" value="" style="ellipse;whiteSpace=wrap;html=1;pointerEvents=0;align=center;verticalAlign=top;fontFamily=Helvetica;fontSize=12;fontColor=default;fillColor=none;gradientColor=none;" vertex="1" parent="LdZz7DW8RSjzyneldxjD-915">
          <mxGeometry y="445" width="10" height="10" as="geometry" />
        </mxCell>
        <mxCell id="LdZz7DW8RSjzyneldxjD-937" value="" style="ellipse;whiteSpace=wrap;html=1;pointerEvents=0;align=center;verticalAlign=top;fontFamily=Helvetica;fontSize=12;fontColor=default;fillColor=none;gradientColor=none;" vertex="1" parent="LdZz7DW8RSjzyneldxjD-915">
          <mxGeometry y="485" width="10" height="10" as="geometry" />
        </mxCell>
        <mxCell id="LdZz7DW8RSjzyneldxjD-938" value="" style="ellipse;whiteSpace=wrap;html=1;pointerEvents=0;align=center;verticalAlign=top;fontFamily=Helvetica;fontSize=12;fontColor=default;fillColor=none;gradientColor=none;" vertex="1" parent="LdZz7DW8RSjzyneldxjD-915">
          <mxGeometry y="285" width="10" height="10" as="geometry" />
        </mxCell>
        <mxCell id="LdZz7DW8RSjzyneldxjD-939" value="" style="ellipse;whiteSpace=wrap;html=1;pointerEvents=0;align=center;verticalAlign=top;fontFamily=Helvetica;fontSize=12;fontColor=default;fillColor=none;gradientColor=none;" vertex="1" parent="LdZz7DW8RSjzyneldxjD-915">
          <mxGeometry y="165" width="10" height="10" as="geometry" />
        </mxCell>
        <mxCell id="LdZz7DW8RSjzyneldxjD-940" value="" style="ellipse;whiteSpace=wrap;html=1;pointerEvents=0;align=center;verticalAlign=top;fontFamily=Helvetica;fontSize=12;fontColor=default;fillColor=none;gradientColor=none;" vertex="1" parent="LdZz7DW8RSjzyneldxjD-915">
          <mxGeometry y="130" width="10" height="10" as="geometry" />
        </mxCell>
        <mxCell id="LdZz7DW8RSjzyneldxjD-941" value="" style="ellipse;whiteSpace=wrap;html=1;pointerEvents=0;align=center;verticalAlign=top;fontFamily=Helvetica;fontSize=12;fontColor=default;fillColor=none;gradientColor=none;" vertex="1" parent="LdZz7DW8RSjzyneldxjD-915">
          <mxGeometry y="85" width="10" height="10" as="geometry" />
        </mxCell>
        <mxCell id="LdZz7DW8RSjzyneldxjD-942" value="" style="ellipse;whiteSpace=wrap;html=1;pointerEvents=0;align=center;verticalAlign=top;fontFamily=Helvetica;fontSize=12;fontColor=default;fillColor=none;gradientColor=none;" vertex="1" parent="LdZz7DW8RSjzyneldxjD-915">
          <mxGeometry y="45" width="10" height="10" as="geometry" />
        </mxCell>
        <mxCell id="LdZz7DW8RSjzyneldxjD-943" value="" style="group" vertex="1" connectable="0" parent="1">
          <mxGeometry x="125" y="730" width="955" height="513" as="geometry" />
        </mxCell>
        <mxCell id="LdZz7DW8RSjzyneldxjD-944" value="" style="group" vertex="1" connectable="0" parent="LdZz7DW8RSjzyneldxjD-943">
          <mxGeometry width="195" height="513" as="geometry" />
        </mxCell>
        <mxCell id="LdZz7DW8RSjzyneldxjD-945" value="" style="group" vertex="1" connectable="0" parent="LdZz7DW8RSjzyneldxjD-944">
          <mxGeometry width="50" height="513" as="geometry" />
        </mxCell>
        <mxCell id="LdZz7DW8RSjzyneldxjD-946" value="" style="group;movable=0;resizable=0;rotatable=0;deletable=0;editable=0;locked=1;connectable=0;" vertex="1" connectable="0" parent="LdZz7DW8RSjzyneldxjD-945">
          <mxGeometry width="35" height="513" as="geometry" />
        </mxCell>
        <mxCell id="LdZz7DW8RSjzyneldxjD-947" value="&lt;font size=&quot;3&quot;&gt;A&lt;/font&gt;" style="text;html=1;align=center;verticalAlign=middle;resizable=0;points=[];autosize=1;strokeColor=none;fillColor=none;rotation=0;" vertex="1" parent="LdZz7DW8RSjzyneldxjD-946">
          <mxGeometry width="30" height="30" as="geometry" />
        </mxCell>
        <mxCell id="LdZz7DW8RSjzyneldxjD-948" value="&lt;font style=&quot;font-size: 18px;&quot;&gt;C&lt;/font&gt;" style="text;html=1;align=center;verticalAlign=middle;resizable=0;points=[];autosize=1;strokeColor=none;fillColor=none;" vertex="1" parent="LdZz7DW8RSjzyneldxjD-946">
          <mxGeometry x="-5" y="75" width="40" height="40" as="geometry" />
        </mxCell>
        <mxCell id="LdZz7DW8RSjzyneldxjD-949" value="&lt;font style=&quot;font-size: 18px;&quot;&gt;D&lt;/font&gt;" style="text;html=1;align=center;verticalAlign=middle;resizable=0;points=[];autosize=1;strokeColor=none;fillColor=none;movable=0;rotatable=0;deletable=0;editable=0;locked=1;connectable=0;" vertex="1" parent="LdZz7DW8RSjzyneldxjD-946">
          <mxGeometry x="-5" y="115" width="40" height="40" as="geometry" />
        </mxCell>
        <mxCell id="LdZz7DW8RSjzyneldxjD-950" value="&lt;font style=&quot;font-size: 18px;&quot;&gt;E&lt;/font&gt;" style="text;html=1;align=center;verticalAlign=middle;resizable=0;points=[];autosize=1;strokeColor=none;fillColor=none;" vertex="1" parent="LdZz7DW8RSjzyneldxjD-946">
          <mxGeometry x="-5" y="153" width="40" height="40" as="geometry" />
        </mxCell>
        <mxCell id="LdZz7DW8RSjzyneldxjD-951" value="&lt;font style=&quot;font-size: 18px;&quot;&gt;F&lt;/font&gt;" style="text;html=1;align=center;verticalAlign=middle;resizable=0;points=[];autosize=1;strokeColor=none;fillColor=none;" vertex="1" parent="LdZz7DW8RSjzyneldxjD-946">
          <mxGeometry y="193" width="30" height="40" as="geometry" />
        </mxCell>
        <mxCell id="LdZz7DW8RSjzyneldxjD-952" value="&lt;font style=&quot;font-size: 18px;&quot;&gt;G&lt;/font&gt;" style="text;html=1;align=center;verticalAlign=middle;resizable=0;points=[];autosize=1;strokeColor=none;fillColor=none;" vertex="1" parent="LdZz7DW8RSjzyneldxjD-946">
          <mxGeometry x="-5" y="233" width="40" height="40" as="geometry" />
        </mxCell>
        <mxCell id="LdZz7DW8RSjzyneldxjD-953" value="&lt;font style=&quot;font-size: 18px;&quot;&gt;H&lt;/font&gt;" style="text;html=1;align=center;verticalAlign=middle;resizable=0;points=[];autosize=1;strokeColor=none;fillColor=none;" vertex="1" parent="LdZz7DW8RSjzyneldxjD-946">
          <mxGeometry x="-5" y="273" width="40" height="40" as="geometry" />
        </mxCell>
        <mxCell id="LdZz7DW8RSjzyneldxjD-954" value="&lt;font style=&quot;font-size: 18px;&quot;&gt;I&lt;/font&gt;" style="text;html=1;align=center;verticalAlign=middle;resizable=0;points=[];autosize=1;strokeColor=none;fillColor=none;" vertex="1" parent="LdZz7DW8RSjzyneldxjD-946">
          <mxGeometry y="315" width="30" height="40" as="geometry" />
        </mxCell>
        <mxCell id="LdZz7DW8RSjzyneldxjD-955" value="&lt;font style=&quot;font-size: 18px;&quot;&gt;J&lt;/font&gt;" style="text;html=1;align=center;verticalAlign=middle;resizable=0;points=[];autosize=1;strokeColor=none;fillColor=none;" vertex="1" parent="LdZz7DW8RSjzyneldxjD-946">
          <mxGeometry y="353" width="30" height="40" as="geometry" />
        </mxCell>
        <mxCell id="LdZz7DW8RSjzyneldxjD-956" value="&lt;font style=&quot;font-size: 18px;&quot;&gt;K&lt;/font&gt;" style="text;html=1;align=center;verticalAlign=middle;resizable=0;points=[];autosize=1;strokeColor=none;fillColor=none;" vertex="1" parent="LdZz7DW8RSjzyneldxjD-946">
          <mxGeometry x="-5" y="393" width="40" height="40" as="geometry" />
        </mxCell>
        <mxCell id="LdZz7DW8RSjzyneldxjD-957" value="&lt;font style=&quot;font-size: 18px;&quot;&gt;L&lt;/font&gt;" style="text;html=1;align=center;verticalAlign=middle;resizable=0;points=[];autosize=1;strokeColor=none;fillColor=none;" vertex="1" parent="LdZz7DW8RSjzyneldxjD-946">
          <mxGeometry y="435" width="30" height="40" as="geometry" />
        </mxCell>
        <mxCell id="LdZz7DW8RSjzyneldxjD-958" value="&lt;font style=&quot;font-size: 18px;&quot;&gt;M&lt;/font&gt;" style="text;html=1;align=center;verticalAlign=middle;resizable=0;points=[];autosize=1;strokeColor=none;fillColor=none;" vertex="1" parent="LdZz7DW8RSjzyneldxjD-946">
          <mxGeometry x="-5" y="473" width="40" height="40" as="geometry" />
        </mxCell>
        <mxCell id="LdZz7DW8RSjzyneldxjD-959" value="&lt;font style=&quot;font-size: 18px;&quot;&gt;B&lt;/font&gt;" style="text;html=1;align=center;verticalAlign=middle;resizable=0;points=[];autosize=1;strokeColor=none;fillColor=none;" vertex="1" parent="LdZz7DW8RSjzyneldxjD-946">
          <mxGeometry x="-5" y="33" width="40" height="40" as="geometry" />
        </mxCell>
        <mxCell id="LdZz7DW8RSjzyneldxjD-960" value="" style="shape=waypoint;sketch=0;size=6;pointerEvents=1;points=[];fillColor=none;resizable=0;rotatable=0;perimeter=centerPerimeter;snapToPoint=1;" vertex="1" parent="LdZz7DW8RSjzyneldxjD-945">
          <mxGeometry x="30" width="20" height="20" as="geometry" />
        </mxCell>
        <mxCell id="LdZz7DW8RSjzyneldxjD-961" value="" style="shape=waypoint;sketch=0;size=6;pointerEvents=1;points=[];fillColor=none;resizable=0;rotatable=0;perimeter=centerPerimeter;snapToPoint=1;" vertex="1" parent="LdZz7DW8RSjzyneldxjD-945">
          <mxGeometry x="30" y="40" width="20" height="20" as="geometry" />
        </mxCell>
        <mxCell id="LdZz7DW8RSjzyneldxjD-962" value="" style="shape=waypoint;sketch=0;size=6;pointerEvents=1;points=[];fillColor=none;resizable=0;rotatable=0;perimeter=centerPerimeter;snapToPoint=1;" vertex="1" parent="LdZz7DW8RSjzyneldxjD-945">
          <mxGeometry x="30" y="80" width="20" height="20" as="geometry" />
        </mxCell>
        <mxCell id="LdZz7DW8RSjzyneldxjD-963" value="" style="shape=waypoint;sketch=0;size=6;pointerEvents=1;points=[];fillColor=none;resizable=0;rotatable=0;perimeter=centerPerimeter;snapToPoint=1;" vertex="1" parent="LdZz7DW8RSjzyneldxjD-945">
          <mxGeometry x="30" y="120" width="20" height="20" as="geometry" />
        </mxCell>
        <mxCell id="LdZz7DW8RSjzyneldxjD-964" value="" style="shape=waypoint;sketch=0;size=6;pointerEvents=1;points=[];fillColor=none;resizable=0;rotatable=0;perimeter=centerPerimeter;snapToPoint=1;" vertex="1" parent="LdZz7DW8RSjzyneldxjD-945">
          <mxGeometry x="30" y="160" width="20" height="20" as="geometry" />
        </mxCell>
        <mxCell id="LdZz7DW8RSjzyneldxjD-965" value="" style="shape=waypoint;sketch=0;size=6;pointerEvents=1;points=[];fillColor=none;resizable=0;rotatable=0;perimeter=centerPerimeter;snapToPoint=1;" vertex="1" parent="LdZz7DW8RSjzyneldxjD-945">
          <mxGeometry x="30" y="200" width="20" height="20" as="geometry" />
        </mxCell>
        <mxCell id="LdZz7DW8RSjzyneldxjD-966" value="" style="shape=waypoint;sketch=0;size=6;pointerEvents=1;points=[];fillColor=none;resizable=0;rotatable=0;perimeter=centerPerimeter;snapToPoint=1;" vertex="1" parent="LdZz7DW8RSjzyneldxjD-945">
          <mxGeometry x="30" y="240" width="20" height="20" as="geometry" />
        </mxCell>
        <mxCell id="LdZz7DW8RSjzyneldxjD-967" value="" style="shape=waypoint;sketch=0;size=6;pointerEvents=1;points=[];fillColor=none;resizable=0;rotatable=0;perimeter=centerPerimeter;snapToPoint=1;" vertex="1" parent="LdZz7DW8RSjzyneldxjD-945">
          <mxGeometry x="30" y="280" width="20" height="20" as="geometry" />
        </mxCell>
        <mxCell id="LdZz7DW8RSjzyneldxjD-968" value="" style="shape=waypoint;sketch=0;size=6;pointerEvents=1;points=[];fillColor=none;resizable=0;rotatable=0;perimeter=centerPerimeter;snapToPoint=1;" vertex="1" parent="LdZz7DW8RSjzyneldxjD-945">
          <mxGeometry x="30" y="320" width="20" height="20" as="geometry" />
        </mxCell>
        <mxCell id="LdZz7DW8RSjzyneldxjD-969" value="" style="shape=waypoint;sketch=0;size=6;pointerEvents=1;points=[];fillColor=none;resizable=0;rotatable=0;perimeter=centerPerimeter;snapToPoint=1;" vertex="1" parent="LdZz7DW8RSjzyneldxjD-945">
          <mxGeometry x="30" y="360" width="20" height="20" as="geometry" />
        </mxCell>
        <mxCell id="LdZz7DW8RSjzyneldxjD-970" value="" style="shape=waypoint;sketch=0;size=6;pointerEvents=1;points=[];fillColor=none;resizable=0;rotatable=0;perimeter=centerPerimeter;snapToPoint=1;" vertex="1" parent="LdZz7DW8RSjzyneldxjD-945">
          <mxGeometry x="30" y="400" width="20" height="20" as="geometry" />
        </mxCell>
        <mxCell id="LdZz7DW8RSjzyneldxjD-971" value="" style="shape=waypoint;sketch=0;size=6;pointerEvents=1;points=[];fillColor=none;resizable=0;rotatable=0;perimeter=centerPerimeter;snapToPoint=1;" vertex="1" parent="LdZz7DW8RSjzyneldxjD-945">
          <mxGeometry x="30" y="440" width="20" height="20" as="geometry" />
        </mxCell>
        <mxCell id="LdZz7DW8RSjzyneldxjD-972" value="" style="shape=waypoint;sketch=0;size=6;pointerEvents=1;points=[];fillColor=none;resizable=0;rotatable=0;perimeter=centerPerimeter;snapToPoint=1;align=center;verticalAlign=top;fontFamily=Helvetica;fontSize=12;fontColor=default;" vertex="1" parent="LdZz7DW8RSjzyneldxjD-945">
          <mxGeometry x="30" y="480" width="20" height="20" as="geometry" />
        </mxCell>
        <mxCell id="LdZz7DW8RSjzyneldxjD-973" value="" style="group" vertex="1" connectable="0" parent="LdZz7DW8RSjzyneldxjD-944">
          <mxGeometry x="140" width="55" height="513" as="geometry" />
        </mxCell>
        <mxCell id="LdZz7DW8RSjzyneldxjD-974" value="" style="group;movable=1;resizable=1;rotatable=1;deletable=1;editable=1;locked=0;connectable=1;" vertex="1" connectable="0" parent="LdZz7DW8RSjzyneldxjD-973">
          <mxGeometry x="20" width="35" height="513" as="geometry" />
        </mxCell>
        <mxCell id="LdZz7DW8RSjzyneldxjD-975" value="&lt;font size=&quot;3&quot;&gt;A&lt;/font&gt;" style="text;html=1;align=center;verticalAlign=middle;resizable=0;points=[];autosize=1;strokeColor=none;fillColor=none;rotation=0;" vertex="1" parent="LdZz7DW8RSjzyneldxjD-974">
          <mxGeometry width="30" height="30" as="geometry" />
        </mxCell>
        <mxCell id="LdZz7DW8RSjzyneldxjD-976" value="&lt;font style=&quot;font-size: 18px;&quot;&gt;C&lt;/font&gt;" style="text;html=1;align=center;verticalAlign=middle;resizable=0;points=[];autosize=1;strokeColor=none;fillColor=none;" vertex="1" parent="LdZz7DW8RSjzyneldxjD-974">
          <mxGeometry x="-5" y="75" width="40" height="40" as="geometry" />
        </mxCell>
        <mxCell id="LdZz7DW8RSjzyneldxjD-977" value="&lt;font style=&quot;font-size: 18px;&quot;&gt;D&lt;/font&gt;" style="text;html=1;align=center;verticalAlign=middle;resizable=0;points=[];autosize=1;strokeColor=none;fillColor=none;movable=0;rotatable=0;deletable=0;editable=0;locked=1;connectable=0;" vertex="1" parent="LdZz7DW8RSjzyneldxjD-974">
          <mxGeometry x="-5" y="115" width="40" height="40" as="geometry" />
        </mxCell>
        <mxCell id="LdZz7DW8RSjzyneldxjD-978" value="&lt;font style=&quot;font-size: 18px;&quot;&gt;E&lt;/font&gt;" style="text;html=1;align=center;verticalAlign=middle;resizable=0;points=[];autosize=1;strokeColor=none;fillColor=none;" vertex="1" parent="LdZz7DW8RSjzyneldxjD-974">
          <mxGeometry x="-5" y="153" width="40" height="40" as="geometry" />
        </mxCell>
        <mxCell id="LdZz7DW8RSjzyneldxjD-979" value="&lt;font style=&quot;font-size: 18px;&quot;&gt;F&lt;/font&gt;" style="text;html=1;align=center;verticalAlign=middle;resizable=0;points=[];autosize=1;strokeColor=none;fillColor=none;" vertex="1" parent="LdZz7DW8RSjzyneldxjD-974">
          <mxGeometry y="193" width="30" height="40" as="geometry" />
        </mxCell>
        <mxCell id="LdZz7DW8RSjzyneldxjD-980" value="&lt;font style=&quot;font-size: 18px;&quot;&gt;G&lt;/font&gt;" style="text;html=1;align=center;verticalAlign=middle;resizable=0;points=[];autosize=1;strokeColor=none;fillColor=none;" vertex="1" parent="LdZz7DW8RSjzyneldxjD-974">
          <mxGeometry x="-5" y="233" width="40" height="40" as="geometry" />
        </mxCell>
        <mxCell id="LdZz7DW8RSjzyneldxjD-981" value="&lt;font style=&quot;font-size: 18px;&quot;&gt;H&lt;/font&gt;" style="text;html=1;align=center;verticalAlign=middle;resizable=0;points=[];autosize=1;strokeColor=none;fillColor=none;" vertex="1" parent="LdZz7DW8RSjzyneldxjD-974">
          <mxGeometry x="-5" y="273" width="40" height="40" as="geometry" />
        </mxCell>
        <mxCell id="LdZz7DW8RSjzyneldxjD-982" value="&lt;font style=&quot;font-size: 18px;&quot;&gt;I&lt;/font&gt;" style="text;html=1;align=center;verticalAlign=middle;resizable=0;points=[];autosize=1;strokeColor=none;fillColor=none;" vertex="1" parent="LdZz7DW8RSjzyneldxjD-974">
          <mxGeometry y="315" width="30" height="40" as="geometry" />
        </mxCell>
        <mxCell id="LdZz7DW8RSjzyneldxjD-983" value="&lt;font style=&quot;font-size: 18px;&quot;&gt;J&lt;/font&gt;" style="text;html=1;align=center;verticalAlign=middle;resizable=0;points=[];autosize=1;strokeColor=none;fillColor=none;" vertex="1" parent="LdZz7DW8RSjzyneldxjD-974">
          <mxGeometry y="353" width="30" height="40" as="geometry" />
        </mxCell>
        <mxCell id="LdZz7DW8RSjzyneldxjD-984" value="&lt;font style=&quot;font-size: 18px;&quot;&gt;K&lt;/font&gt;" style="text;html=1;align=center;verticalAlign=middle;resizable=0;points=[];autosize=1;strokeColor=none;fillColor=none;" vertex="1" parent="LdZz7DW8RSjzyneldxjD-974">
          <mxGeometry x="-5" y="393" width="40" height="40" as="geometry" />
        </mxCell>
        <mxCell id="LdZz7DW8RSjzyneldxjD-985" value="&lt;font style=&quot;font-size: 18px;&quot;&gt;L&lt;/font&gt;" style="text;html=1;align=center;verticalAlign=middle;resizable=0;points=[];autosize=1;strokeColor=none;fillColor=none;" vertex="1" parent="LdZz7DW8RSjzyneldxjD-974">
          <mxGeometry y="435" width="30" height="40" as="geometry" />
        </mxCell>
        <mxCell id="LdZz7DW8RSjzyneldxjD-986" value="&lt;font style=&quot;font-size: 18px;&quot;&gt;M&lt;/font&gt;" style="text;html=1;align=center;verticalAlign=middle;resizable=0;points=[];autosize=1;strokeColor=none;fillColor=none;" vertex="1" parent="LdZz7DW8RSjzyneldxjD-974">
          <mxGeometry x="-5" y="473" width="40" height="40" as="geometry" />
        </mxCell>
        <mxCell id="LdZz7DW8RSjzyneldxjD-987" value="&lt;font style=&quot;font-size: 18px;&quot;&gt;B&lt;/font&gt;" style="text;html=1;align=center;verticalAlign=middle;resizable=0;points=[];autosize=1;strokeColor=none;fillColor=none;" vertex="1" parent="LdZz7DW8RSjzyneldxjD-974">
          <mxGeometry x="-5" y="33" width="40" height="40" as="geometry" />
        </mxCell>
        <mxCell id="LdZz7DW8RSjzyneldxjD-988" value="" style="ellipse;whiteSpace=wrap;html=1;pointerEvents=0;align=center;verticalAlign=top;fontFamily=Helvetica;fontSize=12;fontColor=default;fillColor=none;gradientColor=none;" vertex="1" parent="LdZz7DW8RSjzyneldxjD-973">
          <mxGeometry y="5" width="10" height="10" as="geometry" />
        </mxCell>
        <mxCell id="LdZz7DW8RSjzyneldxjD-989" value="" style="ellipse;whiteSpace=wrap;html=1;pointerEvents=0;align=center;verticalAlign=top;fontFamily=Helvetica;fontSize=12;fontColor=default;fillColor=none;gradientColor=none;" vertex="1" parent="LdZz7DW8RSjzyneldxjD-973">
          <mxGeometry y="205" width="10" height="10" as="geometry" />
        </mxCell>
        <mxCell id="LdZz7DW8RSjzyneldxjD-990" value="" style="ellipse;whiteSpace=wrap;html=1;pointerEvents=0;align=center;verticalAlign=top;fontFamily=Helvetica;fontSize=12;fontColor=default;fillColor=none;gradientColor=none;" vertex="1" parent="LdZz7DW8RSjzyneldxjD-973">
          <mxGeometry y="245" width="10" height="10" as="geometry" />
        </mxCell>
        <mxCell id="LdZz7DW8RSjzyneldxjD-991" value="" style="ellipse;whiteSpace=wrap;html=1;pointerEvents=0;align=center;verticalAlign=top;fontFamily=Helvetica;fontSize=12;fontColor=default;fillColor=none;gradientColor=none;" vertex="1" parent="LdZz7DW8RSjzyneldxjD-973">
          <mxGeometry y="325" width="10" height="10" as="geometry" />
        </mxCell>
        <mxCell id="LdZz7DW8RSjzyneldxjD-992" value="" style="ellipse;whiteSpace=wrap;html=1;pointerEvents=0;align=center;verticalAlign=top;fontFamily=Helvetica;fontSize=12;fontColor=default;fillColor=none;gradientColor=none;" vertex="1" parent="LdZz7DW8RSjzyneldxjD-973">
          <mxGeometry y="365" width="10" height="10" as="geometry" />
        </mxCell>
        <mxCell id="LdZz7DW8RSjzyneldxjD-993" value="" style="ellipse;whiteSpace=wrap;html=1;pointerEvents=0;align=center;verticalAlign=top;fontFamily=Helvetica;fontSize=12;fontColor=default;fillColor=none;gradientColor=none;" vertex="1" parent="LdZz7DW8RSjzyneldxjD-973">
          <mxGeometry y="405" width="10" height="10" as="geometry" />
        </mxCell>
        <mxCell id="LdZz7DW8RSjzyneldxjD-994" value="" style="ellipse;whiteSpace=wrap;html=1;pointerEvents=0;align=center;verticalAlign=top;fontFamily=Helvetica;fontSize=12;fontColor=default;fillColor=none;gradientColor=none;" vertex="1" parent="LdZz7DW8RSjzyneldxjD-973">
          <mxGeometry y="445" width="10" height="10" as="geometry" />
        </mxCell>
        <mxCell id="LdZz7DW8RSjzyneldxjD-995" value="" style="ellipse;whiteSpace=wrap;html=1;pointerEvents=0;align=center;verticalAlign=top;fontFamily=Helvetica;fontSize=12;fontColor=default;fillColor=none;gradientColor=none;" vertex="1" parent="LdZz7DW8RSjzyneldxjD-973">
          <mxGeometry y="485" width="10" height="10" as="geometry" />
        </mxCell>
        <mxCell id="LdZz7DW8RSjzyneldxjD-996" value="" style="ellipse;whiteSpace=wrap;html=1;pointerEvents=0;align=center;verticalAlign=top;fontFamily=Helvetica;fontSize=12;fontColor=default;fillColor=none;gradientColor=none;" vertex="1" parent="LdZz7DW8RSjzyneldxjD-973">
          <mxGeometry y="285" width="10" height="10" as="geometry" />
        </mxCell>
        <mxCell id="LdZz7DW8RSjzyneldxjD-997" value="" style="ellipse;whiteSpace=wrap;html=1;pointerEvents=0;align=center;verticalAlign=top;fontFamily=Helvetica;fontSize=12;fontColor=default;fillColor=none;gradientColor=none;" vertex="1" parent="LdZz7DW8RSjzyneldxjD-973">
          <mxGeometry y="165" width="10" height="10" as="geometry" />
        </mxCell>
        <mxCell id="LdZz7DW8RSjzyneldxjD-998" value="" style="ellipse;whiteSpace=wrap;html=1;pointerEvents=0;align=center;verticalAlign=top;fontFamily=Helvetica;fontSize=12;fontColor=default;fillColor=none;gradientColor=none;" vertex="1" parent="LdZz7DW8RSjzyneldxjD-973">
          <mxGeometry y="130" width="10" height="10" as="geometry" />
        </mxCell>
        <mxCell id="LdZz7DW8RSjzyneldxjD-999" value="" style="ellipse;whiteSpace=wrap;html=1;pointerEvents=0;align=center;verticalAlign=top;fontFamily=Helvetica;fontSize=12;fontColor=default;fillColor=none;gradientColor=none;" vertex="1" parent="LdZz7DW8RSjzyneldxjD-973">
          <mxGeometry y="85" width="10" height="10" as="geometry" />
        </mxCell>
        <mxCell id="LdZz7DW8RSjzyneldxjD-1000" value="" style="ellipse;whiteSpace=wrap;html=1;pointerEvents=0;align=center;verticalAlign=top;fontFamily=Helvetica;fontSize=12;fontColor=default;fillColor=none;gradientColor=none;" vertex="1" parent="LdZz7DW8RSjzyneldxjD-973">
          <mxGeometry y="45" width="10" height="10" as="geometry" />
        </mxCell>
        <mxCell id="LdZz7DW8RSjzyneldxjD-1001" value="" style="group" vertex="1" connectable="0" parent="LdZz7DW8RSjzyneldxjD-943">
          <mxGeometry x="280" width="195" height="513" as="geometry" />
        </mxCell>
        <mxCell id="LdZz7DW8RSjzyneldxjD-1002" value="" style="group" vertex="1" connectable="0" parent="LdZz7DW8RSjzyneldxjD-1001">
          <mxGeometry width="50" height="513" as="geometry" />
        </mxCell>
        <mxCell id="LdZz7DW8RSjzyneldxjD-1003" value="" style="group;movable=0;resizable=0;rotatable=0;deletable=0;editable=0;locked=1;connectable=0;" vertex="1" connectable="0" parent="LdZz7DW8RSjzyneldxjD-1002">
          <mxGeometry width="35" height="513" as="geometry" />
        </mxCell>
        <mxCell id="LdZz7DW8RSjzyneldxjD-1004" value="&lt;font size=&quot;3&quot;&gt;A&lt;/font&gt;" style="text;html=1;align=center;verticalAlign=middle;resizable=0;points=[];autosize=1;strokeColor=none;fillColor=none;rotation=0;" vertex="1" parent="LdZz7DW8RSjzyneldxjD-1003">
          <mxGeometry width="30" height="30" as="geometry" />
        </mxCell>
        <mxCell id="LdZz7DW8RSjzyneldxjD-1005" value="&lt;font style=&quot;font-size: 18px;&quot;&gt;C&lt;/font&gt;" style="text;html=1;align=center;verticalAlign=middle;resizable=0;points=[];autosize=1;strokeColor=none;fillColor=none;" vertex="1" parent="LdZz7DW8RSjzyneldxjD-1003">
          <mxGeometry x="-5" y="75" width="40" height="40" as="geometry" />
        </mxCell>
        <mxCell id="LdZz7DW8RSjzyneldxjD-1006" value="&lt;font style=&quot;font-size: 18px;&quot;&gt;D&lt;/font&gt;" style="text;html=1;align=center;verticalAlign=middle;resizable=0;points=[];autosize=1;strokeColor=none;fillColor=none;movable=0;rotatable=0;deletable=0;editable=0;locked=1;connectable=0;" vertex="1" parent="LdZz7DW8RSjzyneldxjD-1003">
          <mxGeometry x="-5" y="115" width="40" height="40" as="geometry" />
        </mxCell>
        <mxCell id="LdZz7DW8RSjzyneldxjD-1007" value="&lt;font style=&quot;font-size: 18px;&quot;&gt;E&lt;/font&gt;" style="text;html=1;align=center;verticalAlign=middle;resizable=0;points=[];autosize=1;strokeColor=none;fillColor=none;" vertex="1" parent="LdZz7DW8RSjzyneldxjD-1003">
          <mxGeometry x="-5" y="153" width="40" height="40" as="geometry" />
        </mxCell>
        <mxCell id="LdZz7DW8RSjzyneldxjD-1008" value="&lt;font style=&quot;font-size: 18px;&quot;&gt;F&lt;/font&gt;" style="text;html=1;align=center;verticalAlign=middle;resizable=0;points=[];autosize=1;strokeColor=none;fillColor=none;" vertex="1" parent="LdZz7DW8RSjzyneldxjD-1003">
          <mxGeometry y="193" width="30" height="40" as="geometry" />
        </mxCell>
        <mxCell id="LdZz7DW8RSjzyneldxjD-1009" value="&lt;font style=&quot;font-size: 18px;&quot;&gt;G&lt;/font&gt;" style="text;html=1;align=center;verticalAlign=middle;resizable=0;points=[];autosize=1;strokeColor=none;fillColor=none;" vertex="1" parent="LdZz7DW8RSjzyneldxjD-1003">
          <mxGeometry x="-5" y="233" width="40" height="40" as="geometry" />
        </mxCell>
        <mxCell id="LdZz7DW8RSjzyneldxjD-1010" value="&lt;font style=&quot;font-size: 18px;&quot;&gt;H&lt;/font&gt;" style="text;html=1;align=center;verticalAlign=middle;resizable=0;points=[];autosize=1;strokeColor=none;fillColor=none;" vertex="1" parent="LdZz7DW8RSjzyneldxjD-1003">
          <mxGeometry x="-5" y="273" width="40" height="40" as="geometry" />
        </mxCell>
        <mxCell id="LdZz7DW8RSjzyneldxjD-1011" value="&lt;font style=&quot;font-size: 18px;&quot;&gt;I&lt;/font&gt;" style="text;html=1;align=center;verticalAlign=middle;resizable=0;points=[];autosize=1;strokeColor=none;fillColor=none;" vertex="1" parent="LdZz7DW8RSjzyneldxjD-1003">
          <mxGeometry y="315" width="30" height="40" as="geometry" />
        </mxCell>
        <mxCell id="LdZz7DW8RSjzyneldxjD-1012" value="&lt;font style=&quot;font-size: 18px;&quot;&gt;J&lt;/font&gt;" style="text;html=1;align=center;verticalAlign=middle;resizable=0;points=[];autosize=1;strokeColor=none;fillColor=none;" vertex="1" parent="LdZz7DW8RSjzyneldxjD-1003">
          <mxGeometry y="353" width="30" height="40" as="geometry" />
        </mxCell>
        <mxCell id="LdZz7DW8RSjzyneldxjD-1013" value="&lt;font style=&quot;font-size: 18px;&quot;&gt;K&lt;/font&gt;" style="text;html=1;align=center;verticalAlign=middle;resizable=0;points=[];autosize=1;strokeColor=none;fillColor=none;" vertex="1" parent="LdZz7DW8RSjzyneldxjD-1003">
          <mxGeometry x="-5" y="393" width="40" height="40" as="geometry" />
        </mxCell>
        <mxCell id="LdZz7DW8RSjzyneldxjD-1014" value="&lt;font style=&quot;font-size: 18px;&quot;&gt;L&lt;/font&gt;" style="text;html=1;align=center;verticalAlign=middle;resizable=0;points=[];autosize=1;strokeColor=none;fillColor=none;" vertex="1" parent="LdZz7DW8RSjzyneldxjD-1003">
          <mxGeometry y="435" width="30" height="40" as="geometry" />
        </mxCell>
        <mxCell id="LdZz7DW8RSjzyneldxjD-1015" value="&lt;font style=&quot;font-size: 18px;&quot;&gt;M&lt;/font&gt;" style="text;html=1;align=center;verticalAlign=middle;resizable=0;points=[];autosize=1;strokeColor=none;fillColor=none;" vertex="1" parent="LdZz7DW8RSjzyneldxjD-1003">
          <mxGeometry x="-5" y="473" width="40" height="40" as="geometry" />
        </mxCell>
        <mxCell id="LdZz7DW8RSjzyneldxjD-1016" value="&lt;font style=&quot;font-size: 18px;&quot;&gt;B&lt;/font&gt;" style="text;html=1;align=center;verticalAlign=middle;resizable=0;points=[];autosize=1;strokeColor=none;fillColor=none;" vertex="1" parent="LdZz7DW8RSjzyneldxjD-1003">
          <mxGeometry x="-5" y="33" width="40" height="40" as="geometry" />
        </mxCell>
        <mxCell id="LdZz7DW8RSjzyneldxjD-1017" value="" style="shape=waypoint;sketch=0;size=6;pointerEvents=1;points=[];fillColor=none;resizable=0;rotatable=0;perimeter=centerPerimeter;snapToPoint=1;" vertex="1" parent="LdZz7DW8RSjzyneldxjD-1002">
          <mxGeometry x="30" width="20" height="20" as="geometry" />
        </mxCell>
        <mxCell id="LdZz7DW8RSjzyneldxjD-1018" value="" style="shape=waypoint;sketch=0;size=6;pointerEvents=1;points=[];fillColor=none;resizable=0;rotatable=0;perimeter=centerPerimeter;snapToPoint=1;" vertex="1" parent="LdZz7DW8RSjzyneldxjD-1002">
          <mxGeometry x="30" y="40" width="20" height="20" as="geometry" />
        </mxCell>
        <mxCell id="LdZz7DW8RSjzyneldxjD-1019" value="" style="shape=waypoint;sketch=0;size=6;pointerEvents=1;points=[];fillColor=none;resizable=0;rotatable=0;perimeter=centerPerimeter;snapToPoint=1;" vertex="1" parent="LdZz7DW8RSjzyneldxjD-1002">
          <mxGeometry x="30" y="80" width="20" height="20" as="geometry" />
        </mxCell>
        <mxCell id="LdZz7DW8RSjzyneldxjD-1020" value="" style="shape=waypoint;sketch=0;size=6;pointerEvents=1;points=[];fillColor=none;resizable=0;rotatable=0;perimeter=centerPerimeter;snapToPoint=1;" vertex="1" parent="LdZz7DW8RSjzyneldxjD-1002">
          <mxGeometry x="30" y="120" width="20" height="20" as="geometry" />
        </mxCell>
        <mxCell id="LdZz7DW8RSjzyneldxjD-1021" value="" style="shape=waypoint;sketch=0;size=6;pointerEvents=1;points=[];fillColor=none;resizable=0;rotatable=0;perimeter=centerPerimeter;snapToPoint=1;" vertex="1" parent="LdZz7DW8RSjzyneldxjD-1002">
          <mxGeometry x="30" y="160" width="20" height="20" as="geometry" />
        </mxCell>
        <mxCell id="LdZz7DW8RSjzyneldxjD-1022" value="" style="shape=waypoint;sketch=0;size=6;pointerEvents=1;points=[];fillColor=none;resizable=0;rotatable=0;perimeter=centerPerimeter;snapToPoint=1;" vertex="1" parent="LdZz7DW8RSjzyneldxjD-1002">
          <mxGeometry x="30" y="200" width="20" height="20" as="geometry" />
        </mxCell>
        <mxCell id="LdZz7DW8RSjzyneldxjD-1023" value="" style="shape=waypoint;sketch=0;size=6;pointerEvents=1;points=[];fillColor=none;resizable=0;rotatable=0;perimeter=centerPerimeter;snapToPoint=1;" vertex="1" parent="LdZz7DW8RSjzyneldxjD-1002">
          <mxGeometry x="30" y="240" width="20" height="20" as="geometry" />
        </mxCell>
        <mxCell id="LdZz7DW8RSjzyneldxjD-1024" value="" style="shape=waypoint;sketch=0;size=6;pointerEvents=1;points=[];fillColor=none;resizable=0;rotatable=0;perimeter=centerPerimeter;snapToPoint=1;" vertex="1" parent="LdZz7DW8RSjzyneldxjD-1002">
          <mxGeometry x="30" y="280" width="20" height="20" as="geometry" />
        </mxCell>
        <mxCell id="LdZz7DW8RSjzyneldxjD-1025" value="" style="shape=waypoint;sketch=0;size=6;pointerEvents=1;points=[];fillColor=none;resizable=0;rotatable=0;perimeter=centerPerimeter;snapToPoint=1;" vertex="1" parent="LdZz7DW8RSjzyneldxjD-1002">
          <mxGeometry x="30" y="320" width="20" height="20" as="geometry" />
        </mxCell>
        <mxCell id="LdZz7DW8RSjzyneldxjD-1026" value="" style="shape=waypoint;sketch=0;size=6;pointerEvents=1;points=[];fillColor=none;resizable=0;rotatable=0;perimeter=centerPerimeter;snapToPoint=1;" vertex="1" parent="LdZz7DW8RSjzyneldxjD-1002">
          <mxGeometry x="30" y="360" width="20" height="20" as="geometry" />
        </mxCell>
        <mxCell id="LdZz7DW8RSjzyneldxjD-1027" value="" style="shape=waypoint;sketch=0;size=6;pointerEvents=1;points=[];fillColor=none;resizable=0;rotatable=0;perimeter=centerPerimeter;snapToPoint=1;" vertex="1" parent="LdZz7DW8RSjzyneldxjD-1002">
          <mxGeometry x="30" y="400" width="20" height="20" as="geometry" />
        </mxCell>
        <mxCell id="LdZz7DW8RSjzyneldxjD-1028" value="" style="shape=waypoint;sketch=0;size=6;pointerEvents=1;points=[];fillColor=none;resizable=0;rotatable=0;perimeter=centerPerimeter;snapToPoint=1;" vertex="1" parent="LdZz7DW8RSjzyneldxjD-1002">
          <mxGeometry x="30" y="440" width="20" height="20" as="geometry" />
        </mxCell>
        <mxCell id="LdZz7DW8RSjzyneldxjD-1029" value="" style="shape=waypoint;sketch=0;size=6;pointerEvents=1;points=[];fillColor=none;resizable=0;rotatable=0;perimeter=centerPerimeter;snapToPoint=1;align=center;verticalAlign=top;fontFamily=Helvetica;fontSize=12;fontColor=default;" vertex="1" parent="LdZz7DW8RSjzyneldxjD-1002">
          <mxGeometry x="30" y="480" width="20" height="20" as="geometry" />
        </mxCell>
        <mxCell id="LdZz7DW8RSjzyneldxjD-1030" value="" style="group" vertex="1" connectable="0" parent="LdZz7DW8RSjzyneldxjD-1001">
          <mxGeometry x="140" width="55" height="513" as="geometry" />
        </mxCell>
        <mxCell id="LdZz7DW8RSjzyneldxjD-1031" value="" style="group;movable=1;resizable=1;rotatable=1;deletable=1;editable=1;locked=0;connectable=1;" vertex="1" connectable="0" parent="LdZz7DW8RSjzyneldxjD-1030">
          <mxGeometry x="20" width="35" height="513" as="geometry" />
        </mxCell>
        <mxCell id="LdZz7DW8RSjzyneldxjD-1032" value="&lt;font size=&quot;3&quot;&gt;A&lt;/font&gt;" style="text;html=1;align=center;verticalAlign=middle;resizable=0;points=[];autosize=1;strokeColor=none;fillColor=none;rotation=0;" vertex="1" parent="LdZz7DW8RSjzyneldxjD-1031">
          <mxGeometry width="30" height="30" as="geometry" />
        </mxCell>
        <mxCell id="LdZz7DW8RSjzyneldxjD-1033" value="&lt;font style=&quot;font-size: 18px;&quot;&gt;C&lt;/font&gt;" style="text;html=1;align=center;verticalAlign=middle;resizable=0;points=[];autosize=1;strokeColor=none;fillColor=none;" vertex="1" parent="LdZz7DW8RSjzyneldxjD-1031">
          <mxGeometry x="-5" y="75" width="40" height="40" as="geometry" />
        </mxCell>
        <mxCell id="LdZz7DW8RSjzyneldxjD-1034" value="&lt;font style=&quot;font-size: 18px;&quot;&gt;D&lt;/font&gt;" style="text;html=1;align=center;verticalAlign=middle;resizable=0;points=[];autosize=1;strokeColor=none;fillColor=none;movable=0;rotatable=0;deletable=0;editable=0;locked=1;connectable=0;" vertex="1" parent="LdZz7DW8RSjzyneldxjD-1031">
          <mxGeometry x="-5" y="115" width="40" height="40" as="geometry" />
        </mxCell>
        <mxCell id="LdZz7DW8RSjzyneldxjD-1035" value="&lt;font style=&quot;font-size: 18px;&quot;&gt;E&lt;/font&gt;" style="text;html=1;align=center;verticalAlign=middle;resizable=0;points=[];autosize=1;strokeColor=none;fillColor=none;" vertex="1" parent="LdZz7DW8RSjzyneldxjD-1031">
          <mxGeometry x="-5" y="153" width="40" height="40" as="geometry" />
        </mxCell>
        <mxCell id="LdZz7DW8RSjzyneldxjD-1036" value="&lt;font style=&quot;font-size: 18px;&quot;&gt;F&lt;/font&gt;" style="text;html=1;align=center;verticalAlign=middle;resizable=0;points=[];autosize=1;strokeColor=none;fillColor=none;" vertex="1" parent="LdZz7DW8RSjzyneldxjD-1031">
          <mxGeometry y="193" width="30" height="40" as="geometry" />
        </mxCell>
        <mxCell id="LdZz7DW8RSjzyneldxjD-1037" value="&lt;font style=&quot;font-size: 18px;&quot;&gt;G&lt;/font&gt;" style="text;html=1;align=center;verticalAlign=middle;resizable=0;points=[];autosize=1;strokeColor=none;fillColor=none;" vertex="1" parent="LdZz7DW8RSjzyneldxjD-1031">
          <mxGeometry x="-5" y="233" width="40" height="40" as="geometry" />
        </mxCell>
        <mxCell id="LdZz7DW8RSjzyneldxjD-1038" value="&lt;font style=&quot;font-size: 18px;&quot;&gt;H&lt;/font&gt;" style="text;html=1;align=center;verticalAlign=middle;resizable=0;points=[];autosize=1;strokeColor=none;fillColor=none;" vertex="1" parent="LdZz7DW8RSjzyneldxjD-1031">
          <mxGeometry x="-5" y="273" width="40" height="40" as="geometry" />
        </mxCell>
        <mxCell id="LdZz7DW8RSjzyneldxjD-1039" value="&lt;font style=&quot;font-size: 18px;&quot;&gt;I&lt;/font&gt;" style="text;html=1;align=center;verticalAlign=middle;resizable=0;points=[];autosize=1;strokeColor=none;fillColor=none;" vertex="1" parent="LdZz7DW8RSjzyneldxjD-1031">
          <mxGeometry y="315" width="30" height="40" as="geometry" />
        </mxCell>
        <mxCell id="LdZz7DW8RSjzyneldxjD-1040" value="&lt;font style=&quot;font-size: 18px;&quot;&gt;J&lt;/font&gt;" style="text;html=1;align=center;verticalAlign=middle;resizable=0;points=[];autosize=1;strokeColor=none;fillColor=none;" vertex="1" parent="LdZz7DW8RSjzyneldxjD-1031">
          <mxGeometry y="353" width="30" height="40" as="geometry" />
        </mxCell>
        <mxCell id="LdZz7DW8RSjzyneldxjD-1041" value="&lt;font style=&quot;font-size: 18px;&quot;&gt;K&lt;/font&gt;" style="text;html=1;align=center;verticalAlign=middle;resizable=0;points=[];autosize=1;strokeColor=none;fillColor=none;" vertex="1" parent="LdZz7DW8RSjzyneldxjD-1031">
          <mxGeometry x="-5" y="393" width="40" height="40" as="geometry" />
        </mxCell>
        <mxCell id="LdZz7DW8RSjzyneldxjD-1042" value="&lt;font style=&quot;font-size: 18px;&quot;&gt;L&lt;/font&gt;" style="text;html=1;align=center;verticalAlign=middle;resizable=0;points=[];autosize=1;strokeColor=none;fillColor=none;" vertex="1" parent="LdZz7DW8RSjzyneldxjD-1031">
          <mxGeometry y="435" width="30" height="40" as="geometry" />
        </mxCell>
        <mxCell id="LdZz7DW8RSjzyneldxjD-1043" value="&lt;font style=&quot;font-size: 18px;&quot;&gt;M&lt;/font&gt;" style="text;html=1;align=center;verticalAlign=middle;resizable=0;points=[];autosize=1;strokeColor=none;fillColor=none;" vertex="1" parent="LdZz7DW8RSjzyneldxjD-1031">
          <mxGeometry x="-5" y="473" width="40" height="40" as="geometry" />
        </mxCell>
        <mxCell id="LdZz7DW8RSjzyneldxjD-1044" value="&lt;font style=&quot;font-size: 18px;&quot;&gt;B&lt;/font&gt;" style="text;html=1;align=center;verticalAlign=middle;resizable=0;points=[];autosize=1;strokeColor=none;fillColor=none;" vertex="1" parent="LdZz7DW8RSjzyneldxjD-1031">
          <mxGeometry x="-5" y="33" width="40" height="40" as="geometry" />
        </mxCell>
        <mxCell id="LdZz7DW8RSjzyneldxjD-1045" value="" style="ellipse;whiteSpace=wrap;html=1;pointerEvents=0;align=center;verticalAlign=top;fontFamily=Helvetica;fontSize=12;fontColor=default;fillColor=none;gradientColor=none;" vertex="1" parent="LdZz7DW8RSjzyneldxjD-1030">
          <mxGeometry y="5" width="10" height="10" as="geometry" />
        </mxCell>
        <mxCell id="LdZz7DW8RSjzyneldxjD-1046" value="" style="ellipse;whiteSpace=wrap;html=1;pointerEvents=0;align=center;verticalAlign=top;fontFamily=Helvetica;fontSize=12;fontColor=default;fillColor=none;gradientColor=none;" vertex="1" parent="LdZz7DW8RSjzyneldxjD-1030">
          <mxGeometry y="205" width="10" height="10" as="geometry" />
        </mxCell>
        <mxCell id="LdZz7DW8RSjzyneldxjD-1047" value="" style="ellipse;whiteSpace=wrap;html=1;pointerEvents=0;align=center;verticalAlign=top;fontFamily=Helvetica;fontSize=12;fontColor=default;fillColor=none;gradientColor=none;" vertex="1" parent="LdZz7DW8RSjzyneldxjD-1030">
          <mxGeometry y="245" width="10" height="10" as="geometry" />
        </mxCell>
        <mxCell id="LdZz7DW8RSjzyneldxjD-1048" value="" style="ellipse;whiteSpace=wrap;html=1;pointerEvents=0;align=center;verticalAlign=top;fontFamily=Helvetica;fontSize=12;fontColor=default;fillColor=none;gradientColor=none;" vertex="1" parent="LdZz7DW8RSjzyneldxjD-1030">
          <mxGeometry y="325" width="10" height="10" as="geometry" />
        </mxCell>
        <mxCell id="LdZz7DW8RSjzyneldxjD-1049" value="" style="ellipse;whiteSpace=wrap;html=1;pointerEvents=0;align=center;verticalAlign=top;fontFamily=Helvetica;fontSize=12;fontColor=default;fillColor=none;gradientColor=none;" vertex="1" parent="LdZz7DW8RSjzyneldxjD-1030">
          <mxGeometry y="365" width="10" height="10" as="geometry" />
        </mxCell>
        <mxCell id="LdZz7DW8RSjzyneldxjD-1050" value="" style="ellipse;whiteSpace=wrap;html=1;pointerEvents=0;align=center;verticalAlign=top;fontFamily=Helvetica;fontSize=12;fontColor=default;fillColor=none;gradientColor=none;" vertex="1" parent="LdZz7DW8RSjzyneldxjD-1030">
          <mxGeometry y="405" width="10" height="10" as="geometry" />
        </mxCell>
        <mxCell id="LdZz7DW8RSjzyneldxjD-1051" value="" style="ellipse;whiteSpace=wrap;html=1;pointerEvents=0;align=center;verticalAlign=top;fontFamily=Helvetica;fontSize=12;fontColor=default;fillColor=none;gradientColor=none;" vertex="1" parent="LdZz7DW8RSjzyneldxjD-1030">
          <mxGeometry y="445" width="10" height="10" as="geometry" />
        </mxCell>
        <mxCell id="LdZz7DW8RSjzyneldxjD-1052" value="" style="ellipse;whiteSpace=wrap;html=1;pointerEvents=0;align=center;verticalAlign=top;fontFamily=Helvetica;fontSize=12;fontColor=default;fillColor=none;gradientColor=none;" vertex="1" parent="LdZz7DW8RSjzyneldxjD-1030">
          <mxGeometry y="485" width="10" height="10" as="geometry" />
        </mxCell>
        <mxCell id="LdZz7DW8RSjzyneldxjD-1053" value="" style="ellipse;whiteSpace=wrap;html=1;pointerEvents=0;align=center;verticalAlign=top;fontFamily=Helvetica;fontSize=12;fontColor=default;fillColor=none;gradientColor=none;" vertex="1" parent="LdZz7DW8RSjzyneldxjD-1030">
          <mxGeometry y="285" width="10" height="10" as="geometry" />
        </mxCell>
        <mxCell id="LdZz7DW8RSjzyneldxjD-1054" value="" style="ellipse;whiteSpace=wrap;html=1;pointerEvents=0;align=center;verticalAlign=top;fontFamily=Helvetica;fontSize=12;fontColor=default;fillColor=none;gradientColor=none;" vertex="1" parent="LdZz7DW8RSjzyneldxjD-1030">
          <mxGeometry y="165" width="10" height="10" as="geometry" />
        </mxCell>
        <mxCell id="LdZz7DW8RSjzyneldxjD-1055" value="" style="ellipse;whiteSpace=wrap;html=1;pointerEvents=0;align=center;verticalAlign=top;fontFamily=Helvetica;fontSize=12;fontColor=default;fillColor=none;gradientColor=none;" vertex="1" parent="LdZz7DW8RSjzyneldxjD-1030">
          <mxGeometry y="130" width="10" height="10" as="geometry" />
        </mxCell>
        <mxCell id="LdZz7DW8RSjzyneldxjD-1056" value="" style="ellipse;whiteSpace=wrap;html=1;pointerEvents=0;align=center;verticalAlign=top;fontFamily=Helvetica;fontSize=12;fontColor=default;fillColor=none;gradientColor=none;" vertex="1" parent="LdZz7DW8RSjzyneldxjD-1030">
          <mxGeometry y="85" width="10" height="10" as="geometry" />
        </mxCell>
        <mxCell id="LdZz7DW8RSjzyneldxjD-1057" value="" style="ellipse;whiteSpace=wrap;html=1;pointerEvents=0;align=center;verticalAlign=top;fontFamily=Helvetica;fontSize=12;fontColor=default;fillColor=none;gradientColor=none;" vertex="1" parent="LdZz7DW8RSjzyneldxjD-1030">
          <mxGeometry y="45" width="10" height="10" as="geometry" />
        </mxCell>
        <mxCell id="LdZz7DW8RSjzyneldxjD-1058" value="" style="group" vertex="1" connectable="0" parent="LdZz7DW8RSjzyneldxjD-943">
          <mxGeometry x="500" width="195" height="513" as="geometry" />
        </mxCell>
        <mxCell id="LdZz7DW8RSjzyneldxjD-1059" value="" style="group" vertex="1" connectable="0" parent="LdZz7DW8RSjzyneldxjD-1058">
          <mxGeometry width="50" height="513" as="geometry" />
        </mxCell>
        <mxCell id="LdZz7DW8RSjzyneldxjD-1060" value="" style="group;movable=0;resizable=0;rotatable=0;deletable=0;editable=0;locked=1;connectable=0;" vertex="1" connectable="0" parent="LdZz7DW8RSjzyneldxjD-1059">
          <mxGeometry width="35" height="513" as="geometry" />
        </mxCell>
        <mxCell id="LdZz7DW8RSjzyneldxjD-1061" value="&lt;font size=&quot;3&quot;&gt;A&lt;/font&gt;" style="text;html=1;align=center;verticalAlign=middle;resizable=0;points=[];autosize=1;strokeColor=none;fillColor=none;rotation=0;" vertex="1" parent="LdZz7DW8RSjzyneldxjD-1060">
          <mxGeometry width="30" height="30" as="geometry" />
        </mxCell>
        <mxCell id="LdZz7DW8RSjzyneldxjD-1062" value="&lt;font style=&quot;font-size: 18px;&quot;&gt;C&lt;/font&gt;" style="text;html=1;align=center;verticalAlign=middle;resizable=0;points=[];autosize=1;strokeColor=none;fillColor=none;" vertex="1" parent="LdZz7DW8RSjzyneldxjD-1060">
          <mxGeometry x="-5" y="75" width="40" height="40" as="geometry" />
        </mxCell>
        <mxCell id="LdZz7DW8RSjzyneldxjD-1063" value="&lt;font style=&quot;font-size: 18px;&quot;&gt;D&lt;/font&gt;" style="text;html=1;align=center;verticalAlign=middle;resizable=0;points=[];autosize=1;strokeColor=none;fillColor=none;movable=0;rotatable=0;deletable=0;editable=0;locked=1;connectable=0;" vertex="1" parent="LdZz7DW8RSjzyneldxjD-1060">
          <mxGeometry x="-5" y="115" width="40" height="40" as="geometry" />
        </mxCell>
        <mxCell id="LdZz7DW8RSjzyneldxjD-1064" value="&lt;font style=&quot;font-size: 18px;&quot;&gt;E&lt;/font&gt;" style="text;html=1;align=center;verticalAlign=middle;resizable=0;points=[];autosize=1;strokeColor=none;fillColor=none;" vertex="1" parent="LdZz7DW8RSjzyneldxjD-1060">
          <mxGeometry x="-5" y="153" width="40" height="40" as="geometry" />
        </mxCell>
        <mxCell id="LdZz7DW8RSjzyneldxjD-1065" value="&lt;font style=&quot;font-size: 18px;&quot;&gt;F&lt;/font&gt;" style="text;html=1;align=center;verticalAlign=middle;resizable=0;points=[];autosize=1;strokeColor=none;fillColor=none;" vertex="1" parent="LdZz7DW8RSjzyneldxjD-1060">
          <mxGeometry y="193" width="30" height="40" as="geometry" />
        </mxCell>
        <mxCell id="LdZz7DW8RSjzyneldxjD-1066" value="&lt;font style=&quot;font-size: 18px;&quot;&gt;G&lt;/font&gt;" style="text;html=1;align=center;verticalAlign=middle;resizable=0;points=[];autosize=1;strokeColor=none;fillColor=none;" vertex="1" parent="LdZz7DW8RSjzyneldxjD-1060">
          <mxGeometry x="-5" y="233" width="40" height="40" as="geometry" />
        </mxCell>
        <mxCell id="LdZz7DW8RSjzyneldxjD-1067" value="&lt;font style=&quot;font-size: 18px;&quot;&gt;H&lt;/font&gt;" style="text;html=1;align=center;verticalAlign=middle;resizable=0;points=[];autosize=1;strokeColor=none;fillColor=none;" vertex="1" parent="LdZz7DW8RSjzyneldxjD-1060">
          <mxGeometry x="-5" y="273" width="40" height="40" as="geometry" />
        </mxCell>
        <mxCell id="LdZz7DW8RSjzyneldxjD-1068" value="&lt;font style=&quot;font-size: 18px;&quot;&gt;I&lt;/font&gt;" style="text;html=1;align=center;verticalAlign=middle;resizable=0;points=[];autosize=1;strokeColor=none;fillColor=none;" vertex="1" parent="LdZz7DW8RSjzyneldxjD-1060">
          <mxGeometry y="315" width="30" height="40" as="geometry" />
        </mxCell>
        <mxCell id="LdZz7DW8RSjzyneldxjD-1069" value="&lt;font style=&quot;font-size: 18px;&quot;&gt;J&lt;/font&gt;" style="text;html=1;align=center;verticalAlign=middle;resizable=0;points=[];autosize=1;strokeColor=none;fillColor=none;" vertex="1" parent="LdZz7DW8RSjzyneldxjD-1060">
          <mxGeometry y="353" width="30" height="40" as="geometry" />
        </mxCell>
        <mxCell id="LdZz7DW8RSjzyneldxjD-1070" value="&lt;font style=&quot;font-size: 18px;&quot;&gt;K&lt;/font&gt;" style="text;html=1;align=center;verticalAlign=middle;resizable=0;points=[];autosize=1;strokeColor=none;fillColor=none;" vertex="1" parent="LdZz7DW8RSjzyneldxjD-1060">
          <mxGeometry x="-5" y="393" width="40" height="40" as="geometry" />
        </mxCell>
        <mxCell id="LdZz7DW8RSjzyneldxjD-1071" value="&lt;font style=&quot;font-size: 18px;&quot;&gt;L&lt;/font&gt;" style="text;html=1;align=center;verticalAlign=middle;resizable=0;points=[];autosize=1;strokeColor=none;fillColor=none;" vertex="1" parent="LdZz7DW8RSjzyneldxjD-1060">
          <mxGeometry y="435" width="30" height="40" as="geometry" />
        </mxCell>
        <mxCell id="LdZz7DW8RSjzyneldxjD-1072" value="&lt;font style=&quot;font-size: 18px;&quot;&gt;M&lt;/font&gt;" style="text;html=1;align=center;verticalAlign=middle;resizable=0;points=[];autosize=1;strokeColor=none;fillColor=none;" vertex="1" parent="LdZz7DW8RSjzyneldxjD-1060">
          <mxGeometry x="-5" y="473" width="40" height="40" as="geometry" />
        </mxCell>
        <mxCell id="LdZz7DW8RSjzyneldxjD-1073" value="&lt;font style=&quot;font-size: 18px;&quot;&gt;B&lt;/font&gt;" style="text;html=1;align=center;verticalAlign=middle;resizable=0;points=[];autosize=1;strokeColor=none;fillColor=none;" vertex="1" parent="LdZz7DW8RSjzyneldxjD-1060">
          <mxGeometry x="-5" y="33" width="40" height="40" as="geometry" />
        </mxCell>
        <mxCell id="LdZz7DW8RSjzyneldxjD-1074" value="" style="shape=waypoint;sketch=0;size=6;pointerEvents=1;points=[];fillColor=none;resizable=0;rotatable=0;perimeter=centerPerimeter;snapToPoint=1;" vertex="1" parent="LdZz7DW8RSjzyneldxjD-1059">
          <mxGeometry x="30" width="20" height="20" as="geometry" />
        </mxCell>
        <mxCell id="LdZz7DW8RSjzyneldxjD-1075" value="" style="shape=waypoint;sketch=0;size=6;pointerEvents=1;points=[];fillColor=none;resizable=0;rotatable=0;perimeter=centerPerimeter;snapToPoint=1;" vertex="1" parent="LdZz7DW8RSjzyneldxjD-1059">
          <mxGeometry x="30" y="40" width="20" height="20" as="geometry" />
        </mxCell>
        <mxCell id="LdZz7DW8RSjzyneldxjD-1076" value="" style="shape=waypoint;sketch=0;size=6;pointerEvents=1;points=[];fillColor=none;resizable=0;rotatable=0;perimeter=centerPerimeter;snapToPoint=1;" vertex="1" parent="LdZz7DW8RSjzyneldxjD-1059">
          <mxGeometry x="30" y="80" width="20" height="20" as="geometry" />
        </mxCell>
        <mxCell id="LdZz7DW8RSjzyneldxjD-1077" value="" style="shape=waypoint;sketch=0;size=6;pointerEvents=1;points=[];fillColor=none;resizable=0;rotatable=0;perimeter=centerPerimeter;snapToPoint=1;" vertex="1" parent="LdZz7DW8RSjzyneldxjD-1059">
          <mxGeometry x="30" y="120" width="20" height="20" as="geometry" />
        </mxCell>
        <mxCell id="LdZz7DW8RSjzyneldxjD-1078" value="" style="shape=waypoint;sketch=0;size=6;pointerEvents=1;points=[];fillColor=none;resizable=0;rotatable=0;perimeter=centerPerimeter;snapToPoint=1;" vertex="1" parent="LdZz7DW8RSjzyneldxjD-1059">
          <mxGeometry x="30" y="160" width="20" height="20" as="geometry" />
        </mxCell>
        <mxCell id="LdZz7DW8RSjzyneldxjD-1079" value="" style="shape=waypoint;sketch=0;size=6;pointerEvents=1;points=[];fillColor=none;resizable=0;rotatable=0;perimeter=centerPerimeter;snapToPoint=1;" vertex="1" parent="LdZz7DW8RSjzyneldxjD-1059">
          <mxGeometry x="30" y="200" width="20" height="20" as="geometry" />
        </mxCell>
        <mxCell id="LdZz7DW8RSjzyneldxjD-1080" value="" style="shape=waypoint;sketch=0;size=6;pointerEvents=1;points=[];fillColor=none;resizable=0;rotatable=0;perimeter=centerPerimeter;snapToPoint=1;" vertex="1" parent="LdZz7DW8RSjzyneldxjD-1059">
          <mxGeometry x="30" y="240" width="20" height="20" as="geometry" />
        </mxCell>
        <mxCell id="LdZz7DW8RSjzyneldxjD-1081" value="" style="shape=waypoint;sketch=0;size=6;pointerEvents=1;points=[];fillColor=none;resizable=0;rotatable=0;perimeter=centerPerimeter;snapToPoint=1;" vertex="1" parent="LdZz7DW8RSjzyneldxjD-1059">
          <mxGeometry x="30" y="280" width="20" height="20" as="geometry" />
        </mxCell>
        <mxCell id="LdZz7DW8RSjzyneldxjD-1082" value="" style="shape=waypoint;sketch=0;size=6;pointerEvents=1;points=[];fillColor=none;resizable=0;rotatable=0;perimeter=centerPerimeter;snapToPoint=1;" vertex="1" parent="LdZz7DW8RSjzyneldxjD-1059">
          <mxGeometry x="30" y="320" width="20" height="20" as="geometry" />
        </mxCell>
        <mxCell id="LdZz7DW8RSjzyneldxjD-1083" value="" style="shape=waypoint;sketch=0;size=6;pointerEvents=1;points=[];fillColor=none;resizable=0;rotatable=0;perimeter=centerPerimeter;snapToPoint=1;" vertex="1" parent="LdZz7DW8RSjzyneldxjD-1059">
          <mxGeometry x="30" y="360" width="20" height="20" as="geometry" />
        </mxCell>
        <mxCell id="LdZz7DW8RSjzyneldxjD-1084" value="" style="shape=waypoint;sketch=0;size=6;pointerEvents=1;points=[];fillColor=none;resizable=0;rotatable=0;perimeter=centerPerimeter;snapToPoint=1;" vertex="1" parent="LdZz7DW8RSjzyneldxjD-1059">
          <mxGeometry x="30" y="400" width="20" height="20" as="geometry" />
        </mxCell>
        <mxCell id="LdZz7DW8RSjzyneldxjD-1085" value="" style="shape=waypoint;sketch=0;size=6;pointerEvents=1;points=[];fillColor=none;resizable=0;rotatable=0;perimeter=centerPerimeter;snapToPoint=1;" vertex="1" parent="LdZz7DW8RSjzyneldxjD-1059">
          <mxGeometry x="30" y="440" width="20" height="20" as="geometry" />
        </mxCell>
        <mxCell id="LdZz7DW8RSjzyneldxjD-1086" value="" style="shape=waypoint;sketch=0;size=6;pointerEvents=1;points=[];fillColor=none;resizable=0;rotatable=0;perimeter=centerPerimeter;snapToPoint=1;align=center;verticalAlign=top;fontFamily=Helvetica;fontSize=12;fontColor=default;" vertex="1" parent="LdZz7DW8RSjzyneldxjD-1059">
          <mxGeometry x="30" y="480" width="20" height="20" as="geometry" />
        </mxCell>
        <mxCell id="LdZz7DW8RSjzyneldxjD-1087" value="" style="group" vertex="1" connectable="0" parent="LdZz7DW8RSjzyneldxjD-1058">
          <mxGeometry x="140" width="55" height="513" as="geometry" />
        </mxCell>
        <mxCell id="LdZz7DW8RSjzyneldxjD-1088" value="" style="group;movable=1;resizable=1;rotatable=1;deletable=1;editable=1;locked=0;connectable=1;" vertex="1" connectable="0" parent="LdZz7DW8RSjzyneldxjD-1087">
          <mxGeometry x="20" width="35" height="513" as="geometry" />
        </mxCell>
        <mxCell id="LdZz7DW8RSjzyneldxjD-1089" value="&lt;font size=&quot;3&quot;&gt;A&lt;/font&gt;" style="text;html=1;align=center;verticalAlign=middle;resizable=0;points=[];autosize=1;strokeColor=none;fillColor=none;rotation=0;" vertex="1" parent="LdZz7DW8RSjzyneldxjD-1088">
          <mxGeometry width="30" height="30" as="geometry" />
        </mxCell>
        <mxCell id="LdZz7DW8RSjzyneldxjD-1090" value="&lt;font style=&quot;font-size: 18px;&quot;&gt;C&lt;/font&gt;" style="text;html=1;align=center;verticalAlign=middle;resizable=0;points=[];autosize=1;strokeColor=none;fillColor=none;" vertex="1" parent="LdZz7DW8RSjzyneldxjD-1088">
          <mxGeometry x="-5" y="75" width="40" height="40" as="geometry" />
        </mxCell>
        <mxCell id="LdZz7DW8RSjzyneldxjD-1091" value="&lt;font style=&quot;font-size: 18px;&quot;&gt;D&lt;/font&gt;" style="text;html=1;align=center;verticalAlign=middle;resizable=0;points=[];autosize=1;strokeColor=none;fillColor=none;movable=0;rotatable=0;deletable=0;editable=0;locked=1;connectable=0;" vertex="1" parent="LdZz7DW8RSjzyneldxjD-1088">
          <mxGeometry x="-5" y="115" width="40" height="40" as="geometry" />
        </mxCell>
        <mxCell id="LdZz7DW8RSjzyneldxjD-1092" value="&lt;font style=&quot;font-size: 18px;&quot;&gt;E&lt;/font&gt;" style="text;html=1;align=center;verticalAlign=middle;resizable=0;points=[];autosize=1;strokeColor=none;fillColor=none;" vertex="1" parent="LdZz7DW8RSjzyneldxjD-1088">
          <mxGeometry x="-5" y="153" width="40" height="40" as="geometry" />
        </mxCell>
        <mxCell id="LdZz7DW8RSjzyneldxjD-1093" value="&lt;font style=&quot;font-size: 18px;&quot;&gt;F&lt;/font&gt;" style="text;html=1;align=center;verticalAlign=middle;resizable=0;points=[];autosize=1;strokeColor=none;fillColor=none;" vertex="1" parent="LdZz7DW8RSjzyneldxjD-1088">
          <mxGeometry y="193" width="30" height="40" as="geometry" />
        </mxCell>
        <mxCell id="LdZz7DW8RSjzyneldxjD-1094" value="&lt;font style=&quot;font-size: 18px;&quot;&gt;G&lt;/font&gt;" style="text;html=1;align=center;verticalAlign=middle;resizable=0;points=[];autosize=1;strokeColor=none;fillColor=none;" vertex="1" parent="LdZz7DW8RSjzyneldxjD-1088">
          <mxGeometry x="-5" y="233" width="40" height="40" as="geometry" />
        </mxCell>
        <mxCell id="LdZz7DW8RSjzyneldxjD-1095" value="&lt;font style=&quot;font-size: 18px;&quot;&gt;H&lt;/font&gt;" style="text;html=1;align=center;verticalAlign=middle;resizable=0;points=[];autosize=1;strokeColor=none;fillColor=none;" vertex="1" parent="LdZz7DW8RSjzyneldxjD-1088">
          <mxGeometry x="-5" y="273" width="40" height="40" as="geometry" />
        </mxCell>
        <mxCell id="LdZz7DW8RSjzyneldxjD-1096" value="&lt;font style=&quot;font-size: 18px;&quot;&gt;I&lt;/font&gt;" style="text;html=1;align=center;verticalAlign=middle;resizable=0;points=[];autosize=1;strokeColor=none;fillColor=none;" vertex="1" parent="LdZz7DW8RSjzyneldxjD-1088">
          <mxGeometry y="315" width="30" height="40" as="geometry" />
        </mxCell>
        <mxCell id="LdZz7DW8RSjzyneldxjD-1097" value="&lt;font style=&quot;font-size: 18px;&quot;&gt;J&lt;/font&gt;" style="text;html=1;align=center;verticalAlign=middle;resizable=0;points=[];autosize=1;strokeColor=none;fillColor=none;" vertex="1" parent="LdZz7DW8RSjzyneldxjD-1088">
          <mxGeometry y="353" width="30" height="40" as="geometry" />
        </mxCell>
        <mxCell id="LdZz7DW8RSjzyneldxjD-1098" value="&lt;font style=&quot;font-size: 18px;&quot;&gt;K&lt;/font&gt;" style="text;html=1;align=center;verticalAlign=middle;resizable=0;points=[];autosize=1;strokeColor=none;fillColor=none;" vertex="1" parent="LdZz7DW8RSjzyneldxjD-1088">
          <mxGeometry x="-5" y="393" width="40" height="40" as="geometry" />
        </mxCell>
        <mxCell id="LdZz7DW8RSjzyneldxjD-1099" value="&lt;font style=&quot;font-size: 18px;&quot;&gt;L&lt;/font&gt;" style="text;html=1;align=center;verticalAlign=middle;resizable=0;points=[];autosize=1;strokeColor=none;fillColor=none;" vertex="1" parent="LdZz7DW8RSjzyneldxjD-1088">
          <mxGeometry y="435" width="30" height="40" as="geometry" />
        </mxCell>
        <mxCell id="LdZz7DW8RSjzyneldxjD-1100" value="&lt;font style=&quot;font-size: 18px;&quot;&gt;M&lt;/font&gt;" style="text;html=1;align=center;verticalAlign=middle;resizable=0;points=[];autosize=1;strokeColor=none;fillColor=none;" vertex="1" parent="LdZz7DW8RSjzyneldxjD-1088">
          <mxGeometry x="-5" y="473" width="40" height="40" as="geometry" />
        </mxCell>
        <mxCell id="LdZz7DW8RSjzyneldxjD-1101" value="&lt;font style=&quot;font-size: 18px;&quot;&gt;B&lt;/font&gt;" style="text;html=1;align=center;verticalAlign=middle;resizable=0;points=[];autosize=1;strokeColor=none;fillColor=none;" vertex="1" parent="LdZz7DW8RSjzyneldxjD-1088">
          <mxGeometry x="-5" y="33" width="40" height="40" as="geometry" />
        </mxCell>
        <mxCell id="LdZz7DW8RSjzyneldxjD-1102" value="" style="ellipse;whiteSpace=wrap;html=1;pointerEvents=0;align=center;verticalAlign=top;fontFamily=Helvetica;fontSize=12;fontColor=default;fillColor=none;gradientColor=none;" vertex="1" parent="LdZz7DW8RSjzyneldxjD-1087">
          <mxGeometry y="5" width="10" height="10" as="geometry" />
        </mxCell>
        <mxCell id="LdZz7DW8RSjzyneldxjD-1103" value="" style="ellipse;whiteSpace=wrap;html=1;pointerEvents=0;align=center;verticalAlign=top;fontFamily=Helvetica;fontSize=12;fontColor=default;fillColor=none;gradientColor=none;" vertex="1" parent="LdZz7DW8RSjzyneldxjD-1087">
          <mxGeometry y="205" width="10" height="10" as="geometry" />
        </mxCell>
        <mxCell id="LdZz7DW8RSjzyneldxjD-1104" value="" style="ellipse;whiteSpace=wrap;html=1;pointerEvents=0;align=center;verticalAlign=top;fontFamily=Helvetica;fontSize=12;fontColor=default;fillColor=none;gradientColor=none;" vertex="1" parent="LdZz7DW8RSjzyneldxjD-1087">
          <mxGeometry y="245" width="10" height="10" as="geometry" />
        </mxCell>
        <mxCell id="LdZz7DW8RSjzyneldxjD-1105" value="" style="ellipse;whiteSpace=wrap;html=1;pointerEvents=0;align=center;verticalAlign=top;fontFamily=Helvetica;fontSize=12;fontColor=default;fillColor=none;gradientColor=none;" vertex="1" parent="LdZz7DW8RSjzyneldxjD-1087">
          <mxGeometry y="325" width="10" height="10" as="geometry" />
        </mxCell>
        <mxCell id="LdZz7DW8RSjzyneldxjD-1106" value="" style="ellipse;whiteSpace=wrap;html=1;pointerEvents=0;align=center;verticalAlign=top;fontFamily=Helvetica;fontSize=12;fontColor=default;fillColor=none;gradientColor=none;" vertex="1" parent="LdZz7DW8RSjzyneldxjD-1087">
          <mxGeometry y="365" width="10" height="10" as="geometry" />
        </mxCell>
        <mxCell id="LdZz7DW8RSjzyneldxjD-1107" value="" style="ellipse;whiteSpace=wrap;html=1;pointerEvents=0;align=center;verticalAlign=top;fontFamily=Helvetica;fontSize=12;fontColor=default;fillColor=none;gradientColor=none;" vertex="1" parent="LdZz7DW8RSjzyneldxjD-1087">
          <mxGeometry y="405" width="10" height="10" as="geometry" />
        </mxCell>
        <mxCell id="LdZz7DW8RSjzyneldxjD-1108" value="" style="ellipse;whiteSpace=wrap;html=1;pointerEvents=0;align=center;verticalAlign=top;fontFamily=Helvetica;fontSize=12;fontColor=default;fillColor=none;gradientColor=none;" vertex="1" parent="LdZz7DW8RSjzyneldxjD-1087">
          <mxGeometry y="445" width="10" height="10" as="geometry" />
        </mxCell>
        <mxCell id="LdZz7DW8RSjzyneldxjD-1109" value="" style="ellipse;whiteSpace=wrap;html=1;pointerEvents=0;align=center;verticalAlign=top;fontFamily=Helvetica;fontSize=12;fontColor=default;fillColor=none;gradientColor=none;" vertex="1" parent="LdZz7DW8RSjzyneldxjD-1087">
          <mxGeometry y="485" width="10" height="10" as="geometry" />
        </mxCell>
        <mxCell id="LdZz7DW8RSjzyneldxjD-1110" value="" style="ellipse;whiteSpace=wrap;html=1;pointerEvents=0;align=center;verticalAlign=top;fontFamily=Helvetica;fontSize=12;fontColor=default;fillColor=none;gradientColor=none;" vertex="1" parent="LdZz7DW8RSjzyneldxjD-1087">
          <mxGeometry y="285" width="10" height="10" as="geometry" />
        </mxCell>
        <mxCell id="LdZz7DW8RSjzyneldxjD-1111" value="" style="ellipse;whiteSpace=wrap;html=1;pointerEvents=0;align=center;verticalAlign=top;fontFamily=Helvetica;fontSize=12;fontColor=default;fillColor=none;gradientColor=none;" vertex="1" parent="LdZz7DW8RSjzyneldxjD-1087">
          <mxGeometry y="165" width="10" height="10" as="geometry" />
        </mxCell>
        <mxCell id="LdZz7DW8RSjzyneldxjD-1112" value="" style="ellipse;whiteSpace=wrap;html=1;pointerEvents=0;align=center;verticalAlign=top;fontFamily=Helvetica;fontSize=12;fontColor=default;fillColor=none;gradientColor=none;" vertex="1" parent="LdZz7DW8RSjzyneldxjD-1087">
          <mxGeometry y="130" width="10" height="10" as="geometry" />
        </mxCell>
        <mxCell id="LdZz7DW8RSjzyneldxjD-1113" value="" style="ellipse;whiteSpace=wrap;html=1;pointerEvents=0;align=center;verticalAlign=top;fontFamily=Helvetica;fontSize=12;fontColor=default;fillColor=none;gradientColor=none;" vertex="1" parent="LdZz7DW8RSjzyneldxjD-1087">
          <mxGeometry y="85" width="10" height="10" as="geometry" />
        </mxCell>
        <mxCell id="LdZz7DW8RSjzyneldxjD-1114" value="" style="ellipse;whiteSpace=wrap;html=1;pointerEvents=0;align=center;verticalAlign=top;fontFamily=Helvetica;fontSize=12;fontColor=default;fillColor=none;gradientColor=none;" vertex="1" parent="LdZz7DW8RSjzyneldxjD-1087">
          <mxGeometry y="45" width="10" height="10" as="geometry" />
        </mxCell>
        <mxCell id="LdZz7DW8RSjzyneldxjD-1115" value="" style="group" vertex="1" connectable="0" parent="LdZz7DW8RSjzyneldxjD-943">
          <mxGeometry x="760" width="195" height="513" as="geometry" />
        </mxCell>
        <mxCell id="LdZz7DW8RSjzyneldxjD-1116" value="" style="group" vertex="1" connectable="0" parent="LdZz7DW8RSjzyneldxjD-1115">
          <mxGeometry width="50" height="513" as="geometry" />
        </mxCell>
        <mxCell id="LdZz7DW8RSjzyneldxjD-1117" value="" style="group;movable=0;resizable=0;rotatable=0;deletable=0;editable=0;locked=1;connectable=0;" vertex="1" connectable="0" parent="LdZz7DW8RSjzyneldxjD-1116">
          <mxGeometry width="35" height="513" as="geometry" />
        </mxCell>
        <mxCell id="LdZz7DW8RSjzyneldxjD-1118" value="&lt;font size=&quot;3&quot;&gt;A&lt;/font&gt;" style="text;html=1;align=center;verticalAlign=middle;resizable=0;points=[];autosize=1;strokeColor=none;fillColor=none;rotation=0;" vertex="1" parent="LdZz7DW8RSjzyneldxjD-1117">
          <mxGeometry width="30" height="30" as="geometry" />
        </mxCell>
        <mxCell id="LdZz7DW8RSjzyneldxjD-1119" value="&lt;font style=&quot;font-size: 18px;&quot;&gt;C&lt;/font&gt;" style="text;html=1;align=center;verticalAlign=middle;resizable=0;points=[];autosize=1;strokeColor=none;fillColor=none;" vertex="1" parent="LdZz7DW8RSjzyneldxjD-1117">
          <mxGeometry x="-5" y="75" width="40" height="40" as="geometry" />
        </mxCell>
        <mxCell id="LdZz7DW8RSjzyneldxjD-1120" value="&lt;font style=&quot;font-size: 18px;&quot;&gt;D&lt;/font&gt;" style="text;html=1;align=center;verticalAlign=middle;resizable=0;points=[];autosize=1;strokeColor=none;fillColor=none;movable=0;rotatable=0;deletable=0;editable=0;locked=1;connectable=0;" vertex="1" parent="LdZz7DW8RSjzyneldxjD-1117">
          <mxGeometry x="-5" y="115" width="40" height="40" as="geometry" />
        </mxCell>
        <mxCell id="LdZz7DW8RSjzyneldxjD-1121" value="&lt;font style=&quot;font-size: 18px;&quot;&gt;E&lt;/font&gt;" style="text;html=1;align=center;verticalAlign=middle;resizable=0;points=[];autosize=1;strokeColor=none;fillColor=none;" vertex="1" parent="LdZz7DW8RSjzyneldxjD-1117">
          <mxGeometry x="-5" y="153" width="40" height="40" as="geometry" />
        </mxCell>
        <mxCell id="LdZz7DW8RSjzyneldxjD-1122" value="&lt;font style=&quot;font-size: 18px;&quot;&gt;F&lt;/font&gt;" style="text;html=1;align=center;verticalAlign=middle;resizable=0;points=[];autosize=1;strokeColor=none;fillColor=none;" vertex="1" parent="LdZz7DW8RSjzyneldxjD-1117">
          <mxGeometry y="193" width="30" height="40" as="geometry" />
        </mxCell>
        <mxCell id="LdZz7DW8RSjzyneldxjD-1123" value="&lt;font style=&quot;font-size: 18px;&quot;&gt;G&lt;/font&gt;" style="text;html=1;align=center;verticalAlign=middle;resizable=0;points=[];autosize=1;strokeColor=none;fillColor=none;" vertex="1" parent="LdZz7DW8RSjzyneldxjD-1117">
          <mxGeometry x="-5" y="233" width="40" height="40" as="geometry" />
        </mxCell>
        <mxCell id="LdZz7DW8RSjzyneldxjD-1124" value="&lt;font style=&quot;font-size: 18px;&quot;&gt;H&lt;/font&gt;" style="text;html=1;align=center;verticalAlign=middle;resizable=0;points=[];autosize=1;strokeColor=none;fillColor=none;" vertex="1" parent="LdZz7DW8RSjzyneldxjD-1117">
          <mxGeometry x="-5" y="273" width="40" height="40" as="geometry" />
        </mxCell>
        <mxCell id="LdZz7DW8RSjzyneldxjD-1125" value="&lt;font style=&quot;font-size: 18px;&quot;&gt;I&lt;/font&gt;" style="text;html=1;align=center;verticalAlign=middle;resizable=0;points=[];autosize=1;strokeColor=none;fillColor=none;" vertex="1" parent="LdZz7DW8RSjzyneldxjD-1117">
          <mxGeometry y="315" width="30" height="40" as="geometry" />
        </mxCell>
        <mxCell id="LdZz7DW8RSjzyneldxjD-1126" value="&lt;font style=&quot;font-size: 18px;&quot;&gt;J&lt;/font&gt;" style="text;html=1;align=center;verticalAlign=middle;resizable=0;points=[];autosize=1;strokeColor=none;fillColor=none;" vertex="1" parent="LdZz7DW8RSjzyneldxjD-1117">
          <mxGeometry y="353" width="30" height="40" as="geometry" />
        </mxCell>
        <mxCell id="LdZz7DW8RSjzyneldxjD-1127" value="&lt;font style=&quot;font-size: 18px;&quot;&gt;K&lt;/font&gt;" style="text;html=1;align=center;verticalAlign=middle;resizable=0;points=[];autosize=1;strokeColor=none;fillColor=none;" vertex="1" parent="LdZz7DW8RSjzyneldxjD-1117">
          <mxGeometry x="-5" y="393" width="40" height="40" as="geometry" />
        </mxCell>
        <mxCell id="LdZz7DW8RSjzyneldxjD-1128" value="&lt;font style=&quot;font-size: 18px;&quot;&gt;L&lt;/font&gt;" style="text;html=1;align=center;verticalAlign=middle;resizable=0;points=[];autosize=1;strokeColor=none;fillColor=none;" vertex="1" parent="LdZz7DW8RSjzyneldxjD-1117">
          <mxGeometry y="435" width="30" height="40" as="geometry" />
        </mxCell>
        <mxCell id="LdZz7DW8RSjzyneldxjD-1129" value="&lt;font style=&quot;font-size: 18px;&quot;&gt;M&lt;/font&gt;" style="text;html=1;align=center;verticalAlign=middle;resizable=0;points=[];autosize=1;strokeColor=none;fillColor=none;" vertex="1" parent="LdZz7DW8RSjzyneldxjD-1117">
          <mxGeometry x="-5" y="473" width="40" height="40" as="geometry" />
        </mxCell>
        <mxCell id="LdZz7DW8RSjzyneldxjD-1130" value="&lt;font style=&quot;font-size: 18px;&quot;&gt;B&lt;/font&gt;" style="text;html=1;align=center;verticalAlign=middle;resizable=0;points=[];autosize=1;strokeColor=none;fillColor=none;" vertex="1" parent="LdZz7DW8RSjzyneldxjD-1117">
          <mxGeometry x="-5" y="33" width="40" height="40" as="geometry" />
        </mxCell>
        <mxCell id="LdZz7DW8RSjzyneldxjD-1131" value="" style="shape=waypoint;sketch=0;size=6;pointerEvents=1;points=[];fillColor=none;resizable=0;rotatable=0;perimeter=centerPerimeter;snapToPoint=1;" vertex="1" parent="LdZz7DW8RSjzyneldxjD-1116">
          <mxGeometry x="30" width="20" height="20" as="geometry" />
        </mxCell>
        <mxCell id="LdZz7DW8RSjzyneldxjD-1132" value="" style="shape=waypoint;sketch=0;size=6;pointerEvents=1;points=[];fillColor=none;resizable=0;rotatable=0;perimeter=centerPerimeter;snapToPoint=1;" vertex="1" parent="LdZz7DW8RSjzyneldxjD-1116">
          <mxGeometry x="30" y="40" width="20" height="20" as="geometry" />
        </mxCell>
        <mxCell id="LdZz7DW8RSjzyneldxjD-1133" value="" style="shape=waypoint;sketch=0;size=6;pointerEvents=1;points=[];fillColor=none;resizable=0;rotatable=0;perimeter=centerPerimeter;snapToPoint=1;" vertex="1" parent="LdZz7DW8RSjzyneldxjD-1116">
          <mxGeometry x="30" y="80" width="20" height="20" as="geometry" />
        </mxCell>
        <mxCell id="LdZz7DW8RSjzyneldxjD-1134" value="" style="shape=waypoint;sketch=0;size=6;pointerEvents=1;points=[];fillColor=none;resizable=0;rotatable=0;perimeter=centerPerimeter;snapToPoint=1;" vertex="1" parent="LdZz7DW8RSjzyneldxjD-1116">
          <mxGeometry x="30" y="120" width="20" height="20" as="geometry" />
        </mxCell>
        <mxCell id="LdZz7DW8RSjzyneldxjD-1135" value="" style="shape=waypoint;sketch=0;size=6;pointerEvents=1;points=[];fillColor=none;resizable=0;rotatable=0;perimeter=centerPerimeter;snapToPoint=1;" vertex="1" parent="LdZz7DW8RSjzyneldxjD-1116">
          <mxGeometry x="30" y="160" width="20" height="20" as="geometry" />
        </mxCell>
        <mxCell id="LdZz7DW8RSjzyneldxjD-1136" value="" style="shape=waypoint;sketch=0;size=6;pointerEvents=1;points=[];fillColor=none;resizable=0;rotatable=0;perimeter=centerPerimeter;snapToPoint=1;" vertex="1" parent="LdZz7DW8RSjzyneldxjD-1116">
          <mxGeometry x="30" y="200" width="20" height="20" as="geometry" />
        </mxCell>
        <mxCell id="LdZz7DW8RSjzyneldxjD-1137" value="" style="shape=waypoint;sketch=0;size=6;pointerEvents=1;points=[];fillColor=none;resizable=0;rotatable=0;perimeter=centerPerimeter;snapToPoint=1;" vertex="1" parent="LdZz7DW8RSjzyneldxjD-1116">
          <mxGeometry x="30" y="240" width="20" height="20" as="geometry" />
        </mxCell>
        <mxCell id="LdZz7DW8RSjzyneldxjD-1138" value="" style="shape=waypoint;sketch=0;size=6;pointerEvents=1;points=[];fillColor=none;resizable=0;rotatable=0;perimeter=centerPerimeter;snapToPoint=1;" vertex="1" parent="LdZz7DW8RSjzyneldxjD-1116">
          <mxGeometry x="30" y="280" width="20" height="20" as="geometry" />
        </mxCell>
        <mxCell id="LdZz7DW8RSjzyneldxjD-1139" value="" style="shape=waypoint;sketch=0;size=6;pointerEvents=1;points=[];fillColor=none;resizable=0;rotatable=0;perimeter=centerPerimeter;snapToPoint=1;" vertex="1" parent="LdZz7DW8RSjzyneldxjD-1116">
          <mxGeometry x="30" y="320" width="20" height="20" as="geometry" />
        </mxCell>
        <mxCell id="LdZz7DW8RSjzyneldxjD-1140" value="" style="shape=waypoint;sketch=0;size=6;pointerEvents=1;points=[];fillColor=none;resizable=0;rotatable=0;perimeter=centerPerimeter;snapToPoint=1;" vertex="1" parent="LdZz7DW8RSjzyneldxjD-1116">
          <mxGeometry x="30" y="360" width="20" height="20" as="geometry" />
        </mxCell>
        <mxCell id="LdZz7DW8RSjzyneldxjD-1141" value="" style="shape=waypoint;sketch=0;size=6;pointerEvents=1;points=[];fillColor=none;resizable=0;rotatable=0;perimeter=centerPerimeter;snapToPoint=1;" vertex="1" parent="LdZz7DW8RSjzyneldxjD-1116">
          <mxGeometry x="30" y="400" width="20" height="20" as="geometry" />
        </mxCell>
        <mxCell id="LdZz7DW8RSjzyneldxjD-1142" value="" style="shape=waypoint;sketch=0;size=6;pointerEvents=1;points=[];fillColor=none;resizable=0;rotatable=0;perimeter=centerPerimeter;snapToPoint=1;" vertex="1" parent="LdZz7DW8RSjzyneldxjD-1116">
          <mxGeometry x="30" y="440" width="20" height="20" as="geometry" />
        </mxCell>
        <mxCell id="LdZz7DW8RSjzyneldxjD-1143" value="" style="shape=waypoint;sketch=0;size=6;pointerEvents=1;points=[];fillColor=none;resizable=0;rotatable=0;perimeter=centerPerimeter;snapToPoint=1;align=center;verticalAlign=top;fontFamily=Helvetica;fontSize=12;fontColor=default;" vertex="1" parent="LdZz7DW8RSjzyneldxjD-1116">
          <mxGeometry x="30" y="480" width="20" height="20" as="geometry" />
        </mxCell>
        <mxCell id="LdZz7DW8RSjzyneldxjD-1144" value="" style="group" vertex="1" connectable="0" parent="LdZz7DW8RSjzyneldxjD-1115">
          <mxGeometry x="140" width="55" height="513" as="geometry" />
        </mxCell>
        <mxCell id="LdZz7DW8RSjzyneldxjD-1145" value="" style="group;movable=1;resizable=1;rotatable=1;deletable=1;editable=1;locked=0;connectable=1;" vertex="1" connectable="0" parent="LdZz7DW8RSjzyneldxjD-1144">
          <mxGeometry x="20" width="35" height="513" as="geometry" />
        </mxCell>
        <mxCell id="LdZz7DW8RSjzyneldxjD-1146" value="&lt;font size=&quot;3&quot;&gt;A&lt;/font&gt;" style="text;html=1;align=center;verticalAlign=middle;resizable=0;points=[];autosize=1;strokeColor=none;fillColor=none;rotation=0;" vertex="1" parent="LdZz7DW8RSjzyneldxjD-1145">
          <mxGeometry width="30" height="30" as="geometry" />
        </mxCell>
        <mxCell id="LdZz7DW8RSjzyneldxjD-1147" value="&lt;font style=&quot;font-size: 18px;&quot;&gt;C&lt;/font&gt;" style="text;html=1;align=center;verticalAlign=middle;resizable=0;points=[];autosize=1;strokeColor=none;fillColor=none;" vertex="1" parent="LdZz7DW8RSjzyneldxjD-1145">
          <mxGeometry x="-5" y="75" width="40" height="40" as="geometry" />
        </mxCell>
        <mxCell id="LdZz7DW8RSjzyneldxjD-1148" value="&lt;font style=&quot;font-size: 18px;&quot;&gt;D&lt;/font&gt;" style="text;html=1;align=center;verticalAlign=middle;resizable=0;points=[];autosize=1;strokeColor=none;fillColor=none;movable=0;rotatable=0;deletable=0;editable=0;locked=1;connectable=0;" vertex="1" parent="LdZz7DW8RSjzyneldxjD-1145">
          <mxGeometry x="-5" y="115" width="40" height="40" as="geometry" />
        </mxCell>
        <mxCell id="LdZz7DW8RSjzyneldxjD-1149" value="&lt;font style=&quot;font-size: 18px;&quot;&gt;E&lt;/font&gt;" style="text;html=1;align=center;verticalAlign=middle;resizable=0;points=[];autosize=1;strokeColor=none;fillColor=none;" vertex="1" parent="LdZz7DW8RSjzyneldxjD-1145">
          <mxGeometry x="-5" y="153" width="40" height="40" as="geometry" />
        </mxCell>
        <mxCell id="LdZz7DW8RSjzyneldxjD-1150" value="&lt;font style=&quot;font-size: 18px;&quot;&gt;F&lt;/font&gt;" style="text;html=1;align=center;verticalAlign=middle;resizable=0;points=[];autosize=1;strokeColor=none;fillColor=none;" vertex="1" parent="LdZz7DW8RSjzyneldxjD-1145">
          <mxGeometry y="193" width="30" height="40" as="geometry" />
        </mxCell>
        <mxCell id="LdZz7DW8RSjzyneldxjD-1151" value="&lt;font style=&quot;font-size: 18px;&quot;&gt;G&lt;/font&gt;" style="text;html=1;align=center;verticalAlign=middle;resizable=0;points=[];autosize=1;strokeColor=none;fillColor=none;" vertex="1" parent="LdZz7DW8RSjzyneldxjD-1145">
          <mxGeometry x="-5" y="233" width="40" height="40" as="geometry" />
        </mxCell>
        <mxCell id="LdZz7DW8RSjzyneldxjD-1152" value="&lt;font style=&quot;font-size: 18px;&quot;&gt;H&lt;/font&gt;" style="text;html=1;align=center;verticalAlign=middle;resizable=0;points=[];autosize=1;strokeColor=none;fillColor=none;" vertex="1" parent="LdZz7DW8RSjzyneldxjD-1145">
          <mxGeometry x="-5" y="273" width="40" height="40" as="geometry" />
        </mxCell>
        <mxCell id="LdZz7DW8RSjzyneldxjD-1153" value="&lt;font style=&quot;font-size: 18px;&quot;&gt;I&lt;/font&gt;" style="text;html=1;align=center;verticalAlign=middle;resizable=0;points=[];autosize=1;strokeColor=none;fillColor=none;" vertex="1" parent="LdZz7DW8RSjzyneldxjD-1145">
          <mxGeometry y="315" width="30" height="40" as="geometry" />
        </mxCell>
        <mxCell id="LdZz7DW8RSjzyneldxjD-1154" value="&lt;font style=&quot;font-size: 18px;&quot;&gt;J&lt;/font&gt;" style="text;html=1;align=center;verticalAlign=middle;resizable=0;points=[];autosize=1;strokeColor=none;fillColor=none;" vertex="1" parent="LdZz7DW8RSjzyneldxjD-1145">
          <mxGeometry y="353" width="30" height="40" as="geometry" />
        </mxCell>
        <mxCell id="LdZz7DW8RSjzyneldxjD-1155" value="&lt;font style=&quot;font-size: 18px;&quot;&gt;K&lt;/font&gt;" style="text;html=1;align=center;verticalAlign=middle;resizable=0;points=[];autosize=1;strokeColor=none;fillColor=none;" vertex="1" parent="LdZz7DW8RSjzyneldxjD-1145">
          <mxGeometry x="-5" y="393" width="40" height="40" as="geometry" />
        </mxCell>
        <mxCell id="LdZz7DW8RSjzyneldxjD-1156" value="&lt;font style=&quot;font-size: 18px;&quot;&gt;L&lt;/font&gt;" style="text;html=1;align=center;verticalAlign=middle;resizable=0;points=[];autosize=1;strokeColor=none;fillColor=none;" vertex="1" parent="LdZz7DW8RSjzyneldxjD-1145">
          <mxGeometry y="435" width="30" height="40" as="geometry" />
        </mxCell>
        <mxCell id="LdZz7DW8RSjzyneldxjD-1157" value="&lt;font style=&quot;font-size: 18px;&quot;&gt;M&lt;/font&gt;" style="text;html=1;align=center;verticalAlign=middle;resizable=0;points=[];autosize=1;strokeColor=none;fillColor=none;" vertex="1" parent="LdZz7DW8RSjzyneldxjD-1145">
          <mxGeometry x="-5" y="473" width="40" height="40" as="geometry" />
        </mxCell>
        <mxCell id="LdZz7DW8RSjzyneldxjD-1158" value="&lt;font style=&quot;font-size: 18px;&quot;&gt;B&lt;/font&gt;" style="text;html=1;align=center;verticalAlign=middle;resizable=0;points=[];autosize=1;strokeColor=none;fillColor=none;" vertex="1" parent="LdZz7DW8RSjzyneldxjD-1145">
          <mxGeometry x="-5" y="33" width="40" height="40" as="geometry" />
        </mxCell>
        <mxCell id="LdZz7DW8RSjzyneldxjD-1159" value="" style="ellipse;whiteSpace=wrap;html=1;pointerEvents=0;align=center;verticalAlign=top;fontFamily=Helvetica;fontSize=12;fontColor=default;fillColor=none;gradientColor=none;" vertex="1" parent="LdZz7DW8RSjzyneldxjD-1144">
          <mxGeometry y="5" width="10" height="10" as="geometry" />
        </mxCell>
        <mxCell id="LdZz7DW8RSjzyneldxjD-1160" value="" style="ellipse;whiteSpace=wrap;html=1;pointerEvents=0;align=center;verticalAlign=top;fontFamily=Helvetica;fontSize=12;fontColor=default;fillColor=none;gradientColor=none;" vertex="1" parent="LdZz7DW8RSjzyneldxjD-1144">
          <mxGeometry y="205" width="10" height="10" as="geometry" />
        </mxCell>
        <mxCell id="LdZz7DW8RSjzyneldxjD-1161" value="" style="ellipse;whiteSpace=wrap;html=1;pointerEvents=0;align=center;verticalAlign=top;fontFamily=Helvetica;fontSize=12;fontColor=default;fillColor=none;gradientColor=none;" vertex="1" parent="LdZz7DW8RSjzyneldxjD-1144">
          <mxGeometry y="245" width="10" height="10" as="geometry" />
        </mxCell>
        <mxCell id="LdZz7DW8RSjzyneldxjD-1162" value="" style="ellipse;whiteSpace=wrap;html=1;pointerEvents=0;align=center;verticalAlign=top;fontFamily=Helvetica;fontSize=12;fontColor=default;fillColor=none;gradientColor=none;" vertex="1" parent="LdZz7DW8RSjzyneldxjD-1144">
          <mxGeometry y="325" width="10" height="10" as="geometry" />
        </mxCell>
        <mxCell id="LdZz7DW8RSjzyneldxjD-1163" value="" style="ellipse;whiteSpace=wrap;html=1;pointerEvents=0;align=center;verticalAlign=top;fontFamily=Helvetica;fontSize=12;fontColor=default;fillColor=none;gradientColor=none;" vertex="1" parent="LdZz7DW8RSjzyneldxjD-1144">
          <mxGeometry y="365" width="10" height="10" as="geometry" />
        </mxCell>
        <mxCell id="LdZz7DW8RSjzyneldxjD-1164" value="" style="ellipse;whiteSpace=wrap;html=1;pointerEvents=0;align=center;verticalAlign=top;fontFamily=Helvetica;fontSize=12;fontColor=default;fillColor=none;gradientColor=none;" vertex="1" parent="LdZz7DW8RSjzyneldxjD-1144">
          <mxGeometry y="405" width="10" height="10" as="geometry" />
        </mxCell>
        <mxCell id="LdZz7DW8RSjzyneldxjD-1165" value="" style="ellipse;whiteSpace=wrap;html=1;pointerEvents=0;align=center;verticalAlign=top;fontFamily=Helvetica;fontSize=12;fontColor=default;fillColor=none;gradientColor=none;" vertex="1" parent="LdZz7DW8RSjzyneldxjD-1144">
          <mxGeometry y="445" width="10" height="10" as="geometry" />
        </mxCell>
        <mxCell id="LdZz7DW8RSjzyneldxjD-1166" value="" style="ellipse;whiteSpace=wrap;html=1;pointerEvents=0;align=center;verticalAlign=top;fontFamily=Helvetica;fontSize=12;fontColor=default;fillColor=none;gradientColor=none;" vertex="1" parent="LdZz7DW8RSjzyneldxjD-1144">
          <mxGeometry y="485" width="10" height="10" as="geometry" />
        </mxCell>
        <mxCell id="LdZz7DW8RSjzyneldxjD-1167" value="" style="ellipse;whiteSpace=wrap;html=1;pointerEvents=0;align=center;verticalAlign=top;fontFamily=Helvetica;fontSize=12;fontColor=default;fillColor=none;gradientColor=none;" vertex="1" parent="LdZz7DW8RSjzyneldxjD-1144">
          <mxGeometry y="285" width="10" height="10" as="geometry" />
        </mxCell>
        <mxCell id="LdZz7DW8RSjzyneldxjD-1168" value="" style="ellipse;whiteSpace=wrap;html=1;pointerEvents=0;align=center;verticalAlign=top;fontFamily=Helvetica;fontSize=12;fontColor=default;fillColor=none;gradientColor=none;" vertex="1" parent="LdZz7DW8RSjzyneldxjD-1144">
          <mxGeometry y="165" width="10" height="10" as="geometry" />
        </mxCell>
        <mxCell id="LdZz7DW8RSjzyneldxjD-1169" value="" style="ellipse;whiteSpace=wrap;html=1;pointerEvents=0;align=center;verticalAlign=top;fontFamily=Helvetica;fontSize=12;fontColor=default;fillColor=none;gradientColor=none;" vertex="1" parent="LdZz7DW8RSjzyneldxjD-1144">
          <mxGeometry y="130" width="10" height="10" as="geometry" />
        </mxCell>
        <mxCell id="LdZz7DW8RSjzyneldxjD-1170" value="" style="ellipse;whiteSpace=wrap;html=1;pointerEvents=0;align=center;verticalAlign=top;fontFamily=Helvetica;fontSize=12;fontColor=default;fillColor=none;gradientColor=none;" vertex="1" parent="LdZz7DW8RSjzyneldxjD-1144">
          <mxGeometry y="85" width="10" height="10" as="geometry" />
        </mxCell>
        <mxCell id="LdZz7DW8RSjzyneldxjD-1171" value="" style="ellipse;whiteSpace=wrap;html=1;pointerEvents=0;align=center;verticalAlign=top;fontFamily=Helvetica;fontSize=12;fontColor=default;fillColor=none;gradientColor=none;" vertex="1" parent="LdZz7DW8RSjzyneldxjD-1144">
          <mxGeometry y="45" width="10" height="10" as="geometry" />
        </mxCell>
        <mxCell id="LdZz7DW8RSjzyneldxjD-234" value="" style="group" vertex="1" connectable="0" parent="1">
          <mxGeometry x="410" y="60" width="50" height="513" as="geometry" />
        </mxCell>
        <mxCell id="LdZz7DW8RSjzyneldxjD-235" value="" style="group;movable=0;resizable=0;rotatable=0;deletable=0;editable=0;locked=1;connectable=0;" vertex="1" connectable="0" parent="LdZz7DW8RSjzyneldxjD-234">
          <mxGeometry width="35" height="513" as="geometry" />
        </mxCell>
        <mxCell id="LdZz7DW8RSjzyneldxjD-236" value="&lt;font size=&quot;3&quot;&gt;A&lt;/font&gt;" style="text;html=1;align=center;verticalAlign=middle;resizable=0;points=[];autosize=1;strokeColor=none;fillColor=none;rotation=0;" vertex="1" parent="LdZz7DW8RSjzyneldxjD-235">
          <mxGeometry width="30" height="30" as="geometry" />
        </mxCell>
        <mxCell id="LdZz7DW8RSjzyneldxjD-237" value="&lt;font style=&quot;font-size: 18px;&quot;&gt;C&lt;/font&gt;" style="text;html=1;align=center;verticalAlign=middle;resizable=0;points=[];autosize=1;strokeColor=none;fillColor=none;" vertex="1" parent="LdZz7DW8RSjzyneldxjD-235">
          <mxGeometry x="-5" y="75" width="40" height="40" as="geometry" />
        </mxCell>
        <mxCell id="LdZz7DW8RSjzyneldxjD-238" value="&lt;font style=&quot;font-size: 18px;&quot;&gt;D&lt;/font&gt;" style="text;html=1;align=center;verticalAlign=middle;resizable=0;points=[];autosize=1;strokeColor=none;fillColor=none;movable=0;rotatable=0;deletable=0;editable=0;locked=1;connectable=0;" vertex="1" parent="LdZz7DW8RSjzyneldxjD-235">
          <mxGeometry x="-5" y="115" width="40" height="40" as="geometry" />
        </mxCell>
        <mxCell id="LdZz7DW8RSjzyneldxjD-239" value="&lt;font style=&quot;font-size: 18px;&quot;&gt;E&lt;/font&gt;" style="text;html=1;align=center;verticalAlign=middle;resizable=0;points=[];autosize=1;strokeColor=none;fillColor=none;" vertex="1" parent="LdZz7DW8RSjzyneldxjD-235">
          <mxGeometry x="-5" y="153" width="40" height="40" as="geometry" />
        </mxCell>
        <mxCell id="LdZz7DW8RSjzyneldxjD-240" value="&lt;font style=&quot;font-size: 18px;&quot;&gt;F&lt;/font&gt;" style="text;html=1;align=center;verticalAlign=middle;resizable=0;points=[];autosize=1;strokeColor=none;fillColor=none;" vertex="1" parent="LdZz7DW8RSjzyneldxjD-235">
          <mxGeometry y="193" width="30" height="40" as="geometry" />
        </mxCell>
        <mxCell id="LdZz7DW8RSjzyneldxjD-241" value="&lt;font style=&quot;font-size: 18px;&quot;&gt;G&lt;/font&gt;" style="text;html=1;align=center;verticalAlign=middle;resizable=0;points=[];autosize=1;strokeColor=none;fillColor=none;" vertex="1" parent="LdZz7DW8RSjzyneldxjD-235">
          <mxGeometry x="-5" y="233" width="40" height="40" as="geometry" />
        </mxCell>
        <mxCell id="LdZz7DW8RSjzyneldxjD-242" value="&lt;font style=&quot;font-size: 18px;&quot;&gt;H&lt;/font&gt;" style="text;html=1;align=center;verticalAlign=middle;resizable=0;points=[];autosize=1;strokeColor=none;fillColor=none;" vertex="1" parent="LdZz7DW8RSjzyneldxjD-235">
          <mxGeometry x="-5" y="273" width="40" height="40" as="geometry" />
        </mxCell>
        <mxCell id="LdZz7DW8RSjzyneldxjD-243" value="&lt;font style=&quot;font-size: 18px;&quot;&gt;I&lt;/font&gt;" style="text;html=1;align=center;verticalAlign=middle;resizable=0;points=[];autosize=1;strokeColor=none;fillColor=none;" vertex="1" parent="LdZz7DW8RSjzyneldxjD-235">
          <mxGeometry y="315" width="30" height="40" as="geometry" />
        </mxCell>
        <mxCell id="LdZz7DW8RSjzyneldxjD-244" value="&lt;font style=&quot;font-size: 18px;&quot;&gt;J&lt;/font&gt;" style="text;html=1;align=center;verticalAlign=middle;resizable=0;points=[];autosize=1;strokeColor=none;fillColor=none;" vertex="1" parent="LdZz7DW8RSjzyneldxjD-235">
          <mxGeometry y="353" width="30" height="40" as="geometry" />
        </mxCell>
        <mxCell id="LdZz7DW8RSjzyneldxjD-245" value="&lt;font style=&quot;font-size: 18px;&quot;&gt;K&lt;/font&gt;" style="text;html=1;align=center;verticalAlign=middle;resizable=0;points=[];autosize=1;strokeColor=none;fillColor=none;" vertex="1" parent="LdZz7DW8RSjzyneldxjD-235">
          <mxGeometry x="-5" y="393" width="40" height="40" as="geometry" />
        </mxCell>
        <mxCell id="LdZz7DW8RSjzyneldxjD-246" value="&lt;font style=&quot;font-size: 18px;&quot;&gt;L&lt;/font&gt;" style="text;html=1;align=center;verticalAlign=middle;resizable=0;points=[];autosize=1;strokeColor=none;fillColor=none;" vertex="1" parent="LdZz7DW8RSjzyneldxjD-235">
          <mxGeometry y="435" width="30" height="40" as="geometry" />
        </mxCell>
        <mxCell id="LdZz7DW8RSjzyneldxjD-247" value="&lt;font style=&quot;font-size: 18px;&quot;&gt;M&lt;/font&gt;" style="text;html=1;align=center;verticalAlign=middle;resizable=0;points=[];autosize=1;strokeColor=none;fillColor=none;" vertex="1" parent="LdZz7DW8RSjzyneldxjD-235">
          <mxGeometry x="-5" y="473" width="40" height="40" as="geometry" />
        </mxCell>
        <mxCell id="LdZz7DW8RSjzyneldxjD-248" value="&lt;font style=&quot;font-size: 18px;&quot;&gt;B&lt;/font&gt;" style="text;html=1;align=center;verticalAlign=middle;resizable=0;points=[];autosize=1;strokeColor=none;fillColor=none;" vertex="1" parent="LdZz7DW8RSjzyneldxjD-235">
          <mxGeometry x="-5" y="33" width="40" height="40" as="geometry" />
        </mxCell>
        <mxCell id="LdZz7DW8RSjzyneldxjD-249" value="" style="shape=waypoint;sketch=0;size=6;pointerEvents=1;points=[];fillColor=none;resizable=0;rotatable=0;perimeter=centerPerimeter;snapToPoint=1;" vertex="1" parent="LdZz7DW8RSjzyneldxjD-234">
          <mxGeometry x="30" width="20" height="20" as="geometry" />
        </mxCell>
        <mxCell id="LdZz7DW8RSjzyneldxjD-250" value="" style="shape=waypoint;sketch=0;size=6;pointerEvents=1;points=[];fillColor=none;resizable=0;rotatable=0;perimeter=centerPerimeter;snapToPoint=1;" vertex="1" parent="LdZz7DW8RSjzyneldxjD-234">
          <mxGeometry x="30" y="40" width="20" height="20" as="geometry" />
        </mxCell>
        <mxCell id="LdZz7DW8RSjzyneldxjD-251" value="" style="shape=waypoint;sketch=0;size=6;pointerEvents=1;points=[];fillColor=none;resizable=0;rotatable=0;perimeter=centerPerimeter;snapToPoint=1;" vertex="1" parent="LdZz7DW8RSjzyneldxjD-234">
          <mxGeometry x="30" y="80" width="20" height="20" as="geometry" />
        </mxCell>
        <mxCell id="LdZz7DW8RSjzyneldxjD-252" value="" style="shape=waypoint;sketch=0;size=6;pointerEvents=1;points=[];fillColor=none;resizable=0;rotatable=0;perimeter=centerPerimeter;snapToPoint=1;" vertex="1" parent="LdZz7DW8RSjzyneldxjD-234">
          <mxGeometry x="30" y="120" width="20" height="20" as="geometry" />
        </mxCell>
        <mxCell id="LdZz7DW8RSjzyneldxjD-253" value="" style="shape=waypoint;sketch=0;size=6;pointerEvents=1;points=[];fillColor=none;resizable=0;rotatable=0;perimeter=centerPerimeter;snapToPoint=1;" vertex="1" parent="LdZz7DW8RSjzyneldxjD-234">
          <mxGeometry x="30" y="160" width="20" height="20" as="geometry" />
        </mxCell>
        <mxCell id="LdZz7DW8RSjzyneldxjD-254" value="" style="shape=waypoint;sketch=0;size=6;pointerEvents=1;points=[];fillColor=none;resizable=0;rotatable=0;perimeter=centerPerimeter;snapToPoint=1;" vertex="1" parent="LdZz7DW8RSjzyneldxjD-234">
          <mxGeometry x="30" y="200" width="20" height="20" as="geometry" />
        </mxCell>
        <mxCell id="LdZz7DW8RSjzyneldxjD-255" value="" style="shape=waypoint;sketch=0;size=6;pointerEvents=1;points=[];fillColor=none;resizable=0;rotatable=0;perimeter=centerPerimeter;snapToPoint=1;" vertex="1" parent="LdZz7DW8RSjzyneldxjD-234">
          <mxGeometry x="30" y="240" width="20" height="20" as="geometry" />
        </mxCell>
        <mxCell id="LdZz7DW8RSjzyneldxjD-256" value="" style="shape=waypoint;sketch=0;size=6;pointerEvents=1;points=[];fillColor=none;resizable=0;rotatable=0;perimeter=centerPerimeter;snapToPoint=1;" vertex="1" parent="LdZz7DW8RSjzyneldxjD-234">
          <mxGeometry x="30" y="280" width="20" height="20" as="geometry" />
        </mxCell>
        <mxCell id="LdZz7DW8RSjzyneldxjD-257" value="" style="shape=waypoint;sketch=0;size=6;pointerEvents=1;points=[];fillColor=none;resizable=0;rotatable=0;perimeter=centerPerimeter;snapToPoint=1;" vertex="1" parent="LdZz7DW8RSjzyneldxjD-234">
          <mxGeometry x="30" y="320" width="20" height="20" as="geometry" />
        </mxCell>
        <mxCell id="LdZz7DW8RSjzyneldxjD-258" value="" style="shape=waypoint;sketch=0;size=6;pointerEvents=1;points=[];fillColor=none;resizable=0;rotatable=0;perimeter=centerPerimeter;snapToPoint=1;" vertex="1" parent="LdZz7DW8RSjzyneldxjD-234">
          <mxGeometry x="30" y="360" width="20" height="20" as="geometry" />
        </mxCell>
        <mxCell id="LdZz7DW8RSjzyneldxjD-259" value="" style="shape=waypoint;sketch=0;size=6;pointerEvents=1;points=[];fillColor=none;resizable=0;rotatable=0;perimeter=centerPerimeter;snapToPoint=1;" vertex="1" parent="LdZz7DW8RSjzyneldxjD-234">
          <mxGeometry x="30" y="400" width="20" height="20" as="geometry" />
        </mxCell>
        <mxCell id="LdZz7DW8RSjzyneldxjD-260" value="" style="shape=waypoint;sketch=0;size=6;pointerEvents=1;points=[];fillColor=none;resizable=0;rotatable=0;perimeter=centerPerimeter;snapToPoint=1;" vertex="1" parent="LdZz7DW8RSjzyneldxjD-234">
          <mxGeometry x="30" y="440" width="20" height="20" as="geometry" />
        </mxCell>
        <mxCell id="LdZz7DW8RSjzyneldxjD-261" value="" style="shape=waypoint;sketch=0;size=6;pointerEvents=1;points=[];fillColor=none;resizable=0;rotatable=0;perimeter=centerPerimeter;snapToPoint=1;align=center;verticalAlign=top;fontFamily=Helvetica;fontSize=12;fontColor=default;" vertex="1" parent="LdZz7DW8RSjzyneldxjD-234">
          <mxGeometry x="30" y="480" width="20" height="20" as="geometry" />
        </mxCell>
        <mxCell id="LdZz7DW8RSjzyneldxjD-262" value="" style="group" vertex="1" connectable="0" parent="1">
          <mxGeometry x="550" y="60" width="55" height="513" as="geometry" />
        </mxCell>
        <mxCell id="LdZz7DW8RSjzyneldxjD-263" value="" style="group;movable=1;resizable=1;rotatable=1;deletable=1;editable=1;locked=0;connectable=1;" vertex="1" connectable="0" parent="LdZz7DW8RSjzyneldxjD-262">
          <mxGeometry x="20" width="35" height="513" as="geometry" />
        </mxCell>
        <mxCell id="LdZz7DW8RSjzyneldxjD-264" value="&lt;font size=&quot;3&quot;&gt;A&lt;/font&gt;" style="text;html=1;align=center;verticalAlign=middle;resizable=0;points=[];autosize=1;strokeColor=none;fillColor=none;rotation=0;" vertex="1" parent="LdZz7DW8RSjzyneldxjD-263">
          <mxGeometry width="30" height="30" as="geometry" />
        </mxCell>
        <mxCell id="LdZz7DW8RSjzyneldxjD-265" value="&lt;font style=&quot;font-size: 18px;&quot;&gt;C&lt;/font&gt;" style="text;html=1;align=center;verticalAlign=middle;resizable=0;points=[];autosize=1;strokeColor=none;fillColor=none;" vertex="1" parent="LdZz7DW8RSjzyneldxjD-263">
          <mxGeometry x="-5" y="75" width="40" height="40" as="geometry" />
        </mxCell>
        <mxCell id="LdZz7DW8RSjzyneldxjD-266" value="&lt;font style=&quot;font-size: 18px;&quot;&gt;D&lt;/font&gt;" style="text;html=1;align=center;verticalAlign=middle;resizable=0;points=[];autosize=1;strokeColor=none;fillColor=none;movable=0;rotatable=0;deletable=0;editable=0;locked=1;connectable=0;" vertex="1" parent="LdZz7DW8RSjzyneldxjD-263">
          <mxGeometry x="-5" y="115" width="40" height="40" as="geometry" />
        </mxCell>
        <mxCell id="LdZz7DW8RSjzyneldxjD-267" value="&lt;font style=&quot;font-size: 18px;&quot;&gt;E&lt;/font&gt;" style="text;html=1;align=center;verticalAlign=middle;resizable=0;points=[];autosize=1;strokeColor=none;fillColor=none;" vertex="1" parent="LdZz7DW8RSjzyneldxjD-263">
          <mxGeometry x="-5" y="153" width="40" height="40" as="geometry" />
        </mxCell>
        <mxCell id="LdZz7DW8RSjzyneldxjD-268" value="&lt;font style=&quot;font-size: 18px;&quot;&gt;F&lt;/font&gt;" style="text;html=1;align=center;verticalAlign=middle;resizable=0;points=[];autosize=1;strokeColor=none;fillColor=none;" vertex="1" parent="LdZz7DW8RSjzyneldxjD-263">
          <mxGeometry y="193" width="30" height="40" as="geometry" />
        </mxCell>
        <mxCell id="LdZz7DW8RSjzyneldxjD-269" value="&lt;font style=&quot;font-size: 18px;&quot;&gt;G&lt;/font&gt;" style="text;html=1;align=center;verticalAlign=middle;resizable=0;points=[];autosize=1;strokeColor=none;fillColor=none;" vertex="1" parent="LdZz7DW8RSjzyneldxjD-263">
          <mxGeometry x="-5" y="233" width="40" height="40" as="geometry" />
        </mxCell>
        <mxCell id="LdZz7DW8RSjzyneldxjD-270" value="&lt;font style=&quot;font-size: 18px;&quot;&gt;H&lt;/font&gt;" style="text;html=1;align=center;verticalAlign=middle;resizable=0;points=[];autosize=1;strokeColor=none;fillColor=none;" vertex="1" parent="LdZz7DW8RSjzyneldxjD-263">
          <mxGeometry x="-5" y="273" width="40" height="40" as="geometry" />
        </mxCell>
        <mxCell id="LdZz7DW8RSjzyneldxjD-271" value="&lt;font style=&quot;font-size: 18px;&quot;&gt;I&lt;/font&gt;" style="text;html=1;align=center;verticalAlign=middle;resizable=0;points=[];autosize=1;strokeColor=none;fillColor=none;" vertex="1" parent="LdZz7DW8RSjzyneldxjD-263">
          <mxGeometry y="315" width="30" height="40" as="geometry" />
        </mxCell>
        <mxCell id="LdZz7DW8RSjzyneldxjD-272" value="&lt;font style=&quot;font-size: 18px;&quot;&gt;J&lt;/font&gt;" style="text;html=1;align=center;verticalAlign=middle;resizable=0;points=[];autosize=1;strokeColor=none;fillColor=none;" vertex="1" parent="LdZz7DW8RSjzyneldxjD-263">
          <mxGeometry y="353" width="30" height="40" as="geometry" />
        </mxCell>
        <mxCell id="LdZz7DW8RSjzyneldxjD-273" value="&lt;font style=&quot;font-size: 18px;&quot;&gt;K&lt;/font&gt;" style="text;html=1;align=center;verticalAlign=middle;resizable=0;points=[];autosize=1;strokeColor=none;fillColor=none;" vertex="1" parent="LdZz7DW8RSjzyneldxjD-263">
          <mxGeometry x="-5" y="393" width="40" height="40" as="geometry" />
        </mxCell>
        <mxCell id="LdZz7DW8RSjzyneldxjD-274" value="&lt;font style=&quot;font-size: 18px;&quot;&gt;L&lt;/font&gt;" style="text;html=1;align=center;verticalAlign=middle;resizable=0;points=[];autosize=1;strokeColor=none;fillColor=none;" vertex="1" parent="LdZz7DW8RSjzyneldxjD-263">
          <mxGeometry y="435" width="30" height="40" as="geometry" />
        </mxCell>
        <mxCell id="LdZz7DW8RSjzyneldxjD-275" value="&lt;font style=&quot;font-size: 18px;&quot;&gt;M&lt;/font&gt;" style="text;html=1;align=center;verticalAlign=middle;resizable=0;points=[];autosize=1;strokeColor=none;fillColor=none;" vertex="1" parent="LdZz7DW8RSjzyneldxjD-263">
          <mxGeometry x="-5" y="473" width="40" height="40" as="geometry" />
        </mxCell>
        <mxCell id="LdZz7DW8RSjzyneldxjD-276" value="&lt;font style=&quot;font-size: 18px;&quot;&gt;B&lt;/font&gt;" style="text;html=1;align=center;verticalAlign=middle;resizable=0;points=[];autosize=1;strokeColor=none;fillColor=none;" vertex="1" parent="LdZz7DW8RSjzyneldxjD-263">
          <mxGeometry x="-5" y="33" width="40" height="40" as="geometry" />
        </mxCell>
        <mxCell id="LdZz7DW8RSjzyneldxjD-277" value="" style="ellipse;whiteSpace=wrap;html=1;pointerEvents=0;align=center;verticalAlign=top;fontFamily=Helvetica;fontSize=12;fontColor=default;fillColor=none;gradientColor=none;" vertex="1" parent="LdZz7DW8RSjzyneldxjD-262">
          <mxGeometry y="5" width="10" height="10" as="geometry" />
        </mxCell>
        <mxCell id="LdZz7DW8RSjzyneldxjD-278" value="" style="ellipse;whiteSpace=wrap;html=1;pointerEvents=0;align=center;verticalAlign=top;fontFamily=Helvetica;fontSize=12;fontColor=default;fillColor=none;gradientColor=none;" vertex="1" parent="LdZz7DW8RSjzyneldxjD-262">
          <mxGeometry y="205" width="10" height="10" as="geometry" />
        </mxCell>
        <mxCell id="LdZz7DW8RSjzyneldxjD-279" value="" style="ellipse;whiteSpace=wrap;html=1;pointerEvents=0;align=center;verticalAlign=top;fontFamily=Helvetica;fontSize=12;fontColor=default;fillColor=none;gradientColor=none;" vertex="1" parent="LdZz7DW8RSjzyneldxjD-262">
          <mxGeometry y="245" width="10" height="10" as="geometry" />
        </mxCell>
        <mxCell id="LdZz7DW8RSjzyneldxjD-280" value="" style="ellipse;whiteSpace=wrap;html=1;pointerEvents=0;align=center;verticalAlign=top;fontFamily=Helvetica;fontSize=12;fontColor=default;fillColor=none;gradientColor=none;" vertex="1" parent="LdZz7DW8RSjzyneldxjD-262">
          <mxGeometry y="325" width="10" height="10" as="geometry" />
        </mxCell>
        <mxCell id="LdZz7DW8RSjzyneldxjD-281" value="" style="ellipse;whiteSpace=wrap;html=1;pointerEvents=0;align=center;verticalAlign=top;fontFamily=Helvetica;fontSize=12;fontColor=default;fillColor=none;gradientColor=none;" vertex="1" parent="LdZz7DW8RSjzyneldxjD-262">
          <mxGeometry y="365" width="10" height="10" as="geometry" />
        </mxCell>
        <mxCell id="LdZz7DW8RSjzyneldxjD-282" value="" style="ellipse;whiteSpace=wrap;html=1;pointerEvents=0;align=center;verticalAlign=top;fontFamily=Helvetica;fontSize=12;fontColor=default;fillColor=none;gradientColor=none;" vertex="1" parent="LdZz7DW8RSjzyneldxjD-262">
          <mxGeometry y="405" width="10" height="10" as="geometry" />
        </mxCell>
        <mxCell id="LdZz7DW8RSjzyneldxjD-283" value="" style="ellipse;whiteSpace=wrap;html=1;pointerEvents=0;align=center;verticalAlign=top;fontFamily=Helvetica;fontSize=12;fontColor=default;fillColor=none;gradientColor=none;" vertex="1" parent="LdZz7DW8RSjzyneldxjD-262">
          <mxGeometry y="445" width="10" height="10" as="geometry" />
        </mxCell>
        <mxCell id="LdZz7DW8RSjzyneldxjD-284" value="" style="ellipse;whiteSpace=wrap;html=1;pointerEvents=0;align=center;verticalAlign=top;fontFamily=Helvetica;fontSize=12;fontColor=default;fillColor=none;gradientColor=none;" vertex="1" parent="LdZz7DW8RSjzyneldxjD-262">
          <mxGeometry y="485" width="10" height="10" as="geometry" />
        </mxCell>
        <mxCell id="LdZz7DW8RSjzyneldxjD-285" value="" style="ellipse;whiteSpace=wrap;html=1;pointerEvents=0;align=center;verticalAlign=top;fontFamily=Helvetica;fontSize=12;fontColor=default;fillColor=none;gradientColor=none;" vertex="1" parent="LdZz7DW8RSjzyneldxjD-262">
          <mxGeometry y="285" width="10" height="10" as="geometry" />
        </mxCell>
        <mxCell id="LdZz7DW8RSjzyneldxjD-286" value="" style="ellipse;whiteSpace=wrap;html=1;pointerEvents=0;align=center;verticalAlign=top;fontFamily=Helvetica;fontSize=12;fontColor=default;fillColor=none;gradientColor=none;" vertex="1" parent="LdZz7DW8RSjzyneldxjD-262">
          <mxGeometry y="165" width="10" height="10" as="geometry" />
        </mxCell>
        <mxCell id="LdZz7DW8RSjzyneldxjD-287" value="" style="ellipse;whiteSpace=wrap;html=1;pointerEvents=0;align=center;verticalAlign=top;fontFamily=Helvetica;fontSize=12;fontColor=default;fillColor=none;gradientColor=none;" vertex="1" parent="LdZz7DW8RSjzyneldxjD-262">
          <mxGeometry y="130" width="10" height="10" as="geometry" />
        </mxCell>
        <mxCell id="LdZz7DW8RSjzyneldxjD-288" value="" style="ellipse;whiteSpace=wrap;html=1;pointerEvents=0;align=center;verticalAlign=top;fontFamily=Helvetica;fontSize=12;fontColor=default;fillColor=none;gradientColor=none;" vertex="1" parent="LdZz7DW8RSjzyneldxjD-262">
          <mxGeometry y="85" width="10" height="10" as="geometry" />
        </mxCell>
        <mxCell id="LdZz7DW8RSjzyneldxjD-289" value="" style="ellipse;whiteSpace=wrap;html=1;pointerEvents=0;align=center;verticalAlign=top;fontFamily=Helvetica;fontSize=12;fontColor=default;fillColor=none;gradientColor=none;" vertex="1" parent="LdZz7DW8RSjzyneldxjD-262">
          <mxGeometry y="45" width="10" height="10" as="geometry" />
        </mxCell>
        <mxCell id="LdZz7DW8RSjzyneldxjD-292" value="" style="group" vertex="1" connectable="0" parent="1">
          <mxGeometry x="630" y="60" width="50" height="513" as="geometry" />
        </mxCell>
        <mxCell id="LdZz7DW8RSjzyneldxjD-293" value="" style="group;movable=0;resizable=0;rotatable=0;deletable=0;editable=0;locked=1;connectable=0;" vertex="1" connectable="0" parent="LdZz7DW8RSjzyneldxjD-292">
          <mxGeometry width="35" height="513" as="geometry" />
        </mxCell>
        <mxCell id="LdZz7DW8RSjzyneldxjD-294" value="&lt;font size=&quot;3&quot;&gt;A&lt;/font&gt;" style="text;html=1;align=center;verticalAlign=middle;resizable=0;points=[];autosize=1;strokeColor=none;fillColor=none;rotation=0;" vertex="1" parent="LdZz7DW8RSjzyneldxjD-293">
          <mxGeometry width="30" height="30" as="geometry" />
        </mxCell>
        <mxCell id="LdZz7DW8RSjzyneldxjD-295" value="&lt;font style=&quot;font-size: 18px;&quot;&gt;C&lt;/font&gt;" style="text;html=1;align=center;verticalAlign=middle;resizable=0;points=[];autosize=1;strokeColor=none;fillColor=none;" vertex="1" parent="LdZz7DW8RSjzyneldxjD-293">
          <mxGeometry x="-5" y="75" width="40" height="40" as="geometry" />
        </mxCell>
        <mxCell id="LdZz7DW8RSjzyneldxjD-296" value="&lt;font style=&quot;font-size: 18px;&quot;&gt;D&lt;/font&gt;" style="text;html=1;align=center;verticalAlign=middle;resizable=0;points=[];autosize=1;strokeColor=none;fillColor=none;movable=0;rotatable=0;deletable=0;editable=0;locked=1;connectable=0;" vertex="1" parent="LdZz7DW8RSjzyneldxjD-293">
          <mxGeometry x="-5" y="115" width="40" height="40" as="geometry" />
        </mxCell>
        <mxCell id="LdZz7DW8RSjzyneldxjD-297" value="&lt;font style=&quot;font-size: 18px;&quot;&gt;E&lt;/font&gt;" style="text;html=1;align=center;verticalAlign=middle;resizable=0;points=[];autosize=1;strokeColor=none;fillColor=none;" vertex="1" parent="LdZz7DW8RSjzyneldxjD-293">
          <mxGeometry x="-5" y="153" width="40" height="40" as="geometry" />
        </mxCell>
        <mxCell id="LdZz7DW8RSjzyneldxjD-298" value="&lt;font style=&quot;font-size: 18px;&quot;&gt;F&lt;/font&gt;" style="text;html=1;align=center;verticalAlign=middle;resizable=0;points=[];autosize=1;strokeColor=none;fillColor=none;" vertex="1" parent="LdZz7DW8RSjzyneldxjD-293">
          <mxGeometry y="193" width="30" height="40" as="geometry" />
        </mxCell>
        <mxCell id="LdZz7DW8RSjzyneldxjD-299" value="&lt;font style=&quot;font-size: 18px;&quot;&gt;G&lt;/font&gt;" style="text;html=1;align=center;verticalAlign=middle;resizable=0;points=[];autosize=1;strokeColor=none;fillColor=none;" vertex="1" parent="LdZz7DW8RSjzyneldxjD-293">
          <mxGeometry x="-5" y="233" width="40" height="40" as="geometry" />
        </mxCell>
        <mxCell id="LdZz7DW8RSjzyneldxjD-300" value="&lt;font style=&quot;font-size: 18px;&quot;&gt;H&lt;/font&gt;" style="text;html=1;align=center;verticalAlign=middle;resizable=0;points=[];autosize=1;strokeColor=none;fillColor=none;" vertex="1" parent="LdZz7DW8RSjzyneldxjD-293">
          <mxGeometry x="-5" y="273" width="40" height="40" as="geometry" />
        </mxCell>
        <mxCell id="LdZz7DW8RSjzyneldxjD-301" value="&lt;font style=&quot;font-size: 18px;&quot;&gt;I&lt;/font&gt;" style="text;html=1;align=center;verticalAlign=middle;resizable=0;points=[];autosize=1;strokeColor=none;fillColor=none;" vertex="1" parent="LdZz7DW8RSjzyneldxjD-293">
          <mxGeometry y="315" width="30" height="40" as="geometry" />
        </mxCell>
        <mxCell id="LdZz7DW8RSjzyneldxjD-302" value="&lt;font style=&quot;font-size: 18px;&quot;&gt;J&lt;/font&gt;" style="text;html=1;align=center;verticalAlign=middle;resizable=0;points=[];autosize=1;strokeColor=none;fillColor=none;" vertex="1" parent="LdZz7DW8RSjzyneldxjD-293">
          <mxGeometry y="353" width="30" height="40" as="geometry" />
        </mxCell>
        <mxCell id="LdZz7DW8RSjzyneldxjD-303" value="&lt;font style=&quot;font-size: 18px;&quot;&gt;K&lt;/font&gt;" style="text;html=1;align=center;verticalAlign=middle;resizable=0;points=[];autosize=1;strokeColor=none;fillColor=none;" vertex="1" parent="LdZz7DW8RSjzyneldxjD-293">
          <mxGeometry x="-5" y="393" width="40" height="40" as="geometry" />
        </mxCell>
        <mxCell id="LdZz7DW8RSjzyneldxjD-304" value="&lt;font style=&quot;font-size: 18px;&quot;&gt;L&lt;/font&gt;" style="text;html=1;align=center;verticalAlign=middle;resizable=0;points=[];autosize=1;strokeColor=none;fillColor=none;" vertex="1" parent="LdZz7DW8RSjzyneldxjD-293">
          <mxGeometry y="435" width="30" height="40" as="geometry" />
        </mxCell>
        <mxCell id="LdZz7DW8RSjzyneldxjD-305" value="&lt;font style=&quot;font-size: 18px;&quot;&gt;M&lt;/font&gt;" style="text;html=1;align=center;verticalAlign=middle;resizable=0;points=[];autosize=1;strokeColor=none;fillColor=none;" vertex="1" parent="LdZz7DW8RSjzyneldxjD-293">
          <mxGeometry x="-5" y="473" width="40" height="40" as="geometry" />
        </mxCell>
        <mxCell id="LdZz7DW8RSjzyneldxjD-306" value="&lt;font style=&quot;font-size: 18px;&quot;&gt;B&lt;/font&gt;" style="text;html=1;align=center;verticalAlign=middle;resizable=0;points=[];autosize=1;strokeColor=none;fillColor=none;" vertex="1" parent="LdZz7DW8RSjzyneldxjD-293">
          <mxGeometry x="-5" y="33" width="40" height="40" as="geometry" />
        </mxCell>
        <mxCell id="LdZz7DW8RSjzyneldxjD-307" value="" style="shape=waypoint;sketch=0;size=6;pointerEvents=1;points=[];fillColor=none;resizable=0;rotatable=0;perimeter=centerPerimeter;snapToPoint=1;" vertex="1" parent="LdZz7DW8RSjzyneldxjD-292">
          <mxGeometry x="30" width="20" height="20" as="geometry" />
        </mxCell>
        <mxCell id="LdZz7DW8RSjzyneldxjD-308" value="" style="shape=waypoint;sketch=0;size=6;pointerEvents=1;points=[];fillColor=none;resizable=0;rotatable=0;perimeter=centerPerimeter;snapToPoint=1;" vertex="1" parent="LdZz7DW8RSjzyneldxjD-292">
          <mxGeometry x="30" y="40" width="20" height="20" as="geometry" />
        </mxCell>
        <mxCell id="LdZz7DW8RSjzyneldxjD-309" value="" style="shape=waypoint;sketch=0;size=6;pointerEvents=1;points=[];fillColor=none;resizable=0;rotatable=0;perimeter=centerPerimeter;snapToPoint=1;" vertex="1" parent="LdZz7DW8RSjzyneldxjD-292">
          <mxGeometry x="30" y="80" width="20" height="20" as="geometry" />
        </mxCell>
        <mxCell id="LdZz7DW8RSjzyneldxjD-310" value="" style="shape=waypoint;sketch=0;size=6;pointerEvents=1;points=[];fillColor=none;resizable=0;rotatable=0;perimeter=centerPerimeter;snapToPoint=1;" vertex="1" parent="LdZz7DW8RSjzyneldxjD-292">
          <mxGeometry x="30" y="120" width="20" height="20" as="geometry" />
        </mxCell>
        <mxCell id="LdZz7DW8RSjzyneldxjD-311" value="" style="shape=waypoint;sketch=0;size=6;pointerEvents=1;points=[];fillColor=none;resizable=0;rotatable=0;perimeter=centerPerimeter;snapToPoint=1;" vertex="1" parent="LdZz7DW8RSjzyneldxjD-292">
          <mxGeometry x="30" y="160" width="20" height="20" as="geometry" />
        </mxCell>
        <mxCell id="LdZz7DW8RSjzyneldxjD-312" value="" style="shape=waypoint;sketch=0;size=6;pointerEvents=1;points=[];fillColor=none;resizable=0;rotatable=0;perimeter=centerPerimeter;snapToPoint=1;" vertex="1" parent="LdZz7DW8RSjzyneldxjD-292">
          <mxGeometry x="30" y="200" width="20" height="20" as="geometry" />
        </mxCell>
        <mxCell id="LdZz7DW8RSjzyneldxjD-313" value="" style="shape=waypoint;sketch=0;size=6;pointerEvents=1;points=[];fillColor=none;resizable=0;rotatable=0;perimeter=centerPerimeter;snapToPoint=1;" vertex="1" parent="LdZz7DW8RSjzyneldxjD-292">
          <mxGeometry x="30" y="240" width="20" height="20" as="geometry" />
        </mxCell>
        <mxCell id="LdZz7DW8RSjzyneldxjD-314" value="" style="shape=waypoint;sketch=0;size=6;pointerEvents=1;points=[];fillColor=none;resizable=0;rotatable=0;perimeter=centerPerimeter;snapToPoint=1;" vertex="1" parent="LdZz7DW8RSjzyneldxjD-292">
          <mxGeometry x="30" y="280" width="20" height="20" as="geometry" />
        </mxCell>
        <mxCell id="LdZz7DW8RSjzyneldxjD-315" value="" style="shape=waypoint;sketch=0;size=6;pointerEvents=1;points=[];fillColor=none;resizable=0;rotatable=0;perimeter=centerPerimeter;snapToPoint=1;" vertex="1" parent="LdZz7DW8RSjzyneldxjD-292">
          <mxGeometry x="30" y="320" width="20" height="20" as="geometry" />
        </mxCell>
        <mxCell id="LdZz7DW8RSjzyneldxjD-316" value="" style="shape=waypoint;sketch=0;size=6;pointerEvents=1;points=[];fillColor=none;resizable=0;rotatable=0;perimeter=centerPerimeter;snapToPoint=1;" vertex="1" parent="LdZz7DW8RSjzyneldxjD-292">
          <mxGeometry x="30" y="360" width="20" height="20" as="geometry" />
        </mxCell>
        <mxCell id="LdZz7DW8RSjzyneldxjD-317" value="" style="shape=waypoint;sketch=0;size=6;pointerEvents=1;points=[];fillColor=none;resizable=0;rotatable=0;perimeter=centerPerimeter;snapToPoint=1;" vertex="1" parent="LdZz7DW8RSjzyneldxjD-292">
          <mxGeometry x="30" y="400" width="20" height="20" as="geometry" />
        </mxCell>
        <mxCell id="LdZz7DW8RSjzyneldxjD-318" value="" style="shape=waypoint;sketch=0;size=6;pointerEvents=1;points=[];fillColor=none;resizable=0;rotatable=0;perimeter=centerPerimeter;snapToPoint=1;" vertex="1" parent="LdZz7DW8RSjzyneldxjD-292">
          <mxGeometry x="30" y="440" width="20" height="20" as="geometry" />
        </mxCell>
        <mxCell id="LdZz7DW8RSjzyneldxjD-319" value="" style="shape=waypoint;sketch=0;size=6;pointerEvents=1;points=[];fillColor=none;resizable=0;rotatable=0;perimeter=centerPerimeter;snapToPoint=1;align=center;verticalAlign=top;fontFamily=Helvetica;fontSize=12;fontColor=default;" vertex="1" parent="LdZz7DW8RSjzyneldxjD-292">
          <mxGeometry x="30" y="480" width="20" height="20" as="geometry" />
        </mxCell>
        <mxCell id="LdZz7DW8RSjzyneldxjD-320" value="" style="group" vertex="1" connectable="0" parent="1">
          <mxGeometry x="770" y="60" width="55" height="513" as="geometry" />
        </mxCell>
        <mxCell id="LdZz7DW8RSjzyneldxjD-321" value="" style="group;movable=1;resizable=1;rotatable=1;deletable=1;editable=1;locked=0;connectable=1;" vertex="1" connectable="0" parent="LdZz7DW8RSjzyneldxjD-320">
          <mxGeometry x="20" width="35" height="513" as="geometry" />
        </mxCell>
        <mxCell id="LdZz7DW8RSjzyneldxjD-322" value="&lt;font size=&quot;3&quot;&gt;A&lt;/font&gt;" style="text;html=1;align=center;verticalAlign=middle;resizable=0;points=[];autosize=1;strokeColor=none;fillColor=none;rotation=0;" vertex="1" parent="LdZz7DW8RSjzyneldxjD-321">
          <mxGeometry width="30" height="30" as="geometry" />
        </mxCell>
        <mxCell id="LdZz7DW8RSjzyneldxjD-323" value="&lt;font style=&quot;font-size: 18px;&quot;&gt;C&lt;/font&gt;" style="text;html=1;align=center;verticalAlign=middle;resizable=0;points=[];autosize=1;strokeColor=none;fillColor=none;" vertex="1" parent="LdZz7DW8RSjzyneldxjD-321">
          <mxGeometry x="-5" y="75" width="40" height="40" as="geometry" />
        </mxCell>
        <mxCell id="LdZz7DW8RSjzyneldxjD-324" value="&lt;font style=&quot;font-size: 18px;&quot;&gt;D&lt;/font&gt;" style="text;html=1;align=center;verticalAlign=middle;resizable=0;points=[];autosize=1;strokeColor=none;fillColor=none;movable=0;rotatable=0;deletable=0;editable=0;locked=1;connectable=0;" vertex="1" parent="LdZz7DW8RSjzyneldxjD-321">
          <mxGeometry x="-5" y="115" width="40" height="40" as="geometry" />
        </mxCell>
        <mxCell id="LdZz7DW8RSjzyneldxjD-325" value="&lt;font style=&quot;font-size: 18px;&quot;&gt;E&lt;/font&gt;" style="text;html=1;align=center;verticalAlign=middle;resizable=0;points=[];autosize=1;strokeColor=none;fillColor=none;" vertex="1" parent="LdZz7DW8RSjzyneldxjD-321">
          <mxGeometry x="-5" y="153" width="40" height="40" as="geometry" />
        </mxCell>
        <mxCell id="LdZz7DW8RSjzyneldxjD-326" value="&lt;font style=&quot;font-size: 18px;&quot;&gt;F&lt;/font&gt;" style="text;html=1;align=center;verticalAlign=middle;resizable=0;points=[];autosize=1;strokeColor=none;fillColor=none;" vertex="1" parent="LdZz7DW8RSjzyneldxjD-321">
          <mxGeometry y="193" width="30" height="40" as="geometry" />
        </mxCell>
        <mxCell id="LdZz7DW8RSjzyneldxjD-327" value="&lt;font style=&quot;font-size: 18px;&quot;&gt;G&lt;/font&gt;" style="text;html=1;align=center;verticalAlign=middle;resizable=0;points=[];autosize=1;strokeColor=none;fillColor=none;" vertex="1" parent="LdZz7DW8RSjzyneldxjD-321">
          <mxGeometry x="-5" y="233" width="40" height="40" as="geometry" />
        </mxCell>
        <mxCell id="LdZz7DW8RSjzyneldxjD-328" value="&lt;font style=&quot;font-size: 18px;&quot;&gt;H&lt;/font&gt;" style="text;html=1;align=center;verticalAlign=middle;resizable=0;points=[];autosize=1;strokeColor=none;fillColor=none;" vertex="1" parent="LdZz7DW8RSjzyneldxjD-321">
          <mxGeometry x="-5" y="273" width="40" height="40" as="geometry" />
        </mxCell>
        <mxCell id="LdZz7DW8RSjzyneldxjD-329" value="&lt;font style=&quot;font-size: 18px;&quot;&gt;I&lt;/font&gt;" style="text;html=1;align=center;verticalAlign=middle;resizable=0;points=[];autosize=1;strokeColor=none;fillColor=none;" vertex="1" parent="LdZz7DW8RSjzyneldxjD-321">
          <mxGeometry y="315" width="30" height="40" as="geometry" />
        </mxCell>
        <mxCell id="LdZz7DW8RSjzyneldxjD-330" value="&lt;font style=&quot;font-size: 18px;&quot;&gt;J&lt;/font&gt;" style="text;html=1;align=center;verticalAlign=middle;resizable=0;points=[];autosize=1;strokeColor=none;fillColor=none;" vertex="1" parent="LdZz7DW8RSjzyneldxjD-321">
          <mxGeometry y="353" width="30" height="40" as="geometry" />
        </mxCell>
        <mxCell id="LdZz7DW8RSjzyneldxjD-331" value="&lt;font style=&quot;font-size: 18px;&quot;&gt;K&lt;/font&gt;" style="text;html=1;align=center;verticalAlign=middle;resizable=0;points=[];autosize=1;strokeColor=none;fillColor=none;" vertex="1" parent="LdZz7DW8RSjzyneldxjD-321">
          <mxGeometry x="-5" y="393" width="40" height="40" as="geometry" />
        </mxCell>
        <mxCell id="LdZz7DW8RSjzyneldxjD-332" value="&lt;font style=&quot;font-size: 18px;&quot;&gt;L&lt;/font&gt;" style="text;html=1;align=center;verticalAlign=middle;resizable=0;points=[];autosize=1;strokeColor=none;fillColor=none;" vertex="1" parent="LdZz7DW8RSjzyneldxjD-321">
          <mxGeometry y="435" width="30" height="40" as="geometry" />
        </mxCell>
        <mxCell id="LdZz7DW8RSjzyneldxjD-333" value="&lt;font style=&quot;font-size: 18px;&quot;&gt;M&lt;/font&gt;" style="text;html=1;align=center;verticalAlign=middle;resizable=0;points=[];autosize=1;strokeColor=none;fillColor=none;" vertex="1" parent="LdZz7DW8RSjzyneldxjD-321">
          <mxGeometry x="-5" y="473" width="40" height="40" as="geometry" />
        </mxCell>
        <mxCell id="LdZz7DW8RSjzyneldxjD-334" value="&lt;font style=&quot;font-size: 18px;&quot;&gt;B&lt;/font&gt;" style="text;html=1;align=center;verticalAlign=middle;resizable=0;points=[];autosize=1;strokeColor=none;fillColor=none;" vertex="1" parent="LdZz7DW8RSjzyneldxjD-321">
          <mxGeometry x="-5" y="33" width="40" height="40" as="geometry" />
        </mxCell>
        <mxCell id="LdZz7DW8RSjzyneldxjD-335" value="" style="ellipse;whiteSpace=wrap;html=1;pointerEvents=0;align=center;verticalAlign=top;fontFamily=Helvetica;fontSize=12;fontColor=default;fillColor=none;gradientColor=none;" vertex="1" parent="LdZz7DW8RSjzyneldxjD-320">
          <mxGeometry y="5" width="10" height="10" as="geometry" />
        </mxCell>
        <mxCell id="LdZz7DW8RSjzyneldxjD-336" value="" style="ellipse;whiteSpace=wrap;html=1;pointerEvents=0;align=center;verticalAlign=top;fontFamily=Helvetica;fontSize=12;fontColor=default;fillColor=none;gradientColor=none;" vertex="1" parent="LdZz7DW8RSjzyneldxjD-320">
          <mxGeometry y="205" width="10" height="10" as="geometry" />
        </mxCell>
        <mxCell id="LdZz7DW8RSjzyneldxjD-337" value="" style="ellipse;whiteSpace=wrap;html=1;pointerEvents=0;align=center;verticalAlign=top;fontFamily=Helvetica;fontSize=12;fontColor=default;fillColor=none;gradientColor=none;" vertex="1" parent="LdZz7DW8RSjzyneldxjD-320">
          <mxGeometry y="245" width="10" height="10" as="geometry" />
        </mxCell>
        <mxCell id="LdZz7DW8RSjzyneldxjD-338" value="" style="ellipse;whiteSpace=wrap;html=1;pointerEvents=0;align=center;verticalAlign=top;fontFamily=Helvetica;fontSize=12;fontColor=default;fillColor=none;gradientColor=none;" vertex="1" parent="LdZz7DW8RSjzyneldxjD-320">
          <mxGeometry y="325" width="10" height="10" as="geometry" />
        </mxCell>
        <mxCell id="LdZz7DW8RSjzyneldxjD-339" value="" style="ellipse;whiteSpace=wrap;html=1;pointerEvents=0;align=center;verticalAlign=top;fontFamily=Helvetica;fontSize=12;fontColor=default;fillColor=none;gradientColor=none;" vertex="1" parent="LdZz7DW8RSjzyneldxjD-320">
          <mxGeometry y="365" width="10" height="10" as="geometry" />
        </mxCell>
        <mxCell id="LdZz7DW8RSjzyneldxjD-340" value="" style="ellipse;whiteSpace=wrap;html=1;pointerEvents=0;align=center;verticalAlign=top;fontFamily=Helvetica;fontSize=12;fontColor=default;fillColor=none;gradientColor=none;" vertex="1" parent="LdZz7DW8RSjzyneldxjD-320">
          <mxGeometry y="405" width="10" height="10" as="geometry" />
        </mxCell>
        <mxCell id="LdZz7DW8RSjzyneldxjD-341" value="" style="ellipse;whiteSpace=wrap;html=1;pointerEvents=0;align=center;verticalAlign=top;fontFamily=Helvetica;fontSize=12;fontColor=default;fillColor=none;gradientColor=none;" vertex="1" parent="LdZz7DW8RSjzyneldxjD-320">
          <mxGeometry y="445" width="10" height="10" as="geometry" />
        </mxCell>
        <mxCell id="LdZz7DW8RSjzyneldxjD-342" value="" style="ellipse;whiteSpace=wrap;html=1;pointerEvents=0;align=center;verticalAlign=top;fontFamily=Helvetica;fontSize=12;fontColor=default;fillColor=none;gradientColor=none;" vertex="1" parent="LdZz7DW8RSjzyneldxjD-320">
          <mxGeometry y="485" width="10" height="10" as="geometry" />
        </mxCell>
        <mxCell id="LdZz7DW8RSjzyneldxjD-343" value="" style="ellipse;whiteSpace=wrap;html=1;pointerEvents=0;align=center;verticalAlign=top;fontFamily=Helvetica;fontSize=12;fontColor=default;fillColor=none;gradientColor=none;" vertex="1" parent="LdZz7DW8RSjzyneldxjD-320">
          <mxGeometry y="285" width="10" height="10" as="geometry" />
        </mxCell>
        <mxCell id="LdZz7DW8RSjzyneldxjD-344" value="" style="ellipse;whiteSpace=wrap;html=1;pointerEvents=0;align=center;verticalAlign=top;fontFamily=Helvetica;fontSize=12;fontColor=default;fillColor=none;gradientColor=none;" vertex="1" parent="LdZz7DW8RSjzyneldxjD-320">
          <mxGeometry y="165" width="10" height="10" as="geometry" />
        </mxCell>
        <mxCell id="LdZz7DW8RSjzyneldxjD-345" value="" style="ellipse;whiteSpace=wrap;html=1;pointerEvents=0;align=center;verticalAlign=top;fontFamily=Helvetica;fontSize=12;fontColor=default;fillColor=none;gradientColor=none;" vertex="1" parent="LdZz7DW8RSjzyneldxjD-320">
          <mxGeometry y="130" width="10" height="10" as="geometry" />
        </mxCell>
        <mxCell id="LdZz7DW8RSjzyneldxjD-346" value="" style="ellipse;whiteSpace=wrap;html=1;pointerEvents=0;align=center;verticalAlign=top;fontFamily=Helvetica;fontSize=12;fontColor=default;fillColor=none;gradientColor=none;" vertex="1" parent="LdZz7DW8RSjzyneldxjD-320">
          <mxGeometry y="85" width="10" height="10" as="geometry" />
        </mxCell>
        <mxCell id="LdZz7DW8RSjzyneldxjD-347" value="" style="ellipse;whiteSpace=wrap;html=1;pointerEvents=0;align=center;verticalAlign=top;fontFamily=Helvetica;fontSize=12;fontColor=default;fillColor=none;gradientColor=none;" vertex="1" parent="LdZz7DW8RSjzyneldxjD-320">
          <mxGeometry y="45" width="10" height="10" as="geometry" />
        </mxCell>
        <mxCell id="LdZz7DW8RSjzyneldxjD-703" value="" style="group" vertex="1" connectable="0" parent="1">
          <mxGeometry x="890" y="60" width="50" height="513" as="geometry" />
        </mxCell>
        <mxCell id="LdZz7DW8RSjzyneldxjD-704" value="" style="group;movable=0;resizable=0;rotatable=0;deletable=0;editable=0;locked=1;connectable=0;" vertex="1" connectable="0" parent="LdZz7DW8RSjzyneldxjD-703">
          <mxGeometry width="35" height="513" as="geometry" />
        </mxCell>
        <mxCell id="LdZz7DW8RSjzyneldxjD-705" value="&lt;font size=&quot;3&quot;&gt;A&lt;/font&gt;" style="text;html=1;align=center;verticalAlign=middle;resizable=0;points=[];autosize=1;strokeColor=none;fillColor=none;rotation=0;" vertex="1" parent="LdZz7DW8RSjzyneldxjD-704">
          <mxGeometry width="30" height="30" as="geometry" />
        </mxCell>
        <mxCell id="LdZz7DW8RSjzyneldxjD-706" value="&lt;font style=&quot;font-size: 18px;&quot;&gt;C&lt;/font&gt;" style="text;html=1;align=center;verticalAlign=middle;resizable=0;points=[];autosize=1;strokeColor=none;fillColor=none;" vertex="1" parent="LdZz7DW8RSjzyneldxjD-704">
          <mxGeometry x="-5" y="75" width="40" height="40" as="geometry" />
        </mxCell>
        <mxCell id="LdZz7DW8RSjzyneldxjD-707" value="&lt;font style=&quot;font-size: 18px;&quot;&gt;D&lt;/font&gt;" style="text;html=1;align=center;verticalAlign=middle;resizable=0;points=[];autosize=1;strokeColor=none;fillColor=none;movable=0;rotatable=0;deletable=0;editable=0;locked=1;connectable=0;" vertex="1" parent="LdZz7DW8RSjzyneldxjD-704">
          <mxGeometry x="-5" y="115" width="40" height="40" as="geometry" />
        </mxCell>
        <mxCell id="LdZz7DW8RSjzyneldxjD-708" value="&lt;font style=&quot;font-size: 18px;&quot;&gt;E&lt;/font&gt;" style="text;html=1;align=center;verticalAlign=middle;resizable=0;points=[];autosize=1;strokeColor=none;fillColor=none;" vertex="1" parent="LdZz7DW8RSjzyneldxjD-704">
          <mxGeometry x="-5" y="153" width="40" height="40" as="geometry" />
        </mxCell>
        <mxCell id="LdZz7DW8RSjzyneldxjD-709" value="&lt;font style=&quot;font-size: 18px;&quot;&gt;F&lt;/font&gt;" style="text;html=1;align=center;verticalAlign=middle;resizable=0;points=[];autosize=1;strokeColor=none;fillColor=none;" vertex="1" parent="LdZz7DW8RSjzyneldxjD-704">
          <mxGeometry y="193" width="30" height="40" as="geometry" />
        </mxCell>
        <mxCell id="LdZz7DW8RSjzyneldxjD-710" value="&lt;font style=&quot;font-size: 18px;&quot;&gt;G&lt;/font&gt;" style="text;html=1;align=center;verticalAlign=middle;resizable=0;points=[];autosize=1;strokeColor=none;fillColor=none;" vertex="1" parent="LdZz7DW8RSjzyneldxjD-704">
          <mxGeometry x="-5" y="233" width="40" height="40" as="geometry" />
        </mxCell>
        <mxCell id="LdZz7DW8RSjzyneldxjD-711" value="&lt;font style=&quot;font-size: 18px;&quot;&gt;H&lt;/font&gt;" style="text;html=1;align=center;verticalAlign=middle;resizable=0;points=[];autosize=1;strokeColor=none;fillColor=none;" vertex="1" parent="LdZz7DW8RSjzyneldxjD-704">
          <mxGeometry x="-5" y="273" width="40" height="40" as="geometry" />
        </mxCell>
        <mxCell id="LdZz7DW8RSjzyneldxjD-712" value="&lt;font style=&quot;font-size: 18px;&quot;&gt;I&lt;/font&gt;" style="text;html=1;align=center;verticalAlign=middle;resizable=0;points=[];autosize=1;strokeColor=none;fillColor=none;" vertex="1" parent="LdZz7DW8RSjzyneldxjD-704">
          <mxGeometry y="315" width="30" height="40" as="geometry" />
        </mxCell>
        <mxCell id="LdZz7DW8RSjzyneldxjD-713" value="&lt;font style=&quot;font-size: 18px;&quot;&gt;J&lt;/font&gt;" style="text;html=1;align=center;verticalAlign=middle;resizable=0;points=[];autosize=1;strokeColor=none;fillColor=none;" vertex="1" parent="LdZz7DW8RSjzyneldxjD-704">
          <mxGeometry y="353" width="30" height="40" as="geometry" />
        </mxCell>
        <mxCell id="LdZz7DW8RSjzyneldxjD-714" value="&lt;font style=&quot;font-size: 18px;&quot;&gt;K&lt;/font&gt;" style="text;html=1;align=center;verticalAlign=middle;resizable=0;points=[];autosize=1;strokeColor=none;fillColor=none;" vertex="1" parent="LdZz7DW8RSjzyneldxjD-704">
          <mxGeometry x="-5" y="393" width="40" height="40" as="geometry" />
        </mxCell>
        <mxCell id="LdZz7DW8RSjzyneldxjD-715" value="&lt;font style=&quot;font-size: 18px;&quot;&gt;L&lt;/font&gt;" style="text;html=1;align=center;verticalAlign=middle;resizable=0;points=[];autosize=1;strokeColor=none;fillColor=none;" vertex="1" parent="LdZz7DW8RSjzyneldxjD-704">
          <mxGeometry y="435" width="30" height="40" as="geometry" />
        </mxCell>
        <mxCell id="LdZz7DW8RSjzyneldxjD-716" value="&lt;font style=&quot;font-size: 18px;&quot;&gt;M&lt;/font&gt;" style="text;html=1;align=center;verticalAlign=middle;resizable=0;points=[];autosize=1;strokeColor=none;fillColor=none;" vertex="1" parent="LdZz7DW8RSjzyneldxjD-704">
          <mxGeometry x="-5" y="473" width="40" height="40" as="geometry" />
        </mxCell>
        <mxCell id="LdZz7DW8RSjzyneldxjD-717" value="&lt;font style=&quot;font-size: 18px;&quot;&gt;B&lt;/font&gt;" style="text;html=1;align=center;verticalAlign=middle;resizable=0;points=[];autosize=1;strokeColor=none;fillColor=none;" vertex="1" parent="LdZz7DW8RSjzyneldxjD-704">
          <mxGeometry x="-5" y="33" width="40" height="40" as="geometry" />
        </mxCell>
        <mxCell id="LdZz7DW8RSjzyneldxjD-718" value="" style="shape=waypoint;sketch=0;size=6;pointerEvents=1;points=[];fillColor=none;resizable=0;rotatable=0;perimeter=centerPerimeter;snapToPoint=1;" vertex="1" parent="LdZz7DW8RSjzyneldxjD-703">
          <mxGeometry x="30" width="20" height="20" as="geometry" />
        </mxCell>
        <mxCell id="LdZz7DW8RSjzyneldxjD-719" value="" style="shape=waypoint;sketch=0;size=6;pointerEvents=1;points=[];fillColor=none;resizable=0;rotatable=0;perimeter=centerPerimeter;snapToPoint=1;" vertex="1" parent="LdZz7DW8RSjzyneldxjD-703">
          <mxGeometry x="30" y="40" width="20" height="20" as="geometry" />
        </mxCell>
        <mxCell id="LdZz7DW8RSjzyneldxjD-720" value="" style="shape=waypoint;sketch=0;size=6;pointerEvents=1;points=[];fillColor=none;resizable=0;rotatable=0;perimeter=centerPerimeter;snapToPoint=1;" vertex="1" parent="LdZz7DW8RSjzyneldxjD-703">
          <mxGeometry x="30" y="80" width="20" height="20" as="geometry" />
        </mxCell>
        <mxCell id="LdZz7DW8RSjzyneldxjD-721" value="" style="shape=waypoint;sketch=0;size=6;pointerEvents=1;points=[];fillColor=none;resizable=0;rotatable=0;perimeter=centerPerimeter;snapToPoint=1;" vertex="1" parent="LdZz7DW8RSjzyneldxjD-703">
          <mxGeometry x="30" y="120" width="20" height="20" as="geometry" />
        </mxCell>
        <mxCell id="LdZz7DW8RSjzyneldxjD-722" value="" style="shape=waypoint;sketch=0;size=6;pointerEvents=1;points=[];fillColor=none;resizable=0;rotatable=0;perimeter=centerPerimeter;snapToPoint=1;" vertex="1" parent="LdZz7DW8RSjzyneldxjD-703">
          <mxGeometry x="30" y="160" width="20" height="20" as="geometry" />
        </mxCell>
        <mxCell id="LdZz7DW8RSjzyneldxjD-723" value="" style="shape=waypoint;sketch=0;size=6;pointerEvents=1;points=[];fillColor=none;resizable=0;rotatable=0;perimeter=centerPerimeter;snapToPoint=1;" vertex="1" parent="LdZz7DW8RSjzyneldxjD-703">
          <mxGeometry x="30" y="200" width="20" height="20" as="geometry" />
        </mxCell>
        <mxCell id="LdZz7DW8RSjzyneldxjD-724" value="" style="shape=waypoint;sketch=0;size=6;pointerEvents=1;points=[];fillColor=none;resizable=0;rotatable=0;perimeter=centerPerimeter;snapToPoint=1;" vertex="1" parent="LdZz7DW8RSjzyneldxjD-703">
          <mxGeometry x="30" y="240" width="20" height="20" as="geometry" />
        </mxCell>
        <mxCell id="LdZz7DW8RSjzyneldxjD-725" value="" style="shape=waypoint;sketch=0;size=6;pointerEvents=1;points=[];fillColor=none;resizable=0;rotatable=0;perimeter=centerPerimeter;snapToPoint=1;" vertex="1" parent="LdZz7DW8RSjzyneldxjD-703">
          <mxGeometry x="30" y="280" width="20" height="20" as="geometry" />
        </mxCell>
        <mxCell id="LdZz7DW8RSjzyneldxjD-726" value="" style="shape=waypoint;sketch=0;size=6;pointerEvents=1;points=[];fillColor=none;resizable=0;rotatable=0;perimeter=centerPerimeter;snapToPoint=1;" vertex="1" parent="LdZz7DW8RSjzyneldxjD-703">
          <mxGeometry x="30" y="320" width="20" height="20" as="geometry" />
        </mxCell>
        <mxCell id="LdZz7DW8RSjzyneldxjD-727" value="" style="shape=waypoint;sketch=0;size=6;pointerEvents=1;points=[];fillColor=none;resizable=0;rotatable=0;perimeter=centerPerimeter;snapToPoint=1;" vertex="1" parent="LdZz7DW8RSjzyneldxjD-703">
          <mxGeometry x="30" y="360" width="20" height="20" as="geometry" />
        </mxCell>
        <mxCell id="LdZz7DW8RSjzyneldxjD-728" value="" style="shape=waypoint;sketch=0;size=6;pointerEvents=1;points=[];fillColor=none;resizable=0;rotatable=0;perimeter=centerPerimeter;snapToPoint=1;" vertex="1" parent="LdZz7DW8RSjzyneldxjD-703">
          <mxGeometry x="30" y="400" width="20" height="20" as="geometry" />
        </mxCell>
        <mxCell id="LdZz7DW8RSjzyneldxjD-729" value="" style="shape=waypoint;sketch=0;size=6;pointerEvents=1;points=[];fillColor=none;resizable=0;rotatable=0;perimeter=centerPerimeter;snapToPoint=1;" vertex="1" parent="LdZz7DW8RSjzyneldxjD-703">
          <mxGeometry x="30" y="440" width="20" height="20" as="geometry" />
        </mxCell>
        <mxCell id="LdZz7DW8RSjzyneldxjD-730" value="" style="shape=waypoint;sketch=0;size=6;pointerEvents=1;points=[];fillColor=none;resizable=0;rotatable=0;perimeter=centerPerimeter;snapToPoint=1;align=center;verticalAlign=top;fontFamily=Helvetica;fontSize=12;fontColor=default;" vertex="1" parent="LdZz7DW8RSjzyneldxjD-703">
          <mxGeometry x="30" y="480" width="20" height="20" as="geometry" />
        </mxCell>
        <mxCell id="LdZz7DW8RSjzyneldxjD-731" value="" style="group" vertex="1" connectable="0" parent="1">
          <mxGeometry x="1030" y="60" width="55" height="513" as="geometry" />
        </mxCell>
        <mxCell id="LdZz7DW8RSjzyneldxjD-732" value="" style="group;movable=1;resizable=1;rotatable=1;deletable=1;editable=1;locked=0;connectable=1;" vertex="1" connectable="0" parent="LdZz7DW8RSjzyneldxjD-731">
          <mxGeometry x="20" width="35" height="513" as="geometry" />
        </mxCell>
        <mxCell id="LdZz7DW8RSjzyneldxjD-733" value="&lt;font size=&quot;3&quot;&gt;A&lt;/font&gt;" style="text;html=1;align=center;verticalAlign=middle;resizable=0;points=[];autosize=1;strokeColor=none;fillColor=none;rotation=0;" vertex="1" parent="LdZz7DW8RSjzyneldxjD-732">
          <mxGeometry width="30" height="30" as="geometry" />
        </mxCell>
        <mxCell id="LdZz7DW8RSjzyneldxjD-734" value="&lt;font style=&quot;font-size: 18px;&quot;&gt;C&lt;/font&gt;" style="text;html=1;align=center;verticalAlign=middle;resizable=0;points=[];autosize=1;strokeColor=none;fillColor=none;" vertex="1" parent="LdZz7DW8RSjzyneldxjD-732">
          <mxGeometry x="-5" y="75" width="40" height="40" as="geometry" />
        </mxCell>
        <mxCell id="LdZz7DW8RSjzyneldxjD-735" value="&lt;font style=&quot;font-size: 18px;&quot;&gt;D&lt;/font&gt;" style="text;html=1;align=center;verticalAlign=middle;resizable=0;points=[];autosize=1;strokeColor=none;fillColor=none;movable=0;rotatable=0;deletable=0;editable=0;locked=1;connectable=0;" vertex="1" parent="LdZz7DW8RSjzyneldxjD-732">
          <mxGeometry x="-5" y="115" width="40" height="40" as="geometry" />
        </mxCell>
        <mxCell id="LdZz7DW8RSjzyneldxjD-736" value="&lt;font style=&quot;font-size: 18px;&quot;&gt;E&lt;/font&gt;" style="text;html=1;align=center;verticalAlign=middle;resizable=0;points=[];autosize=1;strokeColor=none;fillColor=none;" vertex="1" parent="LdZz7DW8RSjzyneldxjD-732">
          <mxGeometry x="-5" y="153" width="40" height="40" as="geometry" />
        </mxCell>
        <mxCell id="LdZz7DW8RSjzyneldxjD-737" value="&lt;font style=&quot;font-size: 18px;&quot;&gt;F&lt;/font&gt;" style="text;html=1;align=center;verticalAlign=middle;resizable=0;points=[];autosize=1;strokeColor=none;fillColor=none;" vertex="1" parent="LdZz7DW8RSjzyneldxjD-732">
          <mxGeometry y="193" width="30" height="40" as="geometry" />
        </mxCell>
        <mxCell id="LdZz7DW8RSjzyneldxjD-738" value="&lt;font style=&quot;font-size: 18px;&quot;&gt;G&lt;/font&gt;" style="text;html=1;align=center;verticalAlign=middle;resizable=0;points=[];autosize=1;strokeColor=none;fillColor=none;" vertex="1" parent="LdZz7DW8RSjzyneldxjD-732">
          <mxGeometry x="-5" y="233" width="40" height="40" as="geometry" />
        </mxCell>
        <mxCell id="LdZz7DW8RSjzyneldxjD-739" value="&lt;font style=&quot;font-size: 18px;&quot;&gt;H&lt;/font&gt;" style="text;html=1;align=center;verticalAlign=middle;resizable=0;points=[];autosize=1;strokeColor=none;fillColor=none;" vertex="1" parent="LdZz7DW8RSjzyneldxjD-732">
          <mxGeometry x="-5" y="273" width="40" height="40" as="geometry" />
        </mxCell>
        <mxCell id="LdZz7DW8RSjzyneldxjD-740" value="&lt;font style=&quot;font-size: 18px;&quot;&gt;I&lt;/font&gt;" style="text;html=1;align=center;verticalAlign=middle;resizable=0;points=[];autosize=1;strokeColor=none;fillColor=none;" vertex="1" parent="LdZz7DW8RSjzyneldxjD-732">
          <mxGeometry y="315" width="30" height="40" as="geometry" />
        </mxCell>
        <mxCell id="LdZz7DW8RSjzyneldxjD-741" value="&lt;font style=&quot;font-size: 18px;&quot;&gt;J&lt;/font&gt;" style="text;html=1;align=center;verticalAlign=middle;resizable=0;points=[];autosize=1;strokeColor=none;fillColor=none;" vertex="1" parent="LdZz7DW8RSjzyneldxjD-732">
          <mxGeometry y="353" width="30" height="40" as="geometry" />
        </mxCell>
        <mxCell id="LdZz7DW8RSjzyneldxjD-742" value="&lt;font style=&quot;font-size: 18px;&quot;&gt;K&lt;/font&gt;" style="text;html=1;align=center;verticalAlign=middle;resizable=0;points=[];autosize=1;strokeColor=none;fillColor=none;" vertex="1" parent="LdZz7DW8RSjzyneldxjD-732">
          <mxGeometry x="-5" y="393" width="40" height="40" as="geometry" />
        </mxCell>
        <mxCell id="LdZz7DW8RSjzyneldxjD-743" value="&lt;font style=&quot;font-size: 18px;&quot;&gt;L&lt;/font&gt;" style="text;html=1;align=center;verticalAlign=middle;resizable=0;points=[];autosize=1;strokeColor=none;fillColor=none;" vertex="1" parent="LdZz7DW8RSjzyneldxjD-732">
          <mxGeometry y="435" width="30" height="40" as="geometry" />
        </mxCell>
        <mxCell id="LdZz7DW8RSjzyneldxjD-744" value="&lt;font style=&quot;font-size: 18px;&quot;&gt;M&lt;/font&gt;" style="text;html=1;align=center;verticalAlign=middle;resizable=0;points=[];autosize=1;strokeColor=none;fillColor=none;" vertex="1" parent="LdZz7DW8RSjzyneldxjD-732">
          <mxGeometry x="-5" y="473" width="40" height="40" as="geometry" />
        </mxCell>
        <mxCell id="LdZz7DW8RSjzyneldxjD-745" value="&lt;font style=&quot;font-size: 18px;&quot;&gt;B&lt;/font&gt;" style="text;html=1;align=center;verticalAlign=middle;resizable=0;points=[];autosize=1;strokeColor=none;fillColor=none;" vertex="1" parent="LdZz7DW8RSjzyneldxjD-732">
          <mxGeometry x="-5" y="33" width="40" height="40" as="geometry" />
        </mxCell>
        <mxCell id="LdZz7DW8RSjzyneldxjD-746" value="" style="ellipse;whiteSpace=wrap;html=1;pointerEvents=0;align=center;verticalAlign=top;fontFamily=Helvetica;fontSize=12;fontColor=default;fillColor=none;gradientColor=none;" vertex="1" parent="LdZz7DW8RSjzyneldxjD-731">
          <mxGeometry y="5" width="10" height="10" as="geometry" />
        </mxCell>
        <mxCell id="LdZz7DW8RSjzyneldxjD-747" value="" style="ellipse;whiteSpace=wrap;html=1;pointerEvents=0;align=center;verticalAlign=top;fontFamily=Helvetica;fontSize=12;fontColor=default;fillColor=none;gradientColor=none;" vertex="1" parent="LdZz7DW8RSjzyneldxjD-731">
          <mxGeometry y="205" width="10" height="10" as="geometry" />
        </mxCell>
        <mxCell id="LdZz7DW8RSjzyneldxjD-748" value="" style="ellipse;whiteSpace=wrap;html=1;pointerEvents=0;align=center;verticalAlign=top;fontFamily=Helvetica;fontSize=12;fontColor=default;fillColor=none;gradientColor=none;" vertex="1" parent="LdZz7DW8RSjzyneldxjD-731">
          <mxGeometry y="245" width="10" height="10" as="geometry" />
        </mxCell>
        <mxCell id="LdZz7DW8RSjzyneldxjD-749" value="" style="ellipse;whiteSpace=wrap;html=1;pointerEvents=0;align=center;verticalAlign=top;fontFamily=Helvetica;fontSize=12;fontColor=default;fillColor=none;gradientColor=none;" vertex="1" parent="LdZz7DW8RSjzyneldxjD-731">
          <mxGeometry y="325" width="10" height="10" as="geometry" />
        </mxCell>
        <mxCell id="LdZz7DW8RSjzyneldxjD-750" value="" style="ellipse;whiteSpace=wrap;html=1;pointerEvents=0;align=center;verticalAlign=top;fontFamily=Helvetica;fontSize=12;fontColor=default;fillColor=none;gradientColor=none;" vertex="1" parent="LdZz7DW8RSjzyneldxjD-731">
          <mxGeometry y="365" width="10" height="10" as="geometry" />
        </mxCell>
        <mxCell id="LdZz7DW8RSjzyneldxjD-751" value="" style="ellipse;whiteSpace=wrap;html=1;pointerEvents=0;align=center;verticalAlign=top;fontFamily=Helvetica;fontSize=12;fontColor=default;fillColor=none;gradientColor=none;" vertex="1" parent="LdZz7DW8RSjzyneldxjD-731">
          <mxGeometry y="405" width="10" height="10" as="geometry" />
        </mxCell>
        <mxCell id="LdZz7DW8RSjzyneldxjD-752" value="" style="ellipse;whiteSpace=wrap;html=1;pointerEvents=0;align=center;verticalAlign=top;fontFamily=Helvetica;fontSize=12;fontColor=default;fillColor=none;gradientColor=none;" vertex="1" parent="LdZz7DW8RSjzyneldxjD-731">
          <mxGeometry y="445" width="10" height="10" as="geometry" />
        </mxCell>
        <mxCell id="LdZz7DW8RSjzyneldxjD-753" value="" style="ellipse;whiteSpace=wrap;html=1;pointerEvents=0;align=center;verticalAlign=top;fontFamily=Helvetica;fontSize=12;fontColor=default;fillColor=none;gradientColor=none;" vertex="1" parent="LdZz7DW8RSjzyneldxjD-731">
          <mxGeometry y="485" width="10" height="10" as="geometry" />
        </mxCell>
        <mxCell id="LdZz7DW8RSjzyneldxjD-754" value="" style="ellipse;whiteSpace=wrap;html=1;pointerEvents=0;align=center;verticalAlign=top;fontFamily=Helvetica;fontSize=12;fontColor=default;fillColor=none;gradientColor=none;" vertex="1" parent="LdZz7DW8RSjzyneldxjD-731">
          <mxGeometry y="285" width="10" height="10" as="geometry" />
        </mxCell>
        <mxCell id="LdZz7DW8RSjzyneldxjD-755" value="" style="ellipse;whiteSpace=wrap;html=1;pointerEvents=0;align=center;verticalAlign=top;fontFamily=Helvetica;fontSize=12;fontColor=default;fillColor=none;gradientColor=none;" vertex="1" parent="LdZz7DW8RSjzyneldxjD-731">
          <mxGeometry y="165" width="10" height="10" as="geometry" />
        </mxCell>
        <mxCell id="LdZz7DW8RSjzyneldxjD-756" value="" style="ellipse;whiteSpace=wrap;html=1;pointerEvents=0;align=center;verticalAlign=top;fontFamily=Helvetica;fontSize=12;fontColor=default;fillColor=none;gradientColor=none;" vertex="1" parent="LdZz7DW8RSjzyneldxjD-731">
          <mxGeometry y="130" width="10" height="10" as="geometry" />
        </mxCell>
        <mxCell id="LdZz7DW8RSjzyneldxjD-757" value="" style="ellipse;whiteSpace=wrap;html=1;pointerEvents=0;align=center;verticalAlign=top;fontFamily=Helvetica;fontSize=12;fontColor=default;fillColor=none;gradientColor=none;" vertex="1" parent="LdZz7DW8RSjzyneldxjD-731">
          <mxGeometry y="85" width="10" height="10" as="geometry" />
        </mxCell>
        <mxCell id="LdZz7DW8RSjzyneldxjD-758" value="" style="ellipse;whiteSpace=wrap;html=1;pointerEvents=0;align=center;verticalAlign=top;fontFamily=Helvetica;fontSize=12;fontColor=default;fillColor=none;gradientColor=none;" vertex="1" parent="LdZz7DW8RSjzyneldxjD-731">
          <mxGeometry y="45" width="10" height="10" as="geometry" />
        </mxCell>
        <mxCell id="LdZz7DW8RSjzyneldxjD-1" value="" style="group;movable=0;resizable=0;rotatable=0;deletable=0;editable=0;locked=1;connectable=0;" vertex="1" connectable="0" parent="1">
          <mxGeometry x="130" y="60" width="35" height="513" as="geometry" />
        </mxCell>
        <mxCell id="TUGFs5YJp9LeHNys_f7D-1" value="&lt;font size=&quot;3&quot;&gt;A&lt;/font&gt;" style="text;html=1;align=center;verticalAlign=middle;resizable=0;points=[];autosize=1;strokeColor=none;fillColor=none;rotation=0;" vertex="1" parent="LdZz7DW8RSjzyneldxjD-1">
          <mxGeometry width="30" height="30" as="geometry" />
        </mxCell>
        <mxCell id="TUGFs5YJp9LeHNys_f7D-3" value="&lt;font style=&quot;font-size: 18px;&quot;&gt;C&lt;/font&gt;" style="text;html=1;align=center;verticalAlign=middle;resizable=0;points=[];autosize=1;strokeColor=none;fillColor=none;" vertex="1" parent="LdZz7DW8RSjzyneldxjD-1">
          <mxGeometry x="-5" y="75" width="40" height="40" as="geometry" />
        </mxCell>
        <mxCell id="TUGFs5YJp9LeHNys_f7D-4" value="&lt;font style=&quot;font-size: 18px;&quot;&gt;D&lt;/font&gt;" style="text;html=1;align=center;verticalAlign=middle;resizable=0;points=[];autosize=1;strokeColor=none;fillColor=none;movable=0;rotatable=0;deletable=0;editable=0;locked=1;connectable=0;" vertex="1" parent="LdZz7DW8RSjzyneldxjD-1">
          <mxGeometry x="-5" y="115" width="40" height="40" as="geometry" />
        </mxCell>
        <mxCell id="TUGFs5YJp9LeHNys_f7D-5" value="&lt;font style=&quot;font-size: 18px;&quot;&gt;E&lt;/font&gt;" style="text;html=1;align=center;verticalAlign=middle;resizable=0;points=[];autosize=1;strokeColor=none;fillColor=none;" vertex="1" parent="LdZz7DW8RSjzyneldxjD-1">
          <mxGeometry x="-5" y="153" width="40" height="40" as="geometry" />
        </mxCell>
        <mxCell id="TUGFs5YJp9LeHNys_f7D-6" value="&lt;font style=&quot;font-size: 18px;&quot;&gt;F&lt;/font&gt;" style="text;html=1;align=center;verticalAlign=middle;resizable=0;points=[];autosize=1;strokeColor=none;fillColor=none;" vertex="1" parent="LdZz7DW8RSjzyneldxjD-1">
          <mxGeometry y="193" width="30" height="40" as="geometry" />
        </mxCell>
        <mxCell id="TUGFs5YJp9LeHNys_f7D-7" value="&lt;font style=&quot;font-size: 18px;&quot;&gt;G&lt;/font&gt;" style="text;html=1;align=center;verticalAlign=middle;resizable=0;points=[];autosize=1;strokeColor=none;fillColor=none;" vertex="1" parent="LdZz7DW8RSjzyneldxjD-1">
          <mxGeometry x="-5" y="233" width="40" height="40" as="geometry" />
        </mxCell>
        <mxCell id="TUGFs5YJp9LeHNys_f7D-8" value="&lt;font style=&quot;font-size: 18px;&quot;&gt;H&lt;/font&gt;" style="text;html=1;align=center;verticalAlign=middle;resizable=0;points=[];autosize=1;strokeColor=none;fillColor=none;" vertex="1" parent="LdZz7DW8RSjzyneldxjD-1">
          <mxGeometry x="-5" y="273" width="40" height="40" as="geometry" />
        </mxCell>
        <mxCell id="TUGFs5YJp9LeHNys_f7D-9" value="&lt;font style=&quot;font-size: 18px;&quot;&gt;I&lt;/font&gt;" style="text;html=1;align=center;verticalAlign=middle;resizable=0;points=[];autosize=1;strokeColor=none;fillColor=none;" vertex="1" parent="LdZz7DW8RSjzyneldxjD-1">
          <mxGeometry y="315" width="30" height="40" as="geometry" />
        </mxCell>
        <mxCell id="TUGFs5YJp9LeHNys_f7D-10" value="&lt;font style=&quot;font-size: 18px;&quot;&gt;J&lt;/font&gt;" style="text;html=1;align=center;verticalAlign=middle;resizable=0;points=[];autosize=1;strokeColor=none;fillColor=none;" vertex="1" parent="LdZz7DW8RSjzyneldxjD-1">
          <mxGeometry y="353" width="30" height="40" as="geometry" />
        </mxCell>
        <mxCell id="TUGFs5YJp9LeHNys_f7D-11" value="&lt;font style=&quot;font-size: 18px;&quot;&gt;K&lt;/font&gt;" style="text;html=1;align=center;verticalAlign=middle;resizable=0;points=[];autosize=1;strokeColor=none;fillColor=none;" vertex="1" parent="LdZz7DW8RSjzyneldxjD-1">
          <mxGeometry x="-5" y="393" width="40" height="40" as="geometry" />
        </mxCell>
        <mxCell id="TUGFs5YJp9LeHNys_f7D-13" value="&lt;font style=&quot;font-size: 18px;&quot;&gt;L&lt;/font&gt;" style="text;html=1;align=center;verticalAlign=middle;resizable=0;points=[];autosize=1;strokeColor=none;fillColor=none;" vertex="1" parent="LdZz7DW8RSjzyneldxjD-1">
          <mxGeometry y="435" width="30" height="40" as="geometry" />
        </mxCell>
        <mxCell id="TUGFs5YJp9LeHNys_f7D-14" value="&lt;font style=&quot;font-size: 18px;&quot;&gt;M&lt;/font&gt;" style="text;html=1;align=center;verticalAlign=middle;resizable=0;points=[];autosize=1;strokeColor=none;fillColor=none;" vertex="1" parent="LdZz7DW8RSjzyneldxjD-1">
          <mxGeometry x="-5" y="473" width="40" height="40" as="geometry" />
        </mxCell>
        <mxCell id="LdZz7DW8RSjzyneldxjD-24" value="&lt;font style=&quot;font-size: 18px;&quot;&gt;B&lt;/font&gt;" style="text;html=1;align=center;verticalAlign=middle;resizable=0;points=[];autosize=1;strokeColor=none;fillColor=none;" vertex="1" parent="LdZz7DW8RSjzyneldxjD-1">
          <mxGeometry x="-5" y="33" width="40" height="40" as="geometry" />
        </mxCell>
        <mxCell id="LdZz7DW8RSjzyneldxjD-18" value="" style="shape=waypoint;sketch=0;size=6;pointerEvents=1;points=[];fillColor=none;resizable=0;rotatable=0;perimeter=centerPerimeter;snapToPoint=1;" vertex="1" parent="1">
          <mxGeometry x="160" y="60" width="20" height="20" as="geometry" />
        </mxCell>
        <mxCell id="LdZz7DW8RSjzyneldxjD-19" value="" style="shape=waypoint;sketch=0;size=6;pointerEvents=1;points=[];fillColor=none;resizable=0;rotatable=0;perimeter=centerPerimeter;snapToPoint=1;" vertex="1" parent="1">
          <mxGeometry x="160" y="100" width="20" height="20" as="geometry" />
        </mxCell>
        <mxCell id="LdZz7DW8RSjzyneldxjD-20" value="" style="shape=waypoint;sketch=0;size=6;pointerEvents=1;points=[];fillColor=none;resizable=0;rotatable=0;perimeter=centerPerimeter;snapToPoint=1;" vertex="1" parent="1">
          <mxGeometry x="160" y="140" width="20" height="20" as="geometry" />
        </mxCell>
        <mxCell id="LdZz7DW8RSjzyneldxjD-21" value="" style="shape=waypoint;sketch=0;size=6;pointerEvents=1;points=[];fillColor=none;resizable=0;rotatable=0;perimeter=centerPerimeter;snapToPoint=1;" vertex="1" parent="1">
          <mxGeometry x="160" y="180" width="20" height="20" as="geometry" />
        </mxCell>
        <mxCell id="LdZz7DW8RSjzyneldxjD-27" value="" style="shape=waypoint;sketch=0;size=6;pointerEvents=1;points=[];fillColor=none;resizable=0;rotatable=0;perimeter=centerPerimeter;snapToPoint=1;" vertex="1" parent="1">
          <mxGeometry x="160" y="220" width="20" height="20" as="geometry" />
        </mxCell>
        <mxCell id="LdZz7DW8RSjzyneldxjD-28" value="" style="shape=waypoint;sketch=0;size=6;pointerEvents=1;points=[];fillColor=none;resizable=0;rotatable=0;perimeter=centerPerimeter;snapToPoint=1;" vertex="1" parent="1">
          <mxGeometry x="160" y="260" width="20" height="20" as="geometry" />
        </mxCell>
        <mxCell id="LdZz7DW8RSjzyneldxjD-29" value="" style="shape=waypoint;sketch=0;size=6;pointerEvents=1;points=[];fillColor=none;resizable=0;rotatable=0;perimeter=centerPerimeter;snapToPoint=1;" vertex="1" parent="1">
          <mxGeometry x="160" y="300" width="20" height="20" as="geometry" />
        </mxCell>
        <mxCell id="LdZz7DW8RSjzyneldxjD-30" value="" style="shape=waypoint;sketch=0;size=6;pointerEvents=1;points=[];fillColor=none;resizable=0;rotatable=0;perimeter=centerPerimeter;snapToPoint=1;" vertex="1" parent="1">
          <mxGeometry x="160" y="340" width="20" height="20" as="geometry" />
        </mxCell>
        <mxCell id="LdZz7DW8RSjzyneldxjD-31" value="" style="shape=waypoint;sketch=0;size=6;pointerEvents=1;points=[];fillColor=none;resizable=0;rotatable=0;perimeter=centerPerimeter;snapToPoint=1;" vertex="1" parent="1">
          <mxGeometry x="160" y="380" width="20" height="20" as="geometry" />
        </mxCell>
        <mxCell id="LdZz7DW8RSjzyneldxjD-32" value="" style="shape=waypoint;sketch=0;size=6;pointerEvents=1;points=[];fillColor=none;resizable=0;rotatable=0;perimeter=centerPerimeter;snapToPoint=1;" vertex="1" parent="1">
          <mxGeometry x="160" y="420" width="20" height="20" as="geometry" />
        </mxCell>
        <mxCell id="LdZz7DW8RSjzyneldxjD-33" value="" style="shape=waypoint;sketch=0;size=6;pointerEvents=1;points=[];fillColor=none;resizable=0;rotatable=0;perimeter=centerPerimeter;snapToPoint=1;" vertex="1" parent="1">
          <mxGeometry x="160" y="460" width="20" height="20" as="geometry" />
        </mxCell>
        <mxCell id="LdZz7DW8RSjzyneldxjD-34" value="" style="shape=waypoint;sketch=0;size=6;pointerEvents=1;points=[];fillColor=none;resizable=0;rotatable=0;perimeter=centerPerimeter;snapToPoint=1;" vertex="1" parent="1">
          <mxGeometry x="160" y="500" width="20" height="20" as="geometry" />
        </mxCell>
        <mxCell id="LdZz7DW8RSjzyneldxjD-49" value="" style="shape=waypoint;sketch=0;size=6;pointerEvents=1;points=[];fillColor=none;resizable=0;rotatable=0;perimeter=centerPerimeter;snapToPoint=1;align=center;verticalAlign=top;fontFamily=Helvetica;fontSize=12;fontColor=default;" vertex="1" parent="1">
          <mxGeometry x="160" y="540" width="20" height="20" as="geometry" />
        </mxCell>
        <mxCell id="LdZz7DW8RSjzyneldxjD-35" value="" style="group;movable=1;resizable=1;rotatable=1;deletable=1;editable=1;locked=0;connectable=1;" vertex="1" connectable="0" parent="1">
          <mxGeometry x="290" y="60" width="35" height="513" as="geometry" />
        </mxCell>
        <mxCell id="LdZz7DW8RSjzyneldxjD-36" value="&lt;font size=&quot;3&quot;&gt;A&lt;/font&gt;" style="text;html=1;align=center;verticalAlign=middle;resizable=0;points=[];autosize=1;strokeColor=none;fillColor=none;rotation=0;" vertex="1" parent="LdZz7DW8RSjzyneldxjD-35">
          <mxGeometry width="30" height="30" as="geometry" />
        </mxCell>
        <mxCell id="LdZz7DW8RSjzyneldxjD-37" value="&lt;font style=&quot;font-size: 18px;&quot;&gt;C&lt;/font&gt;" style="text;html=1;align=center;verticalAlign=middle;resizable=0;points=[];autosize=1;strokeColor=none;fillColor=none;" vertex="1" parent="LdZz7DW8RSjzyneldxjD-35">
          <mxGeometry x="-5" y="75" width="40" height="40" as="geometry" />
        </mxCell>
        <mxCell id="LdZz7DW8RSjzyneldxjD-38" value="&lt;font style=&quot;font-size: 18px;&quot;&gt;D&lt;/font&gt;" style="text;html=1;align=center;verticalAlign=middle;resizable=0;points=[];autosize=1;strokeColor=none;fillColor=none;movable=0;rotatable=0;deletable=0;editable=0;locked=1;connectable=0;" vertex="1" parent="LdZz7DW8RSjzyneldxjD-35">
          <mxGeometry x="-5" y="115" width="40" height="40" as="geometry" />
        </mxCell>
        <mxCell id="LdZz7DW8RSjzyneldxjD-39" value="&lt;font style=&quot;font-size: 18px;&quot;&gt;E&lt;/font&gt;" style="text;html=1;align=center;verticalAlign=middle;resizable=0;points=[];autosize=1;strokeColor=none;fillColor=none;" vertex="1" parent="LdZz7DW8RSjzyneldxjD-35">
          <mxGeometry x="-5" y="153" width="40" height="40" as="geometry" />
        </mxCell>
        <mxCell id="LdZz7DW8RSjzyneldxjD-40" value="&lt;font style=&quot;font-size: 18px;&quot;&gt;F&lt;/font&gt;" style="text;html=1;align=center;verticalAlign=middle;resizable=0;points=[];autosize=1;strokeColor=none;fillColor=none;" vertex="1" parent="LdZz7DW8RSjzyneldxjD-35">
          <mxGeometry y="193" width="30" height="40" as="geometry" />
        </mxCell>
        <mxCell id="LdZz7DW8RSjzyneldxjD-41" value="&lt;font style=&quot;font-size: 18px;&quot;&gt;G&lt;/font&gt;" style="text;html=1;align=center;verticalAlign=middle;resizable=0;points=[];autosize=1;strokeColor=none;fillColor=none;" vertex="1" parent="LdZz7DW8RSjzyneldxjD-35">
          <mxGeometry x="-5" y="233" width="40" height="40" as="geometry" />
        </mxCell>
        <mxCell id="LdZz7DW8RSjzyneldxjD-42" value="&lt;font style=&quot;font-size: 18px;&quot;&gt;H&lt;/font&gt;" style="text;html=1;align=center;verticalAlign=middle;resizable=0;points=[];autosize=1;strokeColor=none;fillColor=none;" vertex="1" parent="LdZz7DW8RSjzyneldxjD-35">
          <mxGeometry x="-5" y="273" width="40" height="40" as="geometry" />
        </mxCell>
        <mxCell id="LdZz7DW8RSjzyneldxjD-43" value="&lt;font style=&quot;font-size: 18px;&quot;&gt;I&lt;/font&gt;" style="text;html=1;align=center;verticalAlign=middle;resizable=0;points=[];autosize=1;strokeColor=none;fillColor=none;" vertex="1" parent="LdZz7DW8RSjzyneldxjD-35">
          <mxGeometry y="315" width="30" height="40" as="geometry" />
        </mxCell>
        <mxCell id="LdZz7DW8RSjzyneldxjD-44" value="&lt;font style=&quot;font-size: 18px;&quot;&gt;J&lt;/font&gt;" style="text;html=1;align=center;verticalAlign=middle;resizable=0;points=[];autosize=1;strokeColor=none;fillColor=none;" vertex="1" parent="LdZz7DW8RSjzyneldxjD-35">
          <mxGeometry y="353" width="30" height="40" as="geometry" />
        </mxCell>
        <mxCell id="LdZz7DW8RSjzyneldxjD-45" value="&lt;font style=&quot;font-size: 18px;&quot;&gt;K&lt;/font&gt;" style="text;html=1;align=center;verticalAlign=middle;resizable=0;points=[];autosize=1;strokeColor=none;fillColor=none;" vertex="1" parent="LdZz7DW8RSjzyneldxjD-35">
          <mxGeometry x="-5" y="393" width="40" height="40" as="geometry" />
        </mxCell>
        <mxCell id="LdZz7DW8RSjzyneldxjD-46" value="&lt;font style=&quot;font-size: 18px;&quot;&gt;L&lt;/font&gt;" style="text;html=1;align=center;verticalAlign=middle;resizable=0;points=[];autosize=1;strokeColor=none;fillColor=none;" vertex="1" parent="LdZz7DW8RSjzyneldxjD-35">
          <mxGeometry y="435" width="30" height="40" as="geometry" />
        </mxCell>
        <mxCell id="LdZz7DW8RSjzyneldxjD-47" value="&lt;font style=&quot;font-size: 18px;&quot;&gt;M&lt;/font&gt;" style="text;html=1;align=center;verticalAlign=middle;resizable=0;points=[];autosize=1;strokeColor=none;fillColor=none;" vertex="1" parent="LdZz7DW8RSjzyneldxjD-35">
          <mxGeometry x="-5" y="473" width="40" height="40" as="geometry" />
        </mxCell>
        <mxCell id="LdZz7DW8RSjzyneldxjD-48" value="&lt;font style=&quot;font-size: 18px;&quot;&gt;B&lt;/font&gt;" style="text;html=1;align=center;verticalAlign=middle;resizable=0;points=[];autosize=1;strokeColor=none;fillColor=none;" vertex="1" parent="LdZz7DW8RSjzyneldxjD-35">
          <mxGeometry x="-5" y="33" width="40" height="40" as="geometry" />
        </mxCell>
        <mxCell id="LdZz7DW8RSjzyneldxjD-51" value="" style="ellipse;whiteSpace=wrap;html=1;pointerEvents=0;align=center;verticalAlign=top;fontFamily=Helvetica;fontSize=12;fontColor=default;fillColor=none;gradientColor=none;" vertex="1" parent="1">
          <mxGeometry x="270" y="65" width="10" height="10" as="geometry" />
        </mxCell>
        <mxCell id="LdZz7DW8RSjzyneldxjD-59" value="" style="ellipse;whiteSpace=wrap;html=1;pointerEvents=0;align=center;verticalAlign=top;fontFamily=Helvetica;fontSize=12;fontColor=default;fillColor=none;gradientColor=none;" vertex="1" parent="1">
          <mxGeometry x="270" y="265" width="10" height="10" as="geometry" />
        </mxCell>
        <mxCell id="LdZz7DW8RSjzyneldxjD-60" value="" style="ellipse;whiteSpace=wrap;html=1;pointerEvents=0;align=center;verticalAlign=top;fontFamily=Helvetica;fontSize=12;fontColor=default;fillColor=none;gradientColor=none;" vertex="1" parent="1">
          <mxGeometry x="270" y="305" width="10" height="10" as="geometry" />
        </mxCell>
        <mxCell id="LdZz7DW8RSjzyneldxjD-62" value="" style="ellipse;whiteSpace=wrap;html=1;pointerEvents=0;align=center;verticalAlign=top;fontFamily=Helvetica;fontSize=12;fontColor=default;fillColor=none;gradientColor=none;" vertex="1" parent="1">
          <mxGeometry x="270" y="385" width="10" height="10" as="geometry" />
        </mxCell>
        <mxCell id="LdZz7DW8RSjzyneldxjD-63" value="" style="ellipse;whiteSpace=wrap;html=1;pointerEvents=0;align=center;verticalAlign=top;fontFamily=Helvetica;fontSize=12;fontColor=default;fillColor=none;gradientColor=none;" vertex="1" parent="1">
          <mxGeometry x="270" y="425" width="10" height="10" as="geometry" />
        </mxCell>
        <mxCell id="LdZz7DW8RSjzyneldxjD-64" value="" style="ellipse;whiteSpace=wrap;html=1;pointerEvents=0;align=center;verticalAlign=top;fontFamily=Helvetica;fontSize=12;fontColor=default;fillColor=none;gradientColor=none;" vertex="1" parent="1">
          <mxGeometry x="270" y="465" width="10" height="10" as="geometry" />
        </mxCell>
        <mxCell id="LdZz7DW8RSjzyneldxjD-65" value="" style="ellipse;whiteSpace=wrap;html=1;pointerEvents=0;align=center;verticalAlign=top;fontFamily=Helvetica;fontSize=12;fontColor=default;fillColor=none;gradientColor=none;" vertex="1" parent="1">
          <mxGeometry x="270" y="505" width="10" height="10" as="geometry" />
        </mxCell>
        <mxCell id="LdZz7DW8RSjzyneldxjD-66" value="" style="ellipse;whiteSpace=wrap;html=1;pointerEvents=0;align=center;verticalAlign=top;fontFamily=Helvetica;fontSize=12;fontColor=default;fillColor=none;gradientColor=none;" vertex="1" parent="1">
          <mxGeometry x="270" y="545" width="10" height="10" as="geometry" />
        </mxCell>
        <mxCell id="LdZz7DW8RSjzyneldxjD-61" value="" style="ellipse;whiteSpace=wrap;html=1;pointerEvents=0;align=center;verticalAlign=top;fontFamily=Helvetica;fontSize=12;fontColor=default;fillColor=none;gradientColor=none;" vertex="1" parent="1">
          <mxGeometry x="270" y="345" width="10" height="10" as="geometry" />
        </mxCell>
        <mxCell id="LdZz7DW8RSjzyneldxjD-58" value="" style="ellipse;whiteSpace=wrap;html=1;pointerEvents=0;align=center;verticalAlign=top;fontFamily=Helvetica;fontSize=12;fontColor=default;fillColor=none;gradientColor=none;" vertex="1" parent="1">
          <mxGeometry x="270" y="225" width="10" height="10" as="geometry" />
        </mxCell>
        <mxCell id="LdZz7DW8RSjzyneldxjD-57" value="" style="ellipse;whiteSpace=wrap;html=1;pointerEvents=0;align=center;verticalAlign=top;fontFamily=Helvetica;fontSize=12;fontColor=default;fillColor=none;gradientColor=none;" vertex="1" parent="1">
          <mxGeometry x="270" y="190" width="10" height="10" as="geometry" />
        </mxCell>
        <mxCell id="LdZz7DW8RSjzyneldxjD-56" value="" style="ellipse;whiteSpace=wrap;html=1;pointerEvents=0;align=center;verticalAlign=top;fontFamily=Helvetica;fontSize=12;fontColor=default;fillColor=none;gradientColor=none;" vertex="1" parent="1">
          <mxGeometry x="270" y="145" width="10" height="10" as="geometry" />
        </mxCell>
        <mxCell id="LdZz7DW8RSjzyneldxjD-53" value="" style="ellipse;whiteSpace=wrap;html=1;pointerEvents=0;align=center;verticalAlign=top;fontFamily=Helvetica;fontSize=12;fontColor=default;fillColor=none;gradientColor=none;" vertex="1" parent="1">
          <mxGeometry x="270" y="105" width="10" height="10" as="geometry" />
        </mxCell>
      </root>
    </mxGraphModel>
  </diagram>
  <diagram id="qHTGBw1Lb_R0SnM4URSL" name="Page-2">
    <mxGraphModel dx="1690" dy="1170" grid="1" gridSize="10" guides="1" tooltips="1" connect="1" arrows="1" fold="1" page="1" pageScale="1" pageWidth="850" pageHeight="1100" math="0" shadow="0">
      <root>
        <mxCell id="0" />
        <mxCell id="1" parent="0" />
      </root>
    </mxGraphModel>
  </diagram>
</mxfile>
